<svg width="47" height="55" viewBox="0 0 47 55" fill="none" xmlns="http://www.w3.org/2000/svg">
<path d="M30.2565 36.8552C30.1073 36.8433 29.9576 36.8655 29.8181 36.9197L23.4682 39.3852C23.2355 39.4756 22.9774 39.4756 22.7446 39.3853L16.3876 36.9196C16.2482 36.8655 16.0986 36.8433 15.9495 36.8552C15.819 36.8656 15.672 36.8775 15.5216 36.8898C14.9518 36.9364 14.5396 37.4519 14.6171 38.0183L16.7365 53.4957C16.8043 53.9909 17.2274 54.36 17.7272 54.36H28.4716C28.9715 54.36 29.3945 53.9909 29.4624 53.4957L31.582 38.0163C31.6594 37.4507 31.2483 36.936 30.6793 36.8894C30.5308 36.8772 30.3856 36.8655 30.2565 36.8552Z" fill="white"/>
<path d="M29.8242 36.9172C29.8708 36.8991 29.8266 36.8273 29.7767 36.8239C29.7539 36.8224 29.7685 36.8067 29.7667 36.7839L28.7465 24.419C28.7037 23.9004 28.2703 23.5012 27.7499 23.5012H18.4607C17.9403 23.5012 17.5068 23.9004 17.4641 24.419L16.4443 36.78C16.4422 36.805 16.4571 36.8223 16.432 36.8241C16.3786 36.8278 16.3333 36.9033 16.3832 36.9227L22.7498 39.3921C22.983 39.4826 23.2415 39.4824 23.4745 39.3916L29.8242 36.9172Z" fill="#F8924F"/>
<path d="M35.2438 17.9707C34.3267 17.4106 32.9896 18.4887 32.2476 20.3859C31.5055 22.2761 31.6525 24.2643 32.5626 24.8243C33.4727 25.3844 34.8168 24.3063 35.5589 22.4091C36.2939 20.5189 36.1539 18.5307 35.2438 17.9707Z" fill="#F8924F"/>
<path d="M10.9591 17.9707C11.8691 17.4106 13.2133 18.4887 13.9553 20.3859C14.6904 22.2761 14.5504 24.2713 13.6403 24.8313C12.7302 25.3914 11.3861 24.3133 10.644 22.4161C9.90897 20.5189 10.049 18.5307 10.9591 17.9707Z" fill="#F8924F"/>
<path d="M35.5047 14.5894C35.5047 23.3612 29.9531 33.2601 23.0995 33.2601C16.2459 33.2601 10.6943 23.3612 10.6943 14.5894C10.6943 5.82453 16.2459 1.50513 23.0995 1.50513C29.9531 1.50513 35.5047 5.81753 35.5047 14.5894Z" fill="#F8924F"/>
<path opacity="0.4" d="M23.0995 2.50513C23.0995 1.95284 22.6504 1.50156 22.0992 1.53642C15.7137 1.94032 10.6943 6.25518 10.6943 14.5894C10.6943 22.9315 15.7153 32.2931 22.1023 33.1902C22.6492 33.267 23.0995 32.8124 23.0995 32.2601V2.50513Z" fill="#F8924F"/>
<path opacity="0.1" d="M23.0989 33.2601C21.0302 33.2601 19.0802 32.3524 17.3635 30.8484C17.1833 30.6905 16.8936 30.8006 16.873 31.0392C16.8656 31.1245 16.8969 31.2088 16.9588 31.2679C18.7707 32.9976 20.8639 34.0582 23.0989 34.0582C25.3341 34.0582 27.4342 33.0041 29.2399 31.2744C29.3013 31.2155 29.3328 31.1319 29.3264 31.0471C29.3081 30.8044 29.0138 30.6907 28.8306 30.8509C27.1165 32.3503 25.1697 33.2601 23.0989 33.2601Z" fill="black"/>
<path d="M13.5175 37.0794C14.0524 37.0192 14.5321 37.3999 14.6051 37.9333L16.699 53.2244C16.7812 53.825 16.3144 54.36 15.7082 54.36H1.74838C1.26829 54.36 0.857678 54.0234 0.778343 53.5499C0.34763 50.9793 -0.807549 43.0445 0.920975 40.8138C2.64148 38.6035 9.55191 37.5262 13.5175 37.0794ZM45.2771 40.8138C43.5628 38.5968 36.6512 37.5249 32.6805 37.0791C32.1456 37.0191 31.666 37.3998 31.593 37.9331L29.4992 53.2244C29.4169 53.825 29.8837 54.36 30.4899 54.36H44.2771C44.8294 54.36 45.3592 53.9221 45.449 53.3771C45.8996 50.6423 46.9679 43.0015 45.2771 40.8138Z" fill="#172A43"/>
<path d="M32.6703 54.3671C33.0511 54.3671 33.3989 54.1508 33.5673 53.8092L38.7576 43.2772C38.8941 43.0002 38.6925 42.676 38.3836 42.676C38.0451 42.676 37.8477 42.294 38.0436 42.0179L38.4365 41.4641C38.6865 41.1117 38.5965 40.6224 38.2375 40.382L33.6451 37.3067C33.5144 37.2191 33.3649 37.1636 33.2087 37.1452C33.0254 37.1236 32.8467 37.1032 32.6735 37.084C32.1397 37.025 31.6595 37.4051 31.5867 37.9372L29.4924 53.2315C29.4102 53.8321 29.877 54.3671 30.4832 54.3671H32.6703Z" fill="#DEDEDE"/>
<path d="M14.6045 37.9305C14.5318 37.3983 14.0516 37.0179 13.5176 37.077C13.3446 37.0962 13.166 37.1165 12.9828 37.1381C12.8266 37.1565 12.6771 37.212 12.5464 37.2996L7.95403 40.3749C7.595 40.6154 7.50504 41.1046 7.75505 41.457L8.14794 42.0108C8.34379 42.2869 8.1464 42.6689 7.80792 42.6689C7.49906 42.6689 7.29743 42.9931 7.43397 43.2701L12.6243 53.8021C12.7926 54.1437 13.1404 54.36 13.5213 54.36H15.7018C16.3078 54.36 16.7746 53.8252 16.6926 53.2248L14.6045 37.9305Z" fill="#DEDEDE"/>
<path d="M36.2605 11.2641C36.0785 10.0319 35.8194 8.66681 35.1894 7.30869C34.5803 5.95756 33.7052 4.59944 32.4871 3.47233C31.283 2.34522 29.7919 1.40713 28.1677 0.854081C27.3557 0.567054 26.5156 0.364032 25.6685 0.217019C25.2415 0.161013 24.8144 0.0980105 24.3874 0.0560065L23.0433 0L21.8741 0.0560065C21.4541 0.0910098 20.9921 0.161013 20.551 0.217019C19.6899 0.364032 18.8569 0.567054 18.0448 0.854081C16.4136 1.41413 14.9295 2.34522 13.7254 3.47233C12.5073 4.59944 11.6252 5.96456 11.0231 7.30869C10.4001 8.65981 10.141 10.0249 9.95203 11.2641C9.90302 11.8871 9.84701 12.4822 9.83301 13.0422C9.85401 13.6163 9.86801 14.1623 9.88901 14.6734C10.015 15.6255 10.106 16.4375 10.2461 17.1306C10.4437 17.9332 10.5995 18.5289 10.696 18.8898C10.7571 19.1181 10.9853 19.257 11.2168 19.2095C11.4323 19.1652 11.5841 18.9721 11.5744 18.7523C11.5587 18.4 11.5304 17.8149 11.4852 17.0466C11.4712 16.3815 11.5272 15.5345 11.5342 14.5824C11.5832 14.1413 11.6392 13.6723 11.7022 13.1822C11.7799 12.7549 11.8636 12.3097 11.9532 11.8575C11.9678 11.7841 11.9904 11.7128 12.0216 11.6448C13.5627 8.28098 16.598 5.15843 21.6711 7.12667C22.4972 7.4487 23.7433 7.4487 24.5694 7.12667C29.644 5.15782 32.6797 8.28291 34.2203 11.6547C34.2506 11.7208 34.2727 11.79 34.2873 11.8612C34.3769 12.2987 34.4601 12.72 34.5313 13.1472C34.5873 13.6653 34.6433 14.1623 34.6993 14.6244C34.6993 15.5275 34.7694 16.3185 34.7554 16.9906C34.7065 17.7883 34.6766 18.3873 34.6601 18.749C34.6497 18.9764 34.8122 19.1737 35.037 19.2095C35.2634 19.2456 35.4803 19.1064 35.5395 18.8849C35.6333 18.5344 35.7857 17.9546 35.9805 17.1796C36.1205 16.5006 36.2185 15.6255 36.3445 14.6244C36.3585 14.1343 36.3795 13.6163 36.4005 13.0702C36.3725 12.5172 36.3165 11.8941 36.2605 11.2641Z" fill="#303030"/>
<path d="M23.2475 25.1651C23.1529 24.9869 23.24 24.78 23.4345 24.7263C23.6375 24.6633 23.9175 24.6003 24.2396 24.5653C24.8836 24.5023 25.6537 24.6073 26.3538 24.8943C27.0538 25.1814 27.6769 25.6574 28.0829 26.1544C28.286 26.4065 28.447 26.6515 28.545 26.8405C28.5456 26.8417 28.5463 26.843 28.5469 26.8442C28.6374 27.0191 28.551 27.2232 28.363 27.2816C28.1599 27.3446 27.8729 27.4076 27.5579 27.4426C26.9138 27.5126 26.1438 27.4076 25.4437 27.1135C24.7436 26.8265 24.1206 26.3505 23.7145 25.8534C23.5115 25.6014 23.3575 25.3634 23.2525 25.1744C23.2508 25.1713 23.2492 25.1682 23.2475 25.1651Z" fill="#303030"/>
<path d="M22.7702 24.7193C22.9576 24.7839 23.0435 24.9913 22.9522 25.1673C22.8542 25.3563 22.6932 25.6014 22.4902 25.8464C22.0841 26.3434 21.4611 26.8195 20.761 27.1065C20.0609 27.4005 19.2909 27.5056 18.6468 27.4355C18.3248 27.4005 18.0447 27.3375 17.8417 27.2745C17.6537 27.2162 17.5673 27.0121 17.6578 26.8372C17.6584 26.836 17.6591 26.8347 17.6597 26.8335C17.7577 26.6445 17.9187 26.3995 18.1218 26.1474C18.5278 25.6434 19.1509 25.1743 19.8509 24.8873C20.551 24.6003 21.3211 24.4953 21.9651 24.5583C22.2871 24.5933 22.5672 24.6563 22.7702 24.7193Z" fill="#303030"/>
<path d="M31.5287 37.9803C31.59 37.4252 31.1845 36.9304 30.6277 36.8858C30.4986 36.8754 30.3732 36.8654 30.26 36.8562C30.1086 36.844 29.9565 36.866 29.815 36.9209L24.0319 39.1663C23.5197 39.3652 23.2639 39.9401 23.4591 40.4537L24.3044 42.6781C24.5166 43.2365 25.1678 43.4855 25.6984 43.2111L30.7933 40.5768C31.0906 40.4231 31.2913 40.1309 31.328 39.7983L31.5287 37.9803Z" fill="white"/>
<path d="M14.6749 37.9787C14.6147 37.4241 15.0201 36.9305 15.5761 36.8859C15.7059 36.8755 15.8319 36.8654 15.9457 36.8562C16.097 36.844 16.2491 36.866 16.3907 36.9209L22.1724 39.1658C22.6851 39.3649 22.9408 39.9407 22.7447 40.4546L21.8956 42.6793C21.6827 43.2372 21.0315 43.4853 20.5013 43.2106L15.4057 40.5705C15.1083 40.4164 14.9077 40.1236 14.8716 39.7905L14.6749 37.9787Z" fill="white"/>
<path d="M31.2653 40.33C31.4643 40.7129 31.2975 41.1842 30.902 41.3567L24.8426 43.9991L24.8087 44.0143C24.6513 44.0846 24.4678 44.0024 24.4156 43.8381L23.1064 39.5327L24.8804 43.405C24.9178 43.4866 24.8373 43.5724 24.7535 43.5403C24.6757 43.5104 24.6661 43.4043 24.7374 43.3611L30.2176 40.0366C30.586 39.8131 31.0666 39.9477 31.2653 40.33Z" fill="#BFBFBF"/>
<path d="M23.1066 39.5327L21.7904 43.8381C21.7376 44.0005 21.5576 44.0835 21.3998 44.0183L21.3704 44.0061L15.3286 41.4658C14.9308 41.2986 14.7573 40.8298 14.9503 40.4439C15.1436 40.0571 15.6242 39.915 15.9968 40.1345L21.4648 43.3549C21.5374 43.3976 21.5289 43.5051 21.4505 43.536C21.3658 43.5693 21.2837 43.4823 21.3218 43.3996L23.1066 39.5327Z" fill="#BFBFBF"/>
<path d="M14.6749 37.9787C14.6147 37.4241 15.0201 36.9305 15.5761 36.8859C15.7059 36.8755 15.8319 36.8654 15.9457 36.8562C16.097 36.844 16.2491 36.866 16.3907 36.9209L22.1724 39.1658C22.6851 39.3649 22.9408 39.9407 22.7447 40.4546L21.8956 42.6793C21.6827 43.2372 21.0315 43.4853 20.5013 43.2106L15.4057 40.5705C15.1083 40.4164 14.9077 40.1236 14.8716 39.7905L14.6749 37.9787Z" fill="white"/>
<path d="M31.506 38.5626C31.6062 37.8304 32.4386 37.4561 33.0528 37.867L36.9161 40.4515C37.3845 40.7649 37.5016 41.4032 37.175 41.8624L36.5808 42.6976C36.3493 43.023 36.5819 43.474 36.9813 43.474C37.3455 43.474 37.5832 43.8562 37.4222 44.1829L32.677 53.8092C32.5087 54.1508 32.1609 54.367 31.7801 54.367H30.489C29.8828 54.367 29.416 53.832 29.4982 53.2314L31.506 38.5626ZM14.6904 38.5625C14.5902 37.8304 13.7578 37.4561 13.1436 37.867L9.28021 40.4515C8.81182 40.7649 8.69473 41.4032 9.02141 41.8624L9.61565 42.6977C9.84713 43.023 9.61451 43.474 9.2152 43.474C8.85102 43.474 8.61335 43.8563 8.77445 44.1829L13.5193 53.8024C13.6877 54.1438 14.0354 54.36 14.4161 54.36H15.7073C16.3135 54.36 16.7803 53.825 16.6981 53.2244L14.6904 38.5625Z" fill="#203858"/>
<path d="M31.5287 37.9803C31.59 37.4252 31.1845 36.9304 30.6277 36.8858C30.4986 36.8754 30.3732 36.8654 30.26 36.8562C30.1086 36.844 29.9565 36.866 29.815 36.9209L24.0319 39.1663C23.5197 39.3652 23.2639 39.9401 23.4591 40.4537L24.3044 42.6781C24.5166 43.2365 25.1678 43.4855 25.6984 43.2111L30.7933 40.5768C31.0906 40.4231 31.2913 40.1309 31.328 39.7983L31.5287 37.9803Z" fill="white"/>
<path d="M23.1062 39.5327L23.4945 53.9648C23.5004 54.1852 23.3233 54.3671 23.1028 54.3671C22.8823 54.3671 22.7052 54.1851 22.7112 53.9646L23.1062 39.5327Z" fill="#BFBFBF"/>
</svg>
