<svg width="62" height="62" viewBox="0 0 62 62" fill="none" xmlns="http://www.w3.org/2000/svg">
<g clip-path="url(#clip0)">
<path d="M61.9008 45.1551C61.7853 44.9097 61.5774 44.7198 61.3225 44.6273L55.5511 42.5266C55.0193 42.3341 54.4325 42.609 54.24 43.1408L53.8897 44.103L47.2046 41.6689C47.0357 41.6079 46.8542 41.5919 46.6773 41.6219L32.7653 44.0785C31.5053 44.3039 30.4222 45.1041 29.8364 46.2422L23.4542 43.9135C22.4346 43.5402 21.308 43.5902 20.3258 44.053C19.0783 44.6353 18.2056 45.8039 18.0022 47.1659C17.7478 49.1371 18.9154 51.016 20.7957 51.6607L38.9306 58.2608L41.8161 59.3109C42.0345 59.3914 42.2734 59.3944 42.4938 59.3194L48.3642 57.3377L48.9885 57.5636L48.6386 58.5267C48.4461 59.0585 48.7211 59.6458 49.2529 59.8383L55.0248 61.9385C55.5566 62.1314 56.1439 61.8565 56.3363 61.3247L61.9378 45.9343C62.0287 45.6799 62.0152 45.4 61.9008 45.1551ZM48.0488 55.2894L42.1794 57.2712L21.4959 49.7389C20.5388 49.4205 19.9285 48.4824 20.026 47.4777C20.1149 46.8675 20.4733 46.3297 21.0021 46.0123C21.5314 45.6949 22.1747 45.6314 22.755 45.8403L29.3966 48.258C29.3996 48.4464 29.4151 48.6343 29.4425 48.8208C29.8394 51.044 31.9581 52.5279 34.1828 52.1416L45.7066 50.1098L45.3508 48.094L33.832 50.1263C32.7214 50.3192 31.6632 49.5815 31.4598 48.4729C31.4173 48.2395 31.4193 48.0006 31.4653 47.7676C31.4728 47.7337 31.4788 47.6997 31.4823 47.6652C31.4973 47.5782 31.5208 47.4927 31.5533 47.4103C31.8052 46.7235 32.4025 46.2217 33.1222 46.0918L46.7613 43.6876L53.1894 46.0273L49.6887 55.6498L48.7265 55.3004C48.5091 55.2179 48.2697 55.2124 48.0488 55.2849V55.2894ZM54.7579 59.6673L50.9098 58.2668L55.811 44.8002L59.6591 46.2002L54.7579 59.6673Z" fill="#F36F56"/>
<path d="M20.7733 26.3145L22.7181 24.8875V37.8743C22.7181 39.0049 23.6347 39.9215 24.7653 39.9215H43.1906C44.3217 39.9215 45.2379 39.0049 45.2379 37.8743V24.8885L47.1832 26.3155C47.668 26.6724 48.2548 26.8643 48.8566 26.8643C49.8207 26.8648 50.7209 26.384 51.2572 25.5827C52.1059 24.2967 51.778 22.5688 50.517 21.6837L42.7548 16.2031C43.0117 15.9712 43.2366 15.7063 43.4241 15.4159C44.3977 13.806 44.1313 11.7373 42.7813 10.4267L34.4543 2.09926C33.1133 0.751252 31.289 -0.00497357 29.3872 2.46195e-05H18.6236C18.4851 -0.000475199 18.3477 0.0280145 18.2207 0.0829946L11.2537 3.07091H10.4345V1.02365C10.4345 0.458358 9.9767 2.46195e-05 9.4109 2.46195e-05H1.22187C0.656576 2.46195e-05 0.198242 0.458358 0.198242 1.02365V17.4017C0.198242 17.967 0.656576 18.4253 1.22187 18.4253H9.4109C9.9767 18.4253 10.4345 17.967 10.4345 17.4017V15.3545H10.584C11.3172 17.8111 14.609 19.449 17.5999 19.449C20.5913 19.449 23.8832 17.8111 24.6159 15.3545H26.4032L17.4375 21.6847C16.1729 22.5803 15.8526 24.3207 16.7148 25.6082C17.6494 26.9098 19.4538 27.2237 20.7733 26.3145ZM8.38727 16.3781H2.2455V2.04728H8.38727V16.3781ZM28.8598 37.8743V31.7325H32.9544V37.8743H28.8598ZM43.1906 37.8743H35.0016V30.7089C35.0016 30.1436 34.5438 29.6853 33.978 29.6853H27.8362C27.2709 29.6853 26.8126 30.1436 26.8126 30.7089V37.8743H24.7653V23.386L33.978 16.624L43.1906 23.386V37.8743ZM23.7417 13.3072C23.1764 13.3072 22.7181 13.7655 22.7181 14.3308C22.7181 15.8808 20.183 17.4017 17.5999 17.4017C15.0174 17.4017 12.4818 15.8808 12.4818 14.3308C12.4818 13.7655 12.024 13.3072 11.4582 13.3072H10.4345V5.11817H11.4582C11.5971 5.11867 11.7346 5.09018 11.8615 5.0352L18.8285 2.04728H29.3822C30.7422 2.04228 32.0472 2.58259 33.0058 3.54674L41.3338 11.8742C42.0066 12.503 42.1575 13.5121 41.6997 14.3103C41.3783 14.7682 40.876 15.0656 40.3202 15.127C39.7649 15.188 39.2096 15.0076 38.7962 14.6307L34.9536 10.7881C34.7197 8.72886 32.9799 7.17142 30.9071 7.16543H21.6944V9.21268H30.9071C32.0382 9.21268 32.9544 10.1294 32.9544 11.2599C32.9544 12.3905 32.0382 13.3072 30.9071 13.3072H23.7417ZM18.4191 24.4647C18.1787 24.0988 18.2692 23.6085 18.6236 23.3521L29.9524 15.3545H30.9071C32.4071 15.3695 33.7886 14.5428 34.4838 13.2142L37.3503 16.0802C38.206 16.9289 39.404 17.3377 40.6001 17.1898L49.3324 23.3521C49.6043 23.5365 49.7358 23.8684 49.6638 24.1893C49.5913 24.5096 49.3309 24.753 49.006 24.8035C48.7906 24.843 48.5687 24.7925 48.3918 24.6636L34.5833 14.5293C34.2224 14.2644 33.7316 14.2644 33.3712 14.5293L19.5727 24.6571C19.4338 24.758 19.2663 24.8125 19.0949 24.813C18.8265 24.8125 18.5751 24.6831 18.4191 24.4647Z" fill="#F36F56"/>
<path d="M36.0251 30.7089V34.8034C36.0251 35.3687 36.4835 35.8271 37.0488 35.8271H41.1433C41.7091 35.8271 42.1669 35.3687 42.1669 34.8034V30.7089C42.1669 30.1436 41.7091 29.6853 41.1433 29.6853H37.0488C36.4835 29.6853 36.0251 30.1436 36.0251 30.7089ZM38.0724 31.7326H40.1197V33.7798H38.0724V31.7326Z" fill="#F36F56"/>
<path d="M30.907 22.5199C30.907 24.2157 32.282 25.5907 33.9779 25.5907C35.6742 25.5907 37.0487 24.2157 37.0487 22.5199C37.0487 20.824 35.6742 19.449 33.9779 19.449C32.282 19.449 30.907 20.824 30.907 22.5199ZM35.0015 22.5199C35.0015 23.0852 34.5437 23.5435 33.9779 23.5435C33.4126 23.5435 32.9542 23.0852 32.9542 22.5199C32.9542 21.9546 33.4126 21.4962 33.9779 21.4962C34.5437 21.4962 35.0015 21.9546 35.0015 22.5199Z" fill="#F36F56"/>
</g>
<defs>
<clipPath id="clip0">
<rect width="62" height="62" fill="white"/>
</clipPath>
</defs>
</svg>
