<svg width="62" height="62" viewBox="0 0 62 62" fill="none" xmlns="http://www.w3.org/2000/svg">
<g clip-path="url(#clip0)">
<path d="M57.5463 0H49.2796C48.7089 0 48.2463 0.462679 48.2463 1.03333V3.1H47.2286L40.1865 0.0837566C40.0588 0.0287597 39.9221 0 39.7833 0H28.9126C26.9953 0.00252278 25.1567 0.764909 23.8005 2.12015L15.3865 10.5225C14.0211 11.8505 13.7562 13.946 14.7477 15.5722C14.9081 15.8098 15.0923 16.0293 15.2982 16.2286C14.5449 17.5863 14.1488 19.1136 14.1463 20.6667C14.1367 24.6567 16.6736 28.2083 20.4512 29.4934C24.2288 30.778 28.4051 29.5105 30.8305 26.3419C33.2564 23.1738 33.3906 18.8114 31.164 15.5H33.7302C34.4698 17.9799 37.7928 19.6333 40.8126 19.6333C43.8319 19.6333 47.1539 17.9799 47.8941 15.5H48.2463V17.5667C48.2463 18.1373 48.7089 18.6 49.2796 18.6H57.5463C58.1169 18.6 58.5796 18.1373 58.5796 17.5667V1.03333C58.5796 0.462679 58.1169 0 57.5463 0ZM30.6796 20.6667C30.6796 24.6618 27.4414 27.9 23.4463 27.9C19.4512 27.9 16.2129 24.6618 16.2129 20.6667C16.2084 19.1979 16.6574 17.7639 17.4985 16.5601C18.8053 14.6579 20.9432 13.4959 23.25 13.4333H23.4463C23.5754 13.4333 23.7016 13.45 23.8307 13.456C24.5548 14.7305 25.913 15.5131 27.3793 15.5H28.4928C29.889 16.8568 30.6771 18.7201 30.6796 20.6667ZM47.0126 13.4333C46.442 13.4333 45.9793 13.896 45.9793 14.4667C45.9793 16.0313 43.4197 17.5667 40.8126 17.5667C38.2056 17.5667 35.646 16.0313 35.646 14.4667C35.646 13.896 35.1833 13.4333 34.6126 13.4333H27.3793C26.2375 13.4333 25.3126 12.508 25.3126 11.3667C25.3126 10.2254 26.2375 9.3 27.3793 9.3H38.746V7.23333H27.3793C25.0962 7.23333 23.246 9.08405 23.246 11.3667H23.2263C20.653 11.4292 18.2206 12.5559 16.5096 14.4793C16.501 14.4677 16.4909 14.4586 16.4824 14.446C16.0283 13.6382 16.1791 12.625 16.8497 11.9847L25.2647 3.57933C26.2324 2.61209 27.5443 2.06818 28.9126 2.06667H39.5664L46.6054 5.08291C46.7351 5.13892 46.8754 5.16768 47.0167 5.16667H48.2463V13.4333H47.0126ZM56.5129 16.5333H50.3129V2.06667H56.5129V16.5333Z" fill="#F36F56"/>
<path d="M38.075 42.5529L32.7463 38.7914V33.0667C32.7463 32.496 32.2837 32.0334 31.713 32.0334H27.5797C27.009 32.0334 26.5463 32.496 26.5463 33.0667V34.4098L21.975 31.1842C21.6178 30.9324 21.1415 30.9324 20.7843 31.1842L4.68387 42.5509C3.39372 43.4803 3.10108 45.2795 4.03047 46.5697C4.95986 47.8603 6.75912 48.153 8.04977 47.2236L10.013 45.7841V59.9334C10.013 61.0747 10.9384 62 12.0797 62H30.6797C31.821 62 32.7463 61.0747 32.7463 59.9334V45.7841L34.7096 47.2236C35.5436 47.8376 36.6435 47.9567 37.5901 47.5344C38.5361 47.1121 39.1825 46.2144 39.2824 45.1831C39.3823 44.1518 38.9206 43.1467 38.0729 42.5509L38.075 42.5529ZM28.613 34.1H30.6797V37.3322L28.613 35.8741V34.1ZM16.213 59.9334V53.7334H20.3463V59.9334H16.213ZM30.6797 59.9334H22.413V52.7C22.413 52.1294 21.9503 51.6667 21.3797 51.6667H15.1797C14.609 51.6667 14.1463 52.1294 14.1463 52.7V59.9334H12.0797V44.2679L21.3797 37.4483L30.6797 44.2679V59.9334ZM37.0865 45.3552C36.9634 45.5394 36.7702 45.6655 36.5522 45.7033C36.3342 45.7432 36.1097 45.6907 35.9321 45.5585L21.9882 35.3286C21.6244 35.0612 21.1289 35.0612 20.7646 35.3286L6.82118 45.5585C6.58706 45.7558 6.26263 45.8047 5.98109 45.6857C5.70005 45.5666 5.50882 45.2992 5.48763 44.9944C5.46594 44.6897 5.61781 44.3985 5.87967 44.2411L21.3797 33.2983L36.8797 44.2401C37.2404 44.4934 37.3323 44.9894 37.0865 45.3552Z" fill="#F36F56"/>
<path d="M23.4463 52.7V56.8333C23.4463 57.4039 23.909 57.8666 24.4796 57.8666H28.613C29.1836 57.8666 29.6463 57.4039 29.6463 56.8333V52.7C29.6463 52.1293 29.1836 51.6666 28.613 51.6666H24.4796C23.909 51.6666 23.4463 52.1293 23.4463 52.7ZM25.513 53.7333H27.5796V55.8H25.513V53.7333Z" fill="#F36F56"/>
<path d="M17.2463 45.4667C17.2463 47.7493 19.0971 49.6 21.3797 49.6C23.6623 49.6 25.513 47.7493 25.513 45.4667C25.513 43.1841 23.6623 41.3334 21.3797 41.3334C19.0971 41.3334 17.2463 43.1841 17.2463 45.4667ZM23.4463 45.4667C23.4463 46.608 22.521 47.5334 21.3797 47.5334C20.2384 47.5334 19.313 46.608 19.313 45.4667C19.313 44.3254 20.2384 43.4 21.3797 43.4C22.521 43.4 23.4463 44.3254 23.4463 45.4667Z" fill="#F36F56"/>
<path d="M22.413 17.5667H24.4797C25.0503 17.5667 25.513 18.0294 25.513 18.6H27.5797C27.5797 16.888 26.1916 15.5 24.4797 15.5V14.4667H22.413V15.5C20.701 15.5 19.313 16.888 19.313 18.6C19.313 20.312 20.701 21.7 22.413 21.7H24.4797C25.0503 21.7 25.513 22.1627 25.513 22.7333C25.513 23.304 25.0503 23.7667 24.4797 23.7667H22.413C21.8423 23.7667 21.3797 23.304 21.3797 22.7333H19.313C19.313 24.4453 20.701 25.8333 22.413 25.8333V26.8667H24.4797V25.8333C26.1916 25.8333 27.5797 24.4453 27.5797 22.7333C27.5797 21.0214 26.1916 19.6333 24.4797 19.6333H22.413C21.8423 19.6333 21.3797 19.1707 21.3797 18.6C21.3797 18.0294 21.8423 17.5667 22.413 17.5667Z" fill="#F36F56"/>
<path d="M54.4463 43.4H44.1129C42.9716 43.4 42.0463 44.3254 42.0463 45.4667V47.5334C42.0493 47.6247 42.0584 47.716 42.074 47.8063C41.4216 48.1676 41.0155 48.8538 41.0129 49.6V51.6667C41.0155 52.4129 41.4216 53.0991 42.074 53.4604C42.0584 53.5507 42.0493 53.642 42.0463 53.7334V55.8C42.0493 55.8914 42.0584 55.9827 42.074 56.073C41.4216 56.4343 41.0155 57.1205 41.0129 57.8667V59.9334C41.0129 61.0747 41.9383 62 43.0796 62H53.4129C54.5542 62 55.4796 61.0747 55.4796 59.9334V57.8667C55.4766 57.7754 55.4675 57.684 55.4519 57.5937C56.1042 57.2325 56.5104 56.5463 56.5129 55.8V53.7334C56.5104 52.9871 56.1042 52.3009 55.4519 51.9397C55.4675 51.8493 55.4766 51.758 55.4796 51.6667V49.6C55.4766 49.5087 55.4675 49.4174 55.4519 49.3271C56.1042 48.9658 56.5104 48.2796 56.5129 47.5334V45.4667C56.5129 44.3254 55.5876 43.4 54.4463 43.4ZM44.1129 45.4667H54.4463V47.5334H44.1129V45.4667ZM53.4129 51.6667H43.0796V49.6H53.4129V51.6667ZM54.4463 53.7334V55.8H44.1129V53.7334H54.4463ZM53.4129 59.9334H43.0796V57.8667H53.4129V59.9334Z" fill="#F36F56"/>
</g>
<defs>
<clipPath id="clip0">
<rect width="62" height="62" fill="white"/>
</clipPath>
</defs>
</svg>
