<svg width="62" height="62" viewBox="0 0 62 62" fill="none" xmlns="http://www.w3.org/2000/svg">
<g clip-path="url(#clip0)">
<path d="M21.7121 45.4875H15.514C14.9435 45.4875 14.481 45.9501 14.481 46.5206V52.7187C14.481 53.2897 14.9435 53.7517 15.514 53.7517H21.7121C22.2826 53.7517 22.7451 53.2897 22.7451 52.7187V46.5206C22.7451 45.9501 22.2826 45.4875 21.7121 45.4875ZM20.6791 51.6857H16.547V47.5536H20.6791V51.6857Z" fill="#FF7557"/>
<path d="M36.1743 34.1243H25.8441C24.7032 34.1243 23.7781 35.0493 23.7781 36.1903V40.3224C23.7781 41.4639 24.7032 42.3884 25.8441 42.3884H36.1743C37.3153 42.3884 38.2404 41.4639 38.2404 40.3224V36.1903C38.2404 35.0493 37.3153 34.1243 36.1743 34.1243ZM36.1743 37.2233H32.0422V36.1903H36.1743V37.2233ZM29.9762 36.1903V37.2233H25.8441V36.1903H29.9762ZM25.8441 39.2894H29.9762V40.3224H25.8441V39.2894ZM32.0422 40.3224V39.2894H36.1743V40.3224H32.0422Z" fill="#FF7557"/>
<path d="M56.7451 54.8563C56.4878 53.4974 55.6969 52.2989 54.5489 51.5282C53.4009 50.7575 51.9915 50.4795 50.6367 50.7559V32.4859L52.4889 34.3381C53.7484 35.5976 55.7897 35.5976 57.0487 34.3381C58.3077 33.0791 58.3077 31.0378 57.0487 29.7783L50.6367 23.3668V10.3647C51.7777 10.3647 52.7028 9.44016 52.7028 8.29869V6.23265C52.7028 5.09169 51.7777 4.16661 50.6367 4.16661H40.3065C39.1655 4.16661 38.2405 5.09169 38.2405 6.23265V8.29869C38.2405 9.44016 39.1655 10.3647 40.3065 10.3647V13.0366L33.1964 5.92295C31.9869 4.71843 30.0318 4.71843 28.8227 5.92295L27.1698 7.57588C24.2231 2.15303 18.1596 -0.80228 12.073 0.217627C5.9858 1.23703 1.21665 6.00718 0.198256 12.0943C-0.820137 18.1815 2.13618 24.2439 7.56004 27.1897L4.96993 29.7783C3.71093 31.0378 3.71093 33.0791 4.96993 34.3381C6.22942 35.5976 8.27075 35.5976 9.52974 34.3381L11.3819 32.4859V54.1466C10.2571 52.8412 8.43771 52.3751 6.82412 52.9789C5.21002 53.5826 4.14321 55.1276 4.15077 56.8507C1.86884 56.8507 0.0186879 58.7008 0.0186879 60.9827C0.0186879 61.5537 0.481227 62.0158 1.05171 62.0158H60.9669C61.5374 62.0158 61.9999 61.5537 61.9999 60.9827C61.9959 57.925 59.7664 55.3259 56.7451 54.8563ZM47.5296 52.761C47.5296 52.7468 47.5377 52.7342 47.5377 52.7186V46.5205C47.5377 45.95 47.0751 45.4874 46.5046 45.4874H40.3065C39.736 45.4874 39.2735 45.95 39.2735 46.5205V52.7186C39.2735 53.2896 39.736 53.7516 40.3065 53.7516H46.5046C46.6928 53.7471 46.8759 53.6896 47.0327 53.5857C46.6892 54.2797 46.5087 55.0434 46.5046 55.8176V55.9211C44.4805 56.3402 42.9002 57.9245 42.486 59.9497H38.2405V44.4544C38.2405 43.8839 37.7779 43.4214 37.2074 43.4214H24.8112C24.2407 43.4214 23.7782 43.8839 23.7782 44.4544V59.9497H17.4882C17.1099 57.7354 15.5649 55.8978 13.448 55.1443V31.0252H48.5707V51.7128C48.1752 52.0104 47.8247 52.3635 47.5296 52.761ZM45.4716 47.5535V51.6856H41.3395V47.5535H45.4716ZM40.3065 6.23265H50.6367V8.29869H40.3065V6.23265ZM42.3725 10.3647H48.5707V21.3007L42.3725 15.1026V10.3647ZM30.2865 7.38673C30.6885 6.98875 31.3362 6.98875 31.7387 7.38673L55.591 31.239C56.0429 31.692 56.0429 32.4249 55.591 32.8773C55.138 33.3278 54.4061 33.3278 53.9527 32.8773L33.1964 12.1211C31.9869 10.9166 30.0318 10.9166 28.8227 12.1211L28.744 12.1998C28.6013 11.3125 28.3763 10.4404 28.0717 9.59552L30.2865 7.38673ZM2.08473 14.4968C2.08473 7.65053 7.6347 2.10057 14.481 2.10057C21.3273 2.10057 26.8772 7.65053 26.8772 14.4968C26.8772 21.3431 21.3273 26.8931 14.481 26.8931C7.63772 26.886 2.0923 21.3401 2.08473 14.4968ZM8.06899 32.8773C7.61654 33.3293 6.88364 33.3293 6.43068 32.8773C5.98025 32.4244 5.98025 31.6925 6.43068 31.239L9.58271 28.0875C10.4276 28.3922 11.2997 28.6176 12.1869 28.7599L11.6856 29.2607L8.06899 32.8773ZM14.9314 28.9364C22.5535 28.6913 28.6749 22.5693 28.9206 14.9473L30.2865 13.5849C30.6885 13.1869 31.3362 13.1869 31.7387 13.5849L47.1099 28.9591H14.9087L14.9314 28.9364ZM2.36266 59.9497C2.9059 59.0161 4.07864 58.6615 5.04861 59.1371C5.44507 59.3328 5.92275 59.2542 6.23548 58.9414C6.54871 58.6292 6.6279 58.152 6.4327 57.7546C6.29197 57.4741 6.21833 57.1649 6.21681 56.8507C6.21379 55.8434 6.94063 54.9818 7.93381 54.8144C8.92749 54.6474 9.89594 55.2235 10.2228 56.1763C10.364 56.6121 10.7822 56.8971 11.2397 56.8683C11.2876 56.8693 11.3355 56.8633 11.3819 56.8507C13.2654 56.8532 14.9097 58.1268 15.3829 59.9497H2.36266ZM25.8442 59.9497V45.4874H36.1744V59.9497H25.8442ZM44.6151 59.9497C45.0393 58.7291 46.1813 57.9034 47.4736 57.8837C47.5089 57.8837 47.6133 57.8993 47.6481 57.9003C47.976 57.9134 48.2897 57.7702 48.495 57.5145C48.6998 57.2587 48.7714 56.9208 48.6877 56.604C48.6146 56.3483 48.5752 56.084 48.5707 55.8176C48.5707 54.1062 49.9583 52.7186 51.6697 52.7186C53.3812 52.7186 54.7688 54.1062 54.7688 55.8176C54.7688 56.3886 55.2313 56.8507 55.8018 56.8507C57.6853 56.8532 59.3296 58.1268 59.8028 59.9497H44.6151Z" fill="#FF7557"/>
<path d="M15.514 23.7941V21.728C17.2254 21.728 18.613 20.3409 18.613 18.629V16.5629C18.613 14.8515 17.2254 13.4639 15.514 13.4639H13.4479C12.8775 13.4639 12.4149 13.0018 12.4149 12.4309V10.3648C12.4149 9.79433 12.8775 9.33179 13.4479 9.33179H15.514C16.0845 9.33179 16.547 9.79433 16.547 10.3648V11.3978H18.613V10.3648C18.613 8.65337 17.2254 7.26575 15.514 7.26575V5.19971H13.4479V7.26575C11.7365 7.26575 10.3489 8.65337 10.3489 10.3648V12.4309C10.3489 14.1428 11.7365 15.5299 13.4479 15.5299H15.514C16.0845 15.5299 16.547 15.9925 16.547 16.5629V18.629C16.547 19.2 16.0845 19.662 15.514 19.662H13.4479C12.8775 19.662 12.4149 19.2 12.4149 18.629V17.596H10.3489V18.629C10.3489 20.3409 11.7365 21.728 13.4479 21.728V23.7941H15.514Z" fill="#FF7557"/>
<path d="M28.9432 48.5865H26.8772V50.6526H27.9102V52.7186H26.8772V54.7847H28.9432C29.5137 54.7847 29.9763 54.3226 29.9763 53.7516V49.6196C29.9763 49.0491 29.5137 48.5865 28.9432 48.5865Z" fill="#FF7557"/>
</g>
<defs>
<clipPath id="clip0">
<rect width="62" height="62" fill="white"/>
</clipPath>
</defs>
</svg>
