<svg width="205" height="167" viewBox="0 0 205 167" fill="none" xmlns="http://www.w3.org/2000/svg">
<ellipse rx="7.22596" ry="7.49359" transform="matrix(1 0 0 -1 7.22596 7.49359)" fill="#FF7557" fill-opacity="0.24"/>
<ellipse rx="7.22596" ry="7.49359" transform="matrix(1 0 0 -1 7.22596 83.5)" fill="#FF7557" fill-opacity="0.24"/>
<ellipse rx="7.22596" ry="7.49359" transform="matrix(1 0 0 -1 7.22596 159.506)" fill="#FF7557" fill-opacity="0.24"/>
<ellipse rx="7.22596" ry="7.49359" transform="matrix(1 0 0 -1 7.22596 45.4968)" fill="#FF7557" fill-opacity="0.24"/>
<ellipse rx="7.22596" ry="7.49359" transform="matrix(1 0 0 -1 7.22596 121.503)" fill="#FF7557" fill-opacity="0.24"/>
<ellipse rx="7.22596" ry="7.49359" transform="matrix(1 0 0 -1 45.2294 7.49359)" fill="#FF7557" fill-opacity="0.24"/>
<ellipse rx="7.22596" ry="7.49359" transform="matrix(1 0 0 -1 45.2294 83.5)" fill="#FF7557" fill-opacity="0.24"/>
<ellipse rx="7.22596" ry="7.49359" transform="matrix(1 0 0 -1 45.2294 159.506)" fill="#FF7557" fill-opacity="0.24"/>
<ellipse rx="7.22596" ry="7.49359" transform="matrix(1 0 0 -1 45.2294 45.4968)" fill="#FF7557" fill-opacity="0.24"/>
<ellipse rx="7.22596" ry="7.49359" transform="matrix(1 0 0 -1 45.2294 121.503)" fill="#FF7557" fill-opacity="0.24"/>
<ellipse rx="7.22596" ry="7.49359" transform="matrix(1 0 0 -1 83.2323 7.49359)" fill="#FF7557" fill-opacity="0.24"/>
<ellipse rx="7.22596" ry="7.49359" transform="matrix(1 0 0 -1 83.2323 83.5)" fill="#FF7557" fill-opacity="0.24"/>
<ellipse rx="7.22596" ry="7.49359" transform="matrix(1 0 0 -1 83.2323 159.506)" fill="#FF7557" fill-opacity="0.24"/>
<ellipse rx="7.22596" ry="7.49359" transform="matrix(1 0 0 -1 83.2323 45.4968)" fill="#FF7557" fill-opacity="0.24"/>
<ellipse rx="7.22596" ry="7.49359" transform="matrix(1 0 0 -1 83.2323 121.503)" fill="#FF7557" fill-opacity="0.24"/>
<ellipse rx="7.22596" ry="7.49359" transform="matrix(1 0 0 -1 121.236 7.49359)" fill="#FF7557" fill-opacity="0.24"/>
<ellipse rx="7.22596" ry="7.49359" transform="matrix(1 0 0 -1 121.236 83.5)" fill="#FF7557" fill-opacity="0.24"/>
<ellipse rx="7.22596" ry="7.49359" transform="matrix(1 0 0 -1 121.236 159.506)" fill="#FF7557" fill-opacity="0.24"/>
<ellipse rx="7.22596" ry="7.49359" transform="matrix(1 0 0 -1 121.236 45.4968)" fill="#FF7557" fill-opacity="0.24"/>
<ellipse rx="7.22596" ry="7.49359" transform="matrix(1 0 0 -1 121.236 121.503)" fill="#FF7557" fill-opacity="0.24"/>
<ellipse rx="7.22596" ry="7.49359" transform="matrix(1 0 0 -1 159.239 7.49359)" fill="#FF7557" fill-opacity="0.24"/>
<ellipse rx="7.22596" ry="7.49359" transform="matrix(1 0 0 -1 159.239 83.5)" fill="#FF7557" fill-opacity="0.24"/>
<ellipse rx="7.22596" ry="7.49359" transform="matrix(1 0 0 -1 159.239 159.506)" fill="#FF7557" fill-opacity="0.24"/>
<ellipse rx="7.22596" ry="7.49359" transform="matrix(1 0 0 -1 159.239 45.4968)" fill="#FF7557" fill-opacity="0.24"/>
<ellipse rx="7.22596" ry="7.49359" transform="matrix(1 0 0 -1 159.239 121.503)" fill="#FF7557" fill-opacity="0.24"/>
<ellipse rx="7.22596" ry="7.49359" transform="matrix(1 0 0 -1 197.242 7.49359)" fill="#FF7557" fill-opacity="0.24"/>
<ellipse rx="7.22596" ry="7.49359" transform="matrix(1 0 0 -1 197.242 83.5)" fill="#FF7557" fill-opacity="0.24"/>
<ellipse rx="7.22596" ry="7.49359" transform="matrix(1 0 0 -1 197.242 159.506)" fill="#FF7557" fill-opacity="0.24"/>
<ellipse rx="7.22596" ry="7.49359" transform="matrix(1 0 0 -1 197.242 45.4968)" fill="#FF7557" fill-opacity="0.24"/>
<ellipse rx="7.22596" ry="7.49359" transform="matrix(1 0 0 -1 197.242 121.503)" fill="#FF7557" fill-opacity="0.24"/>
</svg>
