<svg width="15" height="15" viewBox="0 0 15 15" fill="none" xmlns="http://www.w3.org/2000/svg">
<path d="M7.41124 0.913672C7.44857 0.841764 7.55143 0.841764 7.58876 0.913672L9.79292 5.16021C9.80787 5.189 9.83585 5.20876 9.86799 5.2132L14.7909 5.89352C14.8745 5.90507 14.9071 6.00855 14.8452 6.06591L11.2902 9.36169C11.2651 9.38488 11.2537 9.41922 11.2597 9.45279L12.1005 14.1092C12.1151 14.1902 12.031 14.2532 11.9574 14.2164L7.54468 12.0111C7.51655 11.997 7.48344 11.997 7.45531 12.0111L3.04257 14.2142C2.96892 14.251 2.88487 14.188 2.89949 14.107L3.74027 9.45047C3.74633 9.41689 3.73485 9.38254 3.70982 9.35935L0.154904 6.06592C0.0930009 6.00857 0.125584 5.90506 0.209176 5.89351L5.13201 5.2132C5.16414 5.20876 5.19213 5.189 5.20707 5.16021L7.41124 0.913672Z" fill="#F36F56"/>
</svg>
