<svg width="165" height="150" viewBox="0 0 165 150" fill="none" xmlns="http://www.w3.org/2000/svg">
<path d="M36.1022 118.233C50.2211 133.824 73.8013 125.416 83.8265 119.263C155.032 108.031 157.25 74.6284 149.8 58.8576C142.351 43.0868 113.597 39.2281 99.3916 29.3448C85.1863 19.4614 52.4603 29.0803 41.3686 45.4896C30.2768 61.8989 17.1767 61.662 13.1911 74.3603C9.20549 87.0587 18.4537 98.7443 36.1022 118.233Z" fill="white"/>
<path d="M101.81 88.2413C101.81 88.2413 47.5415 88.1062 26.9136 93.4365C24.3937 94.0877 19.9455 95.4784 13.0106 96.6207C4.12679 98.084 0.15939 97.6574 0.00462429 98.7993C-0.258277 100.739 10.73 105.382 22.4288 106.844C29.0895 107.676 35.256 107.386 35.2853 108.017C35.3238 108.847 24.6694 109.734 24.6712 111.201C24.6729 112.668 35.3327 112.824 35.5842 115.223C35.9032 118.265 19.0296 120.615 18.9904 124.775C18.9531 128.728 34.1085 133.947 48.7397 132.987C54.7538 132.593 65.6897 135.599 76.4407 127.846C81.5127 124.188 83.637 117.466 88.8042 116.228C95.8575 114.539 100.776 118.081 106.893 120.418C125.564 127.552 144.542 126.794 148.452 113.715C149.132 109.623 141.82 107.003 142.473 102.319C143.537 94.6817 164.077 93.7317 164 91.593C163.89 88.5573 122.422 88.2926 101.81 88.2413Z" fill="#EBEFF2"/>
<path d="M23.8592 98.9083C20.6996 98.9755 13.1347 99.0934 13.0018 100.301C12.8652 101.541 20.5733 103.925 28.2637 104.676C41.6101 105.98 53.0389 102.185 53.4612 103.582C53.7164 104.427 49.4897 105.636 49.5689 107.56C49.6683 109.974 56.4598 111.527 58.6851 112.035C68.8527 114.36 76.8366 112.911 86.0336 111.14C91.2992 110.127 94.7118 109.094 94.8425 107.56C94.9829 105.913 91.2217 105.06 91.3599 103.881C91.6662 101.269 110.753 100.082 126.391 100.102C129.58 100.106 138.005 100.167 147.389 96.2232C150.507 94.9128 152.066 94.2576 151.998 93.6376C151.467 88.7963 65.4206 98.0254 23.8592 98.9083Z" fill="#D8DEE8"/>
<path d="M85.6729 118.241C83.8661 118.219 79.6839 118.949 71.3194 120.409C60.9194 122.225 59.0205 122.892 59.0002 123.661C58.9757 124.585 61.679 125.13 68.5251 127.423C75.2121 129.663 76.5247 130.446 78.7787 131.128C89.9925 134.517 104.887 129.443 104.999 125.588C105.094 122.315 94.5772 118.351 85.6729 118.241Z" fill="#D8DEE8"/>
<path d="M68.3477 109.463C66.3976 109.945 64.979 110.383 65.0002 110.852C65.036 111.642 69.1566 112.361 72.9222 112.224C77.5357 112.056 77.5997 110.749 83.1785 109.802C88.5254 108.895 90.5079 109.749 95.9576 108.163C96.8662 107.899 100.094 106.959 99.9979 106.453C99.8743 105.803 94.4572 106.811 83.3164 107.297C82.0724 107.351 75.8216 107.614 68.3477 109.463Z" fill="#D8DEE8"/>
<path d="M19.9015 98.4176C13.8345 101.734 7.22102 96.6461 6.14134 95.8155C4.68798 94.6975 2.64317 93.1244 2.52793 90.8683C2.38125 87.997 5.49138 86.5884 4.90338 84.2208C4.46268 82.4463 2.56867 82.6461 1.23219 80.5043C-0.267718 78.1006 -0.262045 74.0351 1.86845 72.1771C4.74801 69.6659 10.7974 71.8081 12.4085 74.9971C13.3902 76.9404 12.4479 78.7264 13.705 79.6327C15.0556 80.6064 16.7155 78.9572 19.2768 79.4167C22.1813 79.9378 23.9009 82.7503 24.1844 83.2139C26.8708 87.6077 25.3429 95.4433 19.9015 98.4176Z" fill="url(#paint0_linear)"/>
<path opacity="0.5" d="M3.10775 72.365C2.09902 72.47 1.24326 74.5506 1.37957 76.1941C1.55709 78.3341 3.44766 80.106 5.36188 81.9001C6.62799 83.0868 6.94827 83.1183 7.09005 83.702C7.57289 85.6899 4.26512 86.9963 4.08452 89.7085C3.96711 91.4721 5.23627 92.8643 6.26354 93.988C10.173 98.2647 17.1367 99.1244 17.8348 97.7421C18.1285 97.1604 17.0541 96.6946 15.8812 94.5136C13.7326 90.5185 15.2353 88.1734 13.3265 84.8282C12.3056 83.0392 11.8365 83.641 9.41933 80.9992C5.09695 76.2751 4.61178 72.2084 3.10775 72.365Z" fill="#F4F7FA"/>
<path d="M22.1605 99.7377C18.4017 100.713 15.3318 97.706 13.0551 95.4763C11.7215 94.1701 10.2577 92.7365 10.4257 90.9941C10.5987 89.1995 12.3516 88.6472 12.3093 86.7437C12.276 85.2465 11.18 85.0681 11.0562 83.4545C10.9114 81.5689 12.3538 81.1035 12.643 79.2362C13.0715 76.4695 10.2158 75.4834 10.2286 72.7848C10.2409 70.1557 12.9719 66.7861 16.5066 66.6969C20.2931 66.6013 23.0564 70.3192 23.1714 73.0238C23.2552 74.9934 21.9063 75.7601 22.4051 77.6327C22.9357 79.6248 24.6522 79.4698 25.4151 81.5091C26.2558 83.7564 24.4787 84.7668 25.0246 87.5508C25.5428 90.1935 27.342 90.292 27.6437 92.4211C28.0385 95.2065 25.5024 98.8708 22.1605 99.7377Z" fill="url(#paint1_linear)"/>
<path opacity="0.5" d="M16.2433 68.1587C17.5041 68.4885 17.9053 71.9364 17.6441 74.3538C17.3256 77.3021 16.1196 77.8113 16.4698 79.7599C16.8905 82.1014 18.7682 82.1266 19.5475 84.6484C20.2542 86.935 18.9597 87.7214 18.9149 90.904C18.8485 95.6245 21.6401 97.8912 20.7858 98.7109C19.619 99.8303 13.1601 96.8037 12.7928 93.0504C12.6165 91.2486 13.9546 90.4083 13.6091 87.8325C13.3459 85.8705 12.4846 85.7254 12.4572 84.0271C12.4202 81.7326 13.9814 81.3328 14.0675 79.1795C14.1624 76.8033 12.2984 76.3639 12.1699 74.0173C12.0046 70.9993 14.873 67.8002 16.2433 68.1587Z" fill="#F4F7FA"/>
<path d="M20.7601 98.0059C20.1769 97.768 15.8954 95.9389 14.7066 91.4201C14.5755 90.9222 13.4906 86.7984 15.6883 84.4915C17.9426 82.1252 21.9615 83.4433 22.8504 81.2965C23.168 80.5296 22.6632 80.3417 22.7707 78.4212C22.8594 76.8352 22.9512 75.1943 24.1413 74.1304C25.3448 73.0545 27.4137 72.799 28.875 73.6799C30.3152 74.5481 30.6642 76.218 30.7719 76.7332C31.4652 80.0507 28.8357 81.8678 29.7766 83.7031C30.5829 85.2759 32.7575 84.4168 34.2346 86.0733C35.9874 88.039 35.3887 92.0109 33.7934 94.4976C31.1963 98.546 25.2114 99.822 20.7601 98.0059Z" fill="url(#paint2_linear)"/>
<path opacity="0.5" d="M26.9223 74.7307C28.7436 75.7687 27.3861 81.1822 27.1477 82.0886C26.2786 85.3924 25.4042 85.363 24.5179 88.2451C22.9138 93.4608 24.7761 96.8136 23.3157 97.5551C21.9497 98.2486 19.3027 95.8321 17.9809 94.0263C16.6088 92.1519 14.7836 88.3654 16.2527 86.3681C17.6906 84.4133 20.9028 86.0507 22.8648 83.6652C23.8398 82.4798 24.0611 80.8421 24.2173 79.686C24.548 77.2383 23.8896 75.8517 24.8184 75.031C25.3544 74.5574 26.3008 74.3765 26.9223 74.7307Z" fill="#F4F7FA"/>
<path d="M108.925 103.651L98.2598 87.655C98.0273 87.3063 97.9079 86.8917 97.9164 86.4625L98.1999 72.2704C98.2318 70.6696 99.9452 69.586 101.395 70.2474C107.682 73.1159 120.375 81.6474 112.83 102.908C112.537 103.731 111.811 104.35 110.966 104.495C110.151 104.634 109.364 104.309 108.925 103.651Z" fill="#C25E4D"/>
<path d="M109.63 103.878L100.355 87.0391C100.152 86.672 100.069 86.2487 100.113 85.8219L101.595 71.7043C101.763 70.112 103.561 69.1769 104.95 69.9583C110.972 73.3472 122.899 82.9196 113.583 103.467C113.222 104.263 112.446 104.818 111.592 104.891C110.768 104.961 110.012 104.571 109.63 103.878Z" fill="#F77A65"/>
<path d="M81.5623 112.09C92.0464 112.09 100.545 110.382 100.545 108.275C100.545 106.169 92.0464 104.461 81.5623 104.461C71.0782 104.461 62.5791 106.169 62.5791 108.275C62.5791 110.382 71.0782 112.09 81.5623 112.09Z" fill="#EC7460"/>
<path d="M100.545 105.118H62.5791V108.275H100.545V105.118Z" fill="#F77A65"/>
<path d="M100.263 104.461H100.263L91.8666 94.6421C91.8666 93.4986 87.253 92.5715 81.5618 92.5715C75.8706 92.5715 71.257 93.4986 71.257 94.6421L62.8601 104.461H62.8606C62.6758 104.675 62.5786 104.895 62.5786 105.119C62.5786 107.226 71.0777 108.933 81.5618 108.933C92.0459 108.933 100.545 107.226 100.545 105.119C100.545 104.895 100.448 104.675 100.263 104.461Z" fill="#F77A65"/>
<path d="M81.5618 97.6048C92.0459 97.6048 100.545 95.897 100.545 93.7904C100.545 91.6838 92.0459 89.9761 81.5618 89.9761C71.0777 89.9761 62.5786 91.6838 62.5786 93.7904C62.5786 95.897 71.0777 97.6048 81.5618 97.6048Z" fill="url(#paint3_linear)"/>
<path d="M104.713 44.4433C98.7418 39.335 90.5182 35.1426 82.9752 35.1163C75.0846 35.0888 64.7587 40.3032 58.4123 44.4433C57.7462 47.4195 57.5354 50.5092 57.8156 53.6082L62.5796 93.7902H81.5628H100.546L105.31 53.6082C105.59 50.5092 105.379 47.4195 104.713 44.4433Z" fill="url(#paint4_linear)"/>
<path opacity="0.58" d="M87.6211 80.9865C85.9035 72.2081 78.0069 72.3871 75.791 64.2172C73.291 55.0002 82.0261 49.9232 78.6797 40.7126C76.7623 35.4351 73.2775 35.4036 71.9393 30.9533C71.3431 28.9708 71.2757 26.4525 72.4443 23.2278L65.4406 30.9213C59.8315 37.0829 57.0655 45.3127 57.8157 53.6084L62.5797 93.7903C62.5797 95.8969 71.0787 97.6047 81.5629 97.6047C83.3945 97.6047 85.1653 97.5524 86.8411 97.4551C86.47 96.6262 86.2331 95.824 86.0938 95.0576C85.1492 89.8612 88.8721 87.3808 87.6211 80.9865Z" fill="url(#paint5_linear)"/>
<path d="M98.697 62.7763C98.697 69.8857 93.4715 75.886 86.8913 76.1845C80.1582 76.49 74.584 70.7348 74.584 63.3233C74.584 55.9119 80.1582 49.9038 86.8913 49.9038C93.4715 49.9038 98.697 55.667 98.697 62.7763Z" fill="#F36F56"/>
<path opacity="0.3" d="M98.697 62.7763C98.697 69.8857 93.4715 75.886 86.8913 76.1845C80.1582 76.49 74.584 70.7348 74.584 63.3233C74.584 55.9119 80.1582 49.9038 86.8913 49.9038C93.4715 49.9038 98.697 55.667 98.697 62.7763Z" fill="#F36F56"/>
<path d="M99.4392 62.7763C99.4392 69.8857 94.2137 75.886 87.6335 76.1845C80.9004 76.49 75.3262 70.7348 75.3262 63.3233C75.3262 55.9119 80.9004 49.9038 87.6335 49.9038C94.2137 49.9038 99.4392 55.667 99.4392 62.7763Z" fill="url(#paint6_linear)"/>
<path d="M98.6962 62.7935C98.6962 69.4562 93.7954 75.0725 87.6323 75.3432C81.3351 75.6197 76.1289 70.2327 76.1289 63.3055C76.1289 56.3782 81.3351 50.755 87.6323 50.7459C93.7954 50.7369 98.6962 56.1309 98.6962 62.7935Z" fill="#F36F56"/>
<path d="M96.2822 65.504C94.9541 70.7608 90.0001 74.0082 85.15 72.7156C80.2176 71.4011 77.3064 65.9165 78.7176 60.5094C80.1221 55.1281 85.2465 51.9905 90.0949 53.4556C94.8633 54.8966 97.6041 60.2714 96.2822 65.504Z" fill="#FFC444"/>
<path opacity="0.3" d="M84.464 57.0173C84.1772 55.9765 84.1082 54.9103 84.2048 53.842C81.6341 54.9841 79.5377 57.3672 78.7176 60.5094C77.3064 65.9165 80.2176 71.401 85.15 72.7156C87.1384 73.2455 89.1444 73.012 90.9087 72.1929C91.369 69.338 91.0214 67.2176 90.4004 65.6198C88.835 61.5918 85.5333 60.8983 84.464 57.0173Z" fill="white"/>
<path d="M97.6845 30.9212L82.7723 14.5402C82.1233 13.8274 81.0013 13.8274 80.3524 14.5402L65.4401 30.9212C61.9263 34.7811 59.5285 39.4526 58.4116 44.4434C73.8454 42.0553 89.2792 42.0553 104.713 44.4434C103.596 39.4526 101.198 34.7811 97.6845 30.9212Z" fill="#F77A65"/>
<path opacity="0.3" d="M65.0506 31.3586C64.9818 31.4372 64.9133 31.5162 64.8454 31.5955C64.8119 31.6346 64.7785 31.6737 64.7452 31.713C64.6774 31.7931 64.6101 31.8735 64.5431 31.9542C64.5142 31.9891 64.485 32.0238 64.4563 32.0588C64.362 32.1735 64.2684 32.2886 64.176 32.4046C64.1732 32.4082 64.1704 32.4118 64.1675 32.4154C64.078 32.5278 63.9895 32.6409 63.9018 32.7544C63.8739 32.7905 63.8462 32.8269 63.8185 32.8632C63.755 32.9462 63.6918 33.0294 63.6292 33.113C63.5991 33.1532 63.569 33.1935 63.5391 33.2339C63.4757 33.3194 63.4129 33.4053 63.3504 33.4914C63.3253 33.5261 63.3 33.5606 63.2751 33.5953C63.1884 33.716 63.1025 33.8371 63.0178 33.9589C63.0145 33.9637 63.0113 33.9684 63.008 33.9732C62.9269 34.0899 62.8469 34.2071 62.7676 34.3248C62.7432 34.3611 62.7191 34.3976 62.6948 34.4339C62.6358 34.5223 62.5772 34.611 62.5192 34.7C62.4932 34.74 62.4672 34.78 62.4413 34.8201C62.3817 34.9125 62.3227 35.0053 62.2641 35.0983C62.2435 35.1311 62.2226 35.1638 62.2021 35.1966C62.123 35.3234 62.0447 35.4506 61.9676 35.5784C61.965 35.5826 61.9626 35.5869 61.96 35.5911C61.8864 35.7133 61.8139 35.836 61.7421 35.9591C61.7214 35.9946 61.701 36.0303 61.6804 36.0659C61.6259 36.1603 61.5718 36.255 61.5184 36.35C61.4964 36.389 61.4745 36.4279 61.4528 36.467C61.3971 36.5668 61.3421 36.6671 61.2877 36.7675C61.2714 36.7976 61.2549 36.8275 61.2388 36.8575C61.1674 36.9904 61.0968 37.1236 61.0275 37.2574C61.0265 37.2594 61.0255 37.2613 61.0245 37.2633C60.9577 37.3922 60.8921 37.5218 60.8272 37.6516C60.8102 37.6857 60.7935 37.7199 60.7766 37.754C60.7268 37.8547 60.6775 37.9558 60.6288 38.0571C60.6109 38.0944 60.593 38.1316 60.5752 38.169C60.5238 38.2771 60.4731 38.3854 60.4231 38.4941C60.4111 38.5201 60.3989 38.546 60.387 38.572C60.3236 38.7107 60.2611 38.8498 60.1998 38.9894C60.1998 38.9894 60.1998 38.9896 60.1997 38.9896C60.1405 39.1247 60.0825 39.2603 60.0253 39.3962C60.0117 39.4283 59.9984 39.4606 59.9849 39.4929C59.9402 39.6001 59.8961 39.7075 59.8527 39.8153C59.8386 39.8503 59.8244 39.8854 59.8104 39.9205C59.7641 40.0367 59.7185 40.1531 59.6736 40.2698C59.6652 40.2917 59.6566 40.3135 59.6482 40.3354C59.5406 40.6174 59.4374 40.9011 59.3384 41.1862C59.3278 41.2169 59.3173 41.2478 59.3067 41.2786C59.2681 41.3912 59.23 41.504 59.1927 41.6171C59.1817 41.6504 59.1707 41.6837 59.1599 41.717C59.1195 41.8406 59.08 41.9644 59.0413 42.0885C59.0358 42.1064 59.03 42.1242 59.0245 42.1421C58.9347 42.4319 58.8496 42.7232 58.7687 43.0158C58.7605 43.0456 58.7524 43.0755 58.7443 43.1053C58.7123 43.2222 58.6811 43.3393 58.6506 43.4566C58.6423 43.4888 58.6339 43.521 58.6256 43.5532C58.5923 43.683 58.5599 43.813 58.5283 43.9433C58.5249 43.9577 58.5212 43.972 58.5178 43.9864C58.4812 44.1384 58.4458 44.2908 58.4116 44.4434C65.3506 43.3698 72.2896 42.7805 79.2286 42.6722C79.104 42.0389 78.9242 41.3869 78.6792 40.7125C76.7618 35.435 73.277 35.4036 71.9388 30.9533C71.3426 28.9708 71.2752 26.4525 72.4438 23.2278L65.4401 30.9212C65.3398 31.0315 65.2406 31.1426 65.142 31.2542C65.1114 31.2888 65.0811 31.3238 65.0506 31.3586Z" fill="url(#paint7_linear)"/>
<path d="M55.0349 108.432L65.6407 88.9919C65.865 88.5809 65.958 88.1253 65.9083 87.6813L64.2581 72.9247C64.071 71.2515 62.045 70.3755 60.4653 71.2992C53.4471 75.4032 38.6967 87.2735 50.3175 108.736C50.753 109.54 51.6864 109.998 52.7087 109.911C53.6887 109.827 54.5848 109.257 55.0349 108.432Z" fill="#F77A65"/>
<path opacity="0.3" d="M65.9081 87.6813L64.2579 72.9247C64.2401 72.7653 64.2053 72.6132 64.1562 72.4692C63.7876 72.508 63.4158 72.6244 63.0662 72.8304C56.1295 76.9176 41.5858 88.6937 52.8609 109.893C53.7805 109.766 54.608 109.214 55.0347 108.432L65.6405 88.992C65.8648 88.5809 65.9578 88.1254 65.9081 87.6813Z" fill="#F77A65"/>
<path d="M55.2541 62.1574L7.03591 63.2404C5.91301 63.2656 5 62.421 5 61.3537V46.162C5 45.0947 5.91302 44.2347 7.03591 44.241L55.2541 44.5122C56.2196 44.5176 57 45.3209 57 46.3064V60.3338C57 61.3193 56.2196 62.1357 55.2541 62.1574Z" fill="url(#paint8_linear)"/>
<path d="M57.2205 62.1574L8.07506 63.2404C6.93057 63.2656 6 62.421 6 61.3537V46.162C6 45.0947 6.93058 44.2347 8.07506 44.241L57.2205 44.5122C58.2045 44.5176 59 45.3209 59 46.3064V60.3338C59 61.3193 58.2045 62.1357 57.2205 62.1574Z" fill="url(#paint9_linear)"/>
<path opacity="0.3" d="M56.3206 59.9644L8.23973 46.8708L6.47646 45.241C6.18051 45.5529 6 45.9603 6 46.408V61.4974C6 62.4834 6.86854 63.2638 7.93692 63.2405L56.7653 62.1752C57.2566 62.1645 57.6963 61.9423 58 61.5998L56.3206 59.9644Z" fill="url(#paint10_linear)"/>
<path d="M7 61.4614V46.0345C7 45.5944 7.38127 45.2391 7.85098 45.241L57.268 45.4379C57.6725 45.4395 58 45.7713 58 46.179V60.4696C58 60.8773 57.6725 61.2145 57.2681 61.2229L7.85098 62.2408C7.38127 62.2504 7 61.9015 7 61.4614Z" fill="url(#paint11_linear)"/>
<path d="M14.0802 57.0463C14.1888 56.6325 14.6492 56.3808 15.0801 56.5085C15.5707 56.6539 16.1418 56.7568 16.7231 56.7495C17.7224 56.7369 18.2494 56.3425 18.2494 55.7541C18.2494 55.1924 17.7937 54.876 16.6373 54.4987C15.0319 53.9896 13.9814 53.1642 13.9814 51.8454C13.9814 50.2979 15.3622 49.1119 17.6368 49.1089C18.3152 49.108 18.8807 49.1912 19.3478 49.3123C19.7605 49.4193 20.0046 49.8173 19.8906 50.2059L19.8236 50.4343C19.7096 50.8232 19.2816 51.0516 18.8691 50.9424C18.5213 50.8504 18.0943 50.7802 17.5941 50.7821C16.6516 50.7857 16.1937 51.1898 16.1937 51.6593C16.1937 52.236 16.7374 52.4874 17.9788 52.921C19.6696 53.4964 20.4622 54.3165 20.4622 55.5827C20.4622 57.0888 19.2299 58.387 16.5944 58.4268C15.8498 58.438 15.1102 58.3266 14.5395 58.1685C14.1444 58.059 13.9139 57.6795 14.0129 57.3024L14.0802 57.0463Z" fill="url(#paint12_linear)"/>
<path d="M23.7406 50.9442L21.9633 50.9515C21.5402 50.9532 21.1968 50.6303 21.1968 50.2303V49.9747C21.1968 49.5747 21.5402 49.2499 21.9633 49.2492L27.6741 49.2405C28.0895 49.2398 28.4259 49.5601 28.4259 49.9558V50.2087C28.4259 50.6044 28.0895 50.9265 27.6741 50.9282L25.876 50.9355V57.435C25.876 57.8322 25.537 58.1593 25.1183 58.1655L24.5013 58.1747C24.0814 58.181 23.7406 57.863 23.7406 57.4646V50.9442Z" fill="url(#paint13_linear)"/>
<path d="M30.7096 55.8115L30.2027 57.5663C30.113 57.8769 29.8183 58.0955 29.4822 58.1005L28.888 58.1093C28.3837 58.1168 28.0224 57.6565 28.1701 57.1938L30.5483 49.7414C30.6442 49.441 30.9336 49.2354 31.2611 49.2349L32.895 49.2324C33.2195 49.2319 33.5059 49.4343 33.6019 49.7317L35.9754 57.0856C36.1218 57.5393 35.7688 58.0068 35.2735 58.0142L34.6004 58.0242C34.2749 58.029 33.9876 57.8277 33.8938 57.5287L33.3453 55.7813L30.7096 55.8115ZM33.0459 54.2937L32.4736 52.4271C32.3099 51.9044 32.1461 51.2505 32.0096 50.7271L31.9823 50.7272C31.8457 51.2518 31.709 51.9209 31.5586 52.4329L31.0111 54.3125L33.0459 54.2937Z" fill="url(#paint14_linear)"/>
<path d="M37.481 49.9621C37.481 49.601 37.7616 49.2967 38.1324 49.2583C38.7173 49.1977 39.4308 49.1576 40.1963 49.1565C41.5257 49.1546 42.453 49.3467 43.0874 49.835C43.6151 50.2455 43.9049 50.8492 43.9049 51.6467C43.9049 52.753 43.1006 53.5185 42.334 53.7956V53.8342C42.9553 54.0736 43.2986 54.65 43.5228 55.4457C43.6712 55.9684 43.8196 56.5353 43.9516 56.9997C44.0777 57.4432 43.7339 57.8881 43.2602 57.8952L42.6758 57.9039C42.3642 57.9085 42.0872 57.718 41.9913 57.4302C41.8716 57.0705 41.7286 56.5504 41.5655 55.8936C41.3266 54.8115 40.9414 54.5182 40.1164 54.5133L39.5029 54.5192V57.2467C39.5029 57.6357 39.1777 57.956 38.776 57.962L38.2108 57.9704C37.8079 57.9764 37.481 57.6649 37.481 57.2746V49.9621ZM39.5029 53.0946L40.3029 53.0886C41.3133 53.0811 41.9102 52.5863 41.9102 51.825C41.9102 51.025 41.3532 50.6271 40.4227 50.6176C39.9298 50.6194 39.6497 50.6593 39.5029 50.6857V53.0946Z" fill="url(#paint15_linear)"/>
<path d="M47.0505 50.849L45.395 50.8558C45.001 50.8574 44.6812 50.5457 44.6812 50.1598V49.913C44.6812 49.527 45.001 49.2136 45.395 49.213L50.7154 49.2048C51.1025 49.2042 51.4161 49.5134 51.4161 49.8954V50.1396C51.4161 50.5216 51.1025 50.8325 50.7154 50.8341L49.0398 50.8409V57.1147C49.0398 57.498 48.724 57.8136 48.334 57.8194L47.7592 57.8279C47.368 57.8338 47.0505 57.5267 47.0505 57.1421V50.849Z" fill="url(#paint16_linear)"/>
<path d="M133.075 105.372C133.219 105.603 133.197 105.711 133.172 105.761C133.099 105.905 132.876 105.799 132.335 105.921C132.271 105.935 132.15 105.965 131.993 105.945C131.859 105.928 131.697 105.874 131.7 105.838C131.701 105.825 131.724 105.818 131.733 105.815C131.881 105.767 132.802 105.375 132.802 105.375L133.075 105.372Z" fill="url(#paint17_linear)"/>
<path d="M133.091 104.83L133.063 105.383C133.063 105.383 132.847 105.572 132.764 105.378C132.705 105.238 132.666 104.849 132.666 104.849L133.091 104.83Z" fill="url(#paint18_linear)"/>
<path d="M130.357 105.387L130.653 105.99L130.981 105.902L130.843 105.33L130.357 105.387Z" fill="url(#paint19_linear)"/>
<path d="M130.793 106.324C130.934 106.115 131.08 106.118 131.096 105.983C131.108 105.877 131.031 105.757 130.93 105.719C130.789 105.665 130.637 105.788 130.603 105.816C130.37 106.004 130.465 106.251 130.24 106.385C130.195 106.412 130.123 106.444 130.051 106.526C130.021 106.561 129.946 106.648 129.971 106.7C130 106.759 130.148 106.742 130.289 106.725C130.458 106.705 130.543 106.695 130.619 106.635C130.725 106.553 130.683 106.485 130.793 106.324Z" fill="url(#paint20_linear)"/>
<path d="M133.516 91.6262C133.586 92.8985 133.518 93.9979 133.404 94.9004C133.281 95.8711 133.177 96.0457 133.169 96.7106C133.151 98.1576 133.631 98.3247 133.85 99.9403C134.093 101.724 133.734 103.188 133.592 103.746C133.467 104.235 133.328 104.633 133.221 104.91C133.068 105.066 132.812 105.032 132.543 105C132.31 103.383 132.062 101.864 131.829 100.247C131.312 97.8284 130.794 95.4098 130.276 92.9911C131.356 92.5361 132.436 92.0812 133.516 91.6262Z" fill="url(#paint21_linear)"/>
<path opacity="0.3" d="M132.543 105C132.31 103.383 132.062 101.864 131.829 100.247C131.312 97.8284 130.794 95.4098 130.276 92.9911C131.356 92.5361 132.436 92.0812 133.516 91.6262C133.52 91.7105 133.523 91.7919 133.526 91.8747C132.081 93.3548 131.865 94.4505 131.941 95.1793C132.033 96.0633 132.554 96.4621 132.566 97.7539C132.574 98.6775 132.311 98.8621 132.38 99.6905C132.469 100.757 132.977 101.319 133.251 101.917C133.516 102.495 133.663 103.332 133.346 104.567C133.301 104.695 133.259 104.811 133.221 104.91C133.068 105.066 132.812 105.032 132.543 105Z" fill="url(#paint22_linear)"/>
<path d="M131.652 93.0115C130.95 94.4558 130.587 95.5769 130.396 96.2664C130.28 96.687 130.179 97.1235 130.194 97.6837C130.212 98.3701 130.394 98.9202 130.542 99.2698C130.752 99.716 130.951 100.24 131.099 100.839C131.577 102.78 131.253 104.465 130.971 105.442C130.779 105.531 130.588 105.62 130.397 105.71C129.847 104.498 129.152 102.771 128.578 100.619C128.265 99.4437 128.023 98.5214 127.923 97.3328C127.817 96.0791 127.831 94.0811 128.661 91.6265C129.658 92.0881 130.655 92.5498 131.652 93.0115Z" fill="url(#paint23_linear)"/>
<path d="M130.296 82.1958C129.059 82.5149 128.123 82.8181 127.751 83.5098C127.358 84.2405 128.117 84.7032 128.438 86.2083C128.929 88.5127 127.662 89.4938 128.242 91.807C128.437 92.5864 128.757 93.1753 128.972 93.5231C129.405 93.8199 130.086 94.2174 130.986 94.4505C132.294 94.7898 132.9 94.4793 134.62 94.4353C137.432 94.3633 137.919 95.1398 139.142 94.5362C140.378 93.9262 141.19 92.4873 140.871 91.9276C140.679 91.5925 140.185 91.8525 139.415 91.4854C138.423 91.0122 138.52 90.2461 137.698 89.6639C136.518 88.8276 135.535 89.8524 134.524 89.1239C133.502 88.3869 133.224 86.412 133.531 85.1971C133.732 84.4036 133.668 83.5641 133.799 82.7562C133.809 82.689 133.814 82.5831 133.763 82.4675C133.569 82.0254 132.728 82.0071 132.093 81.9991C131.125 81.987 130.397 82.1695 130.296 82.1958Z" fill="url(#paint24_linear)"/>
<path opacity="0.3" d="M138.922 93.6654C138.513 93.4395 138.662 92.6905 138.056 92.3497C137.493 92.0334 137.117 92.5392 136.312 92.3637C135.279 92.1387 135.252 91.1655 134.261 90.9362C133.548 90.7714 133.376 91.2313 132.376 91.3334C131.379 91.4353 130.035 91.1317 129.117 90.142C128.728 89.7214 128.491 89.258 128.347 88.8232C128.151 89.7079 127.93 90.5657 128.242 91.8073C128.437 92.5867 128.757 93.1756 128.972 93.5234C129.405 93.8203 130.086 94.2177 130.986 94.4508C132.295 94.7901 132.901 94.4796 134.62 94.4356C137.432 94.3636 137.919 95.1401 139.142 94.5365C139.932 94.1466 140.547 93.4188 140.806 92.7977C139.766 93.6934 139.219 93.8294 138.922 93.6654Z" fill="url(#paint25_linear)"/>
<path d="M129.392 80.0869C129.392 80.0869 129.1 80.764 129.116 81.2208C129.132 81.6775 129.643 81.6019 129.643 81.6019L129.647 81.8905C129.651 82.1369 129.51 82.3624 129.286 82.4663L129.089 82.5577C129.089 82.5577 130.436 82.7312 131.117 82.1611L130.907 82.158C130.609 82.1536 130.356 81.9404 130.302 81.6483L130.279 81.5265C130.279 81.5265 130.391 80.0893 129.392 80.0869Z" fill="url(#paint26_linear)"/>
<path d="M128.042 87.4769L126.028 84.0058C126.003 83.963 125.953 83.9414 125.905 83.9527L123.087 84.6106C123.012 84.6282 122.976 84.7145 123.017 84.7799L125.354 88.5137C125.382 88.5587 125.438 88.5779 125.488 88.5599L127.964 87.6663L128.042 87.4769Z" fill="url(#paint27_linear)"/>
<path d="M127.546 87.0828L125.915 84.2722C125.895 84.2375 125.855 84.2201 125.816 84.2292L123.534 84.7619C123.473 84.7762 123.445 84.846 123.478 84.899L125.37 87.9223C125.393 87.9587 125.438 87.9742 125.478 87.9596L127.483 87.2361L127.546 87.0828Z" fill="url(#paint28_linear)"/>
<path d="M125.434 84.3044L125.305 84.0789C125.287 84.0476 125.25 84.0317 125.215 84.0396L124.041 84.3033C123.987 84.3156 123.96 84.3773 123.988 84.4254L124.132 84.6705C124.151 84.7019 124.188 84.7175 124.223 84.7088L125.382 84.4254C125.435 84.4124 125.461 84.3519 125.434 84.3044Z" fill="url(#paint29_linear)"/>
<path d="M123.897 85.2708C123.899 85.2706 123.9 85.2702 123.902 85.2698L125.968 84.7826C125.994 84.7765 126.01 84.7509 126.004 84.7255C125.997 84.6998 125.971 84.6844 125.946 84.6902L123.88 85.1773C123.855 85.1834 123.839 85.209 123.845 85.2344C123.851 85.2583 123.873 85.2736 123.897 85.2708Z" fill="url(#paint30_linear)"/>
<path d="M124.026 85.4711C124.028 85.4708 124.03 85.4704 124.032 85.47L126.085 84.9636C126.111 84.9573 126.126 84.9316 126.12 84.906C126.114 84.8805 126.088 84.865 126.063 84.8713L124.009 85.3777C123.984 85.3839 123.968 85.4097 123.975 85.4353C123.98 85.4587 124.003 85.4738 124.026 85.4711Z" fill="url(#paint31_linear)"/>
<path d="M125.11 85.6936C125.113 85.6933 125.115 85.6929 125.117 85.6922L126.234 85.3844C126.259 85.3775 126.274 85.3512 126.267 85.3259C126.26 85.3007 126.233 85.2857 126.208 85.2928L125.092 85.6006C125.067 85.6075 125.052 85.6338 125.059 85.6591C125.065 85.6819 125.087 85.6963 125.11 85.6936Z" fill="url(#paint32_linear)"/>
<path d="M124.782 87.5998C124.782 87.5998 124.284 87.3322 124.206 87.1149C124.129 86.8977 124.099 86.4768 124.099 86.4768L124.432 87.0394C124.432 87.0394 124.559 86.9881 124.595 86.7875C124.631 86.5869 124.745 86.7553 124.722 86.9064C124.699 87.0575 124.782 87.5998 124.782 87.5998Z" fill="url(#paint33_linear)"/>
<path d="M127.95 83.2671C127.72 83.4423 127.377 83.7436 127.094 84.2015C126.288 85.5041 126.785 86.7503 126.062 87.285C125.855 87.4379 125.479 87.5838 124.755 87.4099L124.502 87.5801C124.502 87.5801 124.349 89.2765 126.375 89.1276C128.402 88.9789 129.146 86.3646 129.146 86.3646L127.95 83.2671Z" fill="url(#paint34_linear)"/>
<path d="M129.652 80.7143C129.72 80.703 129.769 80.6116 129.818 80.6335C129.87 80.6564 129.875 80.7832 129.839 80.8754C129.81 80.951 129.757 80.9969 129.726 81.0187C129.785 81.0873 129.862 81.1953 129.902 81.3416C129.991 81.6652 129.839 81.944 129.779 82.1047C129.509 82.8292 130.11 83.8895 130.716 84.3999C131.208 84.8148 131.406 84.6153 131.708 84.9624C132.296 85.638 131.632 86.4893 131.986 87.4349C132.523 88.8728 134.886 89.1181 134.984 89.1271C135.023 89.1307 135.049 89.1327 135.089 89.1358C136.146 89.215 137.749 89.3351 138.792 88.3868C139.573 87.6773 139.862 86.531 139.718 85.5544C139.68 85.2975 139.52 84.3236 138.654 83.5897C138.517 83.4733 137.703 82.7852 136.687 82.8603C136.149 82.9 136.056 83.0983 135.635 83.0153C135.059 82.9016 134.67 82.4188 134.428 82.1194C133.984 81.5685 134.135 81.4306 133.826 81.1671C133.222 80.6509 132.604 81.1468 131.967 80.6998C131.339 80.2592 131.638 79.5662 131.036 79.1897C130.415 78.8014 129.308 79.0466 129.113 79.5864C128.945 80.0503 129.444 80.749 129.652 80.7143Z" fill="url(#paint35_linear)"/>
<defs>
<linearGradient id="paint0_linear" x1="8.72916" y1="80.5167" x2="35.0743" y2="120.628" gradientUnits="userSpaceOnUse">
<stop offset="0.0036" stop-color="#E38DDD"/>
<stop offset="1" stop-color="#9571F6"/>
</linearGradient>
<linearGradient id="paint1_linear" x1="18.4636" y1="114.874" x2="18.8721" y2="88.3356" gradientUnits="userSpaceOnUse">
<stop stop-color="#FF9085"/>
<stop offset="1" stop-color="#FB6FBB"/>
</linearGradient>
<linearGradient id="paint2_linear" x1="30.4224" y1="75.281" x2="9.71169" y2="126.422" gradientUnits="userSpaceOnUse">
<stop stop-color="#FF9085"/>
<stop offset="1" stop-color="#FB6FBB"/>
</linearGradient>
<linearGradient id="paint3_linear" x1="48.7333" y1="34.5143" x2="95.7235" y2="119.491" gradientUnits="userSpaceOnUse">
<stop offset="0.494" stop-color="#EBEFF2"/>
<stop offset="1" stop-color="white"/>
</linearGradient>
<linearGradient id="paint4_linear" x1="68.0585" y1="40.9707" x2="105.887" y2="109.38" gradientUnits="userSpaceOnUse">
<stop offset="0.494" stop-color="#EBEFF2"/>
<stop offset="1" stop-color="white"/>
</linearGradient>
<linearGradient id="paint5_linear" x1="52.8989" y1="32.2306" x2="100.239" y2="117.841" gradientUnits="userSpaceOnUse">
<stop offset="0.494" stop-color="#EBEFF2"/>
<stop offset="1" stop-color="white"/>
</linearGradient>
<linearGradient id="paint6_linear" x1="98.6083" y1="73.5792" x2="79.1994" y2="55.3578" gradientUnits="userSpaceOnUse">
<stop stop-color="#FB6FBB"/>
<stop offset="1" stop-color="#FF9085"/>
</linearGradient>
<linearGradient id="paint7_linear" x1="62.3591" y1="28.2949" x2="75.7201" y2="52.457" gradientUnits="userSpaceOnUse">
<stop stop-color="#FF9085"/>
<stop offset="1" stop-color="#FB6FBB"/>
</linearGradient>
<linearGradient id="paint8_linear" x1="25.1663" y1="52.049" x2="7.35679" y2="46.814" gradientUnits="userSpaceOnUse">
<stop stop-color="#311944"/>
<stop offset="1" stop-color="#893976"/>
</linearGradient>
<linearGradient id="paint9_linear" x1="36.6272" y1="34.8374" x2="29.9278" y2="64.3932" gradientUnits="userSpaceOnUse">
<stop stop-color="#FFC444"/>
<stop offset="0.9964" stop-color="#F36F56"/>
</linearGradient>
<linearGradient id="paint10_linear" x1="36.2537" y1="35.1283" x2="29.694" y2="64.3624" gradientUnits="userSpaceOnUse">
<stop stop-color="#FFC444"/>
<stop offset="0.9964" stop-color="#F36F56"/>
</linearGradient>
<linearGradient id="paint11_linear" x1="34.7603" y1="48.9766" x2="4.57456" y2="104.809" gradientUnits="userSpaceOnUse">
<stop stop-color="#FFC444"/>
<stop offset="0.9964" stop-color="#F36F56"/>
</linearGradient>
<linearGradient id="paint12_linear" x1="8.55663" y1="62.5492" x2="32.6254" y2="38.0319" gradientUnits="userSpaceOnUse">
<stop stop-color="#311944"/>
<stop offset="1" stop-color="#893976"/>
</linearGradient>
<linearGradient id="paint13_linear" x1="12.1783" y1="65.2578" x2="35.7201" y2="41.2773" gradientUnits="userSpaceOnUse">
<stop stop-color="#311944"/>
<stop offset="1" stop-color="#893976"/>
</linearGradient>
<linearGradient id="paint14_linear" x1="17.2686" y1="69.89" x2="40.6359" y2="46.0871" gradientUnits="userSpaceOnUse">
<stop stop-color="#311944"/>
<stop offset="1" stop-color="#893976"/>
</linearGradient>
<linearGradient id="paint15_linear" x1="21.4774" y1="73.1545" x2="44.4243" y2="49.7798" gradientUnits="userSpaceOnUse">
<stop stop-color="#311944"/>
<stop offset="1" stop-color="#893976"/>
</linearGradient>
<linearGradient id="paint16_linear" x1="25.0983" y1="75.6485" x2="47.5605" y2="52.7675" gradientUnits="userSpaceOnUse">
<stop stop-color="#311944"/>
<stop offset="1" stop-color="#893976"/>
</linearGradient>
<linearGradient id="paint17_linear" x1="132.16" y1="107.367" x2="132.868" y2="103.39" gradientUnits="userSpaceOnUse">
<stop stop-color="#444B8C"/>
<stop offset="0.9964" stop-color="#26264F"/>
</linearGradient>
<linearGradient id="paint18_linear" x1="133.075" y1="106.501" x2="132.345" y2="100.333" gradientUnits="userSpaceOnUse">
<stop stop-color="#FFC444"/>
<stop offset="0.9964" stop-color="#F36F56"/>
</linearGradient>
<linearGradient id="paint19_linear" x1="130.803" y1="106.77" x2="130.072" y2="100.602" gradientUnits="userSpaceOnUse">
<stop stop-color="#FFC444"/>
<stop offset="0.9964" stop-color="#F36F56"/>
</linearGradient>
<linearGradient id="paint20_linear" x1="130.401" y1="107.053" x2="131.11" y2="103.076" gradientUnits="userSpaceOnUse">
<stop stop-color="#444B8C"/>
<stop offset="0.9964" stop-color="#26264F"/>
</linearGradient>
<linearGradient id="paint21_linear" x1="132.03" y1="93.1287" x2="134.106" y2="105.807" gradientUnits="userSpaceOnUse">
<stop stop-color="#311944"/>
<stop offset="1" stop-color="#893976"/>
</linearGradient>
<linearGradient id="paint22_linear" x1="132.03" y1="93.1287" x2="134.106" y2="105.807" gradientUnits="userSpaceOnUse">
<stop stop-color="#311944"/>
<stop offset="1" stop-color="#893976"/>
</linearGradient>
<linearGradient id="paint23_linear" x1="124.032" y1="99.5737" x2="134.368" y2="97.8683" gradientUnits="userSpaceOnUse">
<stop stop-color="#311944"/>
<stop offset="1" stop-color="#893976"/>
</linearGradient>
<linearGradient id="paint24_linear" x1="139.736" y1="100.473" x2="130.511" y2="85.6048" gradientUnits="userSpaceOnUse">
<stop stop-color="#FF9085"/>
<stop offset="1" stop-color="#FB6FBB"/>
</linearGradient>
<linearGradient id="paint25_linear" x1="126.574" y1="84.1587" x2="135.557" y2="93.8985" gradientUnits="userSpaceOnUse">
<stop stop-color="#FF9085"/>
<stop offset="1" stop-color="#FB6FBB"/>
</linearGradient>
<linearGradient id="paint26_linear" x1="129.195" y1="81.0226" x2="130.778" y2="83.0152" gradientUnits="userSpaceOnUse">
<stop stop-color="#FFC444"/>
<stop offset="0.9964" stop-color="#F36F56"/>
</linearGradient>
<linearGradient id="paint27_linear" x1="124.638" y1="84.9355" x2="127.828" y2="88.9519" gradientUnits="userSpaceOnUse">
<stop stop-color="#444B8C"/>
<stop offset="0.9964" stop-color="#26264F"/>
</linearGradient>
<linearGradient id="paint28_linear" x1="124.914" y1="85.0179" x2="127.684" y2="89.1271" gradientUnits="userSpaceOnUse">
<stop stop-color="#FFC444"/>
<stop offset="0.9964" stop-color="#F36F56"/>
</linearGradient>
<linearGradient id="paint29_linear" x1="124.878" y1="84.625" x2="124.084" y2="83.3783" gradientUnits="userSpaceOnUse">
<stop stop-color="#AA80F9"/>
<stop offset="0.9964" stop-color="#6165D7"/>
</linearGradient>
<linearGradient id="paint30_linear" x1="126.019" y1="84.8657" x2="123.83" y2="85.0947" gradientUnits="userSpaceOnUse">
<stop stop-color="#444B8C"/>
<stop offset="0.9964" stop-color="#26264F"/>
</linearGradient>
<linearGradient id="paint31_linear" x1="126.136" y1="85.0568" x2="123.958" y2="85.2848" gradientUnits="userSpaceOnUse">
<stop stop-color="#444B8C"/>
<stop offset="0.9964" stop-color="#26264F"/>
</linearGradient>
<linearGradient id="paint32_linear" x1="126.278" y1="85.4282" x2="125.048" y2="85.557" gradientUnits="userSpaceOnUse">
<stop stop-color="#444B8C"/>
<stop offset="0.9964" stop-color="#26264F"/>
</linearGradient>
<linearGradient id="paint33_linear" x1="124.274" y1="86.7143" x2="125.04" y2="87.678" gradientUnits="userSpaceOnUse">
<stop stop-color="#FFC444"/>
<stop offset="0.9964" stop-color="#F36F56"/>
</linearGradient>
<linearGradient id="paint34_linear" x1="136.612" y1="102.411" x2="127.386" y2="87.5435" gradientUnits="userSpaceOnUse">
<stop stop-color="#FF9085"/>
<stop offset="1" stop-color="#FB6FBB"/>
</linearGradient>
<linearGradient id="paint35_linear" x1="137.645" y1="89.1488" x2="130.917" y2="78.3055" gradientUnits="userSpaceOnUse">
<stop stop-color="#444B8C"/>
<stop offset="0.9964" stop-color="#26264F"/>
</linearGradient>
</defs>
</svg>
