<svg width="120" height="118" viewBox="0 0 120 118" fill="none" xmlns="http://www.w3.org/2000/svg">
<path d="M61.8672 0.0261463C31.1477 -0.861259 4.5381 20.9443 0.517848 49.556C-3.87769 80.839 20.3149 108.986 50.0829 113.494C87.1092 119.102 123.023 86.6622 119.798 51.47C117.369 24.9557 93.0941 0.928204 61.8672 0.0261463Z" fill="white"/>
<path d="M41.7281 106.989C40.8 106.545 39.172 104.762 38.9393 104.123C37.3902 99.8654 33.972 92.083 35.7308 87.6285C36.0312 86.8677 39.7346 87.2858 40.4543 86.7332C42.8801 86.4266 43.7407 86.4707 45.9037 85.0463C52.2896 80.8411 45.4917 66.7766 58.7137 66.9581C68.3986 67.091 74.8229 72.5515 78.3539 58.608C81.885 44.6645 100.852 23.3703 112.126 37.6064C118.596 45.7766 106.403 54.6167 107.846 64.5638C109.218 74.016 103.577 79.5751 93.3435 81.6178C83.1099 83.6605 86.4906 88.9235 86.4643 97.4695C86.4327 107.735 71.6236 104.694 64.9063 102.707C59.4971 101.107 44.6437 100.682 41.7281 106.989Z" fill="#A37DF6"/>
<path d="M37.3223 96.2709L37.3022 96.1255C45.8716 94.9507 54.1327 92.4752 61.8562 88.7678C69.2781 85.2052 76.2151 80.5024 82.4747 74.79C94.6288 63.6984 104.035 48.9765 109.676 32.2161L109.815 32.2629C104.166 49.0469 94.7461 63.79 82.5737 74.8984C76.3035 80.6205 69.3545 85.3313 61.9197 88.9001C54.1824 92.6141 45.9067 95.094 37.3223 96.2709Z" fill="#FCFDFE"/>
<path d="M86.9615 101.709C79.5342 96.245 65.6363 91.5998 55.9805 91.354L55.9842 91.2073C60.487 91.3219 66.3725 92.4769 72.1316 94.3762C78.1043 96.3458 83.4019 98.9079 87.0484 101.59L86.9615 101.709Z" fill="#FCFDFE"/>
<path d="M43.8538 95.3006L43.7944 95.1664C48.3914 93.1296 51.7815 88.8488 53.8706 82.443C55.4011 77.7499 56.2107 72.0459 56.2769 65.4895L56.4236 65.491C56.3573 72.0624 55.5453 77.7812 54.0101 82.4885C51.9075 88.9356 48.4904 93.2462 43.8538 95.3006Z" fill="#FCFDFE"/>
<path d="M84.2479 73.2485L84.1816 73.1176C92.6212 68.8472 102.478 70.1992 109.26 72.0856L109.221 72.227C96.9782 68.8221 88.8832 70.9032 84.2479 73.2485Z" fill="#FCFDFE"/>
<path d="M98.1036 56.6088L97.9678 56.5531C99.7091 52.312 101.904 43.2579 97.043 30.269L97.1805 30.2175C98.8204 34.5994 99.8211 39.1547 100.075 43.3912C100.366 48.2657 99.7032 52.7128 98.1036 56.6088Z" fill="#FCFDFE"/>
<path d="M32.8645 97.0523C31.9752 97.1082 29.9913 96.4459 29.5453 96.06C26.5773 93.492 20.708 89.045 20.1599 84.9324C20.0663 84.23 23.045 82.9841 23.3564 82.2625C25.0627 81.0072 25.7325 80.6775 26.7684 78.6873C29.8267 72.8115 18.75 65.0365 28.8316 59.5964C36.2162 55.6117 43.3808 57.0337 40.171 44.9932C36.9612 32.9528 42.3308 8.83896 56.8669 14.8557C65.2092 18.3088 59.7117 30.1415 65.0001 37.0593C70.0254 43.6331 68.1017 50.2191 61.2196 56.0817C54.3376 61.9442 59.1158 64.5006 62.7008 70.9784C67.0072 78.7596 54.5184 82.7055 48.5973 84.0353C43.8291 85.1062 32.4103 91.0499 32.8645 97.0523Z" fill="url(#paint0_linear)"/>
<path d="M25.016 90.8085L24.9277 90.6912C30.9157 86.188 36.1219 80.8308 40.4017 74.7683C44.5144 68.9426 47.7794 62.4587 50.1061 55.4966C54.6239 41.9782 55.5312 26.8724 52.73 11.812L52.8741 11.7852C55.6799 26.87 54.7709 42.0012 50.2453 55.5431C47.9142 62.5188 44.6426 69.0156 40.5215 74.853C36.233 80.9279 31.0162 86.2961 25.016 90.8085Z" fill="#FCFDFE"/>
<path d="M37.0584 79.218L36.9902 79.0881C44.4215 75.1901 56.9342 72.8362 64.882 73.8403L64.8636 73.9859C56.9398 72.9846 44.467 75.3319 37.0584 79.218Z" fill="#FCFDFE"/>
<path d="M29.5508 87.3165L29.4335 87.2282C32.0512 83.7502 32.8102 79.0835 31.6895 73.3578C30.8681 69.162 29.075 64.5052 26.3599 59.5169L26.4889 59.4468C29.2111 64.4482 31.0093 69.1191 31.8335 73.3296C32.9625 79.0979 32.1945 83.8037 29.5508 87.3165Z" fill="#FCFDFE"/>
<path d="M50.8159 53.5901L50.6943 53.5079C55.2808 46.7138 63.3119 43.5783 69.2416 42.1443L69.276 42.287C63.3717 43.7148 55.3762 46.8349 50.8159 53.5901Z" fill="#FCFDFE"/>
<path d="M54.1362 35.1652C53.665 31.223 51.5074 23.4485 42.3525 15.6726L42.4474 15.5608C45.5376 18.1854 48.217 21.211 50.1965 24.3105C52.474 27.8773 53.8486 31.5235 54.2818 35.1478L54.1362 35.1652Z" fill="#FCFDFE"/>
<path d="M52.068 110.94C47.5293 109.753 43.007 108.46 38.5048 107.062C38.4225 107.121 38.0169 96.9263 43.3606 92.1928C53.9044 83.0439 48.5686 73.1999 47.3567 67.5821C45.3317 59.6311 47.7521 51.5302 55.536 52.2654C64.1879 52.9121 67.3245 38.8198 67.1943 25.6713C66.6849 19.2097 73.5032 12.1902 79.6554 11.0929C85.9527 9.81996 91.5839 14.4692 92.0523 27.2886C93.2569 42.2046 81.6263 49.836 76.8714 56.723C72.1946 63.4828 80.587 70.2957 72.6127 75.8624C65.8718 80.8467 57.7142 84.0644 59.7498 91.4843C61.8714 98.8323 60.5437 104.502 52.068 110.94Z" fill="#E38DDD"/>
<path d="M45.8116 110.85L45.666 110.833C45.6745 110.744 52.4061 90.1464 62.2769 70.4463C63.694 67.2365 65.2046 64.0092 66.6654 60.8882C70.5775 52.5301 74.6228 43.8874 77.06 35.1056C79.7847 25.2882 80.2002 16.2209 78.3302 7.38561L78.4738 7.35522C80.3488 16.2141 79.9326 25.3042 77.2015 35.1449C74.7608 43.9385 70.7129 52.5868 66.7982 60.9504C65.3379 64.0707 63.8276 67.2973 62.4096 70.5088C52.5322 90.2222 45.8343 110.733 45.8116 110.85Z" fill="#FCFDFE"/>
<path d="M74.0011 44.691L73.9033 44.5814C79.678 39.4337 86.7805 31.9967 90.5961 28.0013C93.4834 24.9779 93.668 24.801 93.7681 24.8284L93.7488 24.8993L93.7682 24.9684C93.6299 25.037 92.3379 26.3899 90.7021 28.1027C86.8851 32.0995 79.7801 39.5393 74.0011 44.691Z" fill="#FCFDFE"/>
<path d="M76.455 37.0399C76.1126 30.3552 73.8816 25.7402 72.0704 23.0457C70.0808 20.0862 68.0848 18.6589 67.8869 18.6208C67.8875 18.6208 67.9015 18.6233 67.9187 18.6142L67.8511 18.484C67.8929 18.4622 67.9441 18.4759 68.0544 18.539C68.5953 18.8486 70.5725 20.4114 72.4966 23.429C74.9211 27.231 76.3405 31.935 76.6015 37.0324L76.455 37.0399Z" fill="#FCFDFE"/>
<path d="M56.4251 83.3866L56.2701 83.3506C57.6685 77.3342 56.9716 70.6203 54.1986 63.3952C52.7525 59.6275 50.7921 55.8766 48.372 52.2466C48.2047 51.9957 48.1361 51.8922 48.1182 51.8516L48.2638 51.7874C48.2768 51.817 48.3773 51.9676 48.5044 52.1583C50.9311 55.7981 52.8969 59.5595 54.3471 63.3382C57.1318 70.5935 57.8309 77.3387 56.4251 83.3866Z" fill="#BEB8F2"/>
<path d="M59.2102 77.1917L59.0947 77.1012C65.6057 68.7832 77.3208 69.4522 77.4158 69.489L77.4627 69.5634L77.4047 69.6296L77.3893 69.559L77.3743 69.6291C77.2649 69.6118 65.7129 68.8844 59.2102 77.1917ZM77.3734 69.4862L77.389 69.5577L77.3734 69.4862Z" fill="#FCFDFE"/>
<path d="M46.9676 107.496L46.8103 107.473C47.2008 104.829 46.7514 100.198 42.3925 93.1569C42.1592 92.78 42.1592 92.78 42.1709 92.7344L42.3251 92.7742L42.248 92.7543L42.3241 92.7341C42.335 92.7616 42.4243 92.906 42.5278 93.0731C46.912 100.156 47.3622 104.826 46.9676 107.496Z" fill="#BEB8F2"/>
<path d="M48.691 102.625L48.5439 102.564C49.3504 100.613 52.0857 96.9179 61.3437 94.0881C61.4724 94.0487 61.5551 94.0236 61.5849 94.0122L61.6416 94.1609C61.6107 94.1728 61.5244 94.1992 61.3903 94.2403C52.1947 97.051 49.4868 100.7 48.691 102.625Z" fill="#BEB8F2"/>
<path d="M119.129 105.759L9.39697 104.81V107.617C9.39697 108.378 9.87558 109.026 10.5238 109.142L41.5527 114.668C41.921 114.734 42.2944 114.751 42.666 114.72L117.937 108.419C118.609 108.363 119.129 107.713 119.129 106.93V105.759Z" fill="#BFC8D6"/>
<path d="M78.7466 101.262L9.00298 106.396C7.75497 106.488 6.74023 105.512 6.74023 104.215V52.2791C6.74023 50.9828 7.75497 49.9319 9.00298 49.9319H78.7466C79.7748 49.9319 80.6061 50.8819 80.6061 52.0537V99.003C80.6061 100.175 79.7748 101.186 78.7466 101.262Z" fill="#BFC8D6"/>
<path d="M79.8594 101.262L10.1158 106.396C8.86774 106.488 7.85303 105.511 7.85303 104.215V52.2789C7.85303 50.9825 8.86774 49.9316 10.1158 49.9316H79.8594C80.8876 49.9316 81.7188 50.8816 81.7188 52.0535V99.0028C81.7188 100.175 80.8876 101.186 79.8594 101.262Z" fill="white"/>
<path d="M77.687 97.9517L12.7281 102.411C11.7125 102.481 10.8872 101.68 10.8872 100.622V55.1515C10.8872 54.0932 11.7125 53.2317 12.7281 53.2273L77.687 52.9473C78.5352 52.9436 79.2213 53.722 79.2213 54.686V96.1011C79.2213 97.0649 78.5352 97.8935 77.687 97.9517Z" fill="#D8DEE8"/>
<path d="M47.4505 51.3523C47.4505 51.8348 47.0915 52.2272 46.6482 52.2286C46.2044 52.23 45.8442 51.8391 45.8442 51.3554C45.8442 50.8717 46.2044 50.4793 46.6482 50.479C47.0915 50.4787 47.4505 50.8696 47.4505 51.3523Z" fill="white"/>
<path opacity="0.48" d="M10.1155 106.396L79.5063 101.287L79.8594 101.261C80.3311 101.227 80.7601 100.994 81.0877 100.64C76.0943 100.367 72.9928 98.5945 70.9921 96.7635C66.9743 93.0864 67.6712 89.4602 63.3384 87.0426C57.9343 84.0271 53.685 87.8481 49.5842 84.0782C47.098 81.7925 48.3186 80.0881 45.2594 76.6726C41.8711 72.8895 39.6651 74.1612 36.2599 70.7564C31.9543 66.4513 34.1077 63.1019 30.399 60.0109C25.8997 56.2612 21.0475 59.7318 16.7646 56.1357C14.9173 54.5847 13.9037 52.3298 13.3744 49.9316H10.1158C8.86777 49.9316 7.85303 50.9825 7.85303 52.2789V104.215C7.85303 105.511 8.86756 106.487 10.1155 106.396Z" fill="white"/>
<path d="M83.1456 100.976L9.39697 106.381L41.5527 112.108C41.921 112.173 42.2944 112.191 42.666 112.16L119.129 105.759L84.3187 101.013C83.9294 100.96 83.5368 100.948 83.1456 100.976Z" fill="url(#paint1_linear)"/>
<path d="M20.1577 106.427L81.5556 101.861L100.558 104.431L39.6887 109.312L20.1577 106.427Z" fill="#D8DEE8"/>
<path d="M90.1127 42.0591C90.1348 39.9252 88.6238 38.1742 86.7131 38.1498L18.6617 37.2821C18.5879 37.2812 18.5169 37.282 18.444 37.2849C17.0632 37.3386 15.8772 38.0611 15.1495 39.145C14.6909 39.8281 14.447 40.6543 14.4482 41.5494L14.4524 44.6476L14.517 92.8846C14.5174 93.1782 14.5247 93.4615 14.5814 93.734C14.5956 93.8021 14.6001 93.869 14.6176 93.9356C14.6875 94.2021 14.7777 94.4558 14.8968 94.6948C15.4031 95.7113 16.3262 96.4571 17.451 96.7295C17.849 96.8259 18.2705 96.8695 18.7087 96.8383L70.4045 93.1719L70.4041 93.1718L86.1847 92.0423C88.081 91.9075 89.6161 90.0879 89.6379 87.9855L90.0841 44.8287L90.1127 42.0591Z" fill="#B7C0CE"/>
<path d="M88.6625 38.0728L20.2446 37.2105C17.8811 37.1808 15.9559 39.0978 15.9585 41.4909L16.0154 92.9498C16.018 95.3034 17.9295 97.0749 20.2711 96.9092L88.1163 92.1081C90.0232 91.9732 91.5791 90.1563 91.6015 88.048L92.0918 41.9923C92.1146 39.8523 90.5838 38.097 88.6625 38.0728Z" fill="white"/>
<path d="M20.2693 95.5576C18.6793 95.6672 17.3793 94.4582 17.3779 92.8615L17.332 41.5001C17.3306 39.877 18.6398 38.5699 20.244 38.5871L88.6488 39.3177C89.9556 39.3316 91.0025 40.5285 90.9872 41.9852L90.504 88.1193C90.4889 89.5547 89.425 90.7944 88.1275 90.8838L20.2693 95.5576Z" fill="#F4F7FA"/>
<path d="M88.6621 38.0728L20.2441 37.2105C17.8807 37.1808 15.9554 39.0978 15.958 41.4909L15.9614 44.5967L92.0618 44.7698L92.0914 41.9923C92.1142 39.8523 90.5834 38.097 88.6621 38.0728Z" fill="#D8DEE8"/>
<path d="M23.5711 41.1261C23.571 41.9008 22.9517 42.5254 22.1864 42.5214C21.4194 42.5174 20.7962 41.8839 20.7959 41.1062C20.7956 40.3283 21.4187 39.7033 22.186 39.7103C22.9517 39.7173 23.5711 40.3512 23.5711 41.1261Z" fill="white"/>
<path d="M28.393 41.1606C28.3924 41.93 27.781 42.5505 27.0259 42.5465C26.2693 42.5426 25.655 41.9134 25.6553 41.141C25.6556 40.3684 26.2707 39.7475 27.0276 39.7545C27.783 39.7613 28.3936 40.391 28.393 41.1606Z" fill="white"/>
<path d="M33.1507 41.195C33.1495 41.9592 32.5458 42.5755 31.8009 42.5717C31.0544 42.5678 30.4488 41.9428 30.4497 41.1756C30.4506 40.4082 31.0578 39.7916 31.8046 39.7984C32.5499 39.8052 33.1519 40.4305 33.1507 41.195Z" fill="white"/>
<path d="M87.6798 78.0754L20.968 81.3499L20.9585 52.8971L87.9383 52.2734L87.6798 78.0754Z" fill="url(#paint2_linear)"/>
<path d="M87.6348 82.5069L20.969 86.2343L20.9683 84.0662L87.6545 80.5398L87.6348 82.5069Z" fill="#D8DEE8"/>
<path d="M87.5876 87.3272L20.9719 91.5465L20.9712 89.382L87.6073 85.363L87.5876 87.3272Z" fill="#D8DEE8"/>
<path d="M57.5037 48.0549L20.9565 48.1529L20.9573 50.3452L57.4926 50.1353L57.5037 48.0549Z" fill="#D8DEE8"/>
<path d="M84.263 47.9834L84.2441 49.9818L87.9607 49.9604L87.9806 47.9734L84.263 47.9834Z" fill="#D8DEE8"/>
<g opacity="0.3">
<path opacity="0.3" d="M62.3698 64.6102C54.493 53.0702 40.6004 57.2288 31.7582 44.2947C30.1529 41.9464 29.0624 39.5402 28.3139 37.3122L20.2441 37.2105C17.8807 37.1808 15.9554 39.0978 15.958 41.4909L16.0149 92.9499C16.0175 95.3035 17.9291 97.075 20.2706 96.9093L72.2371 93.2319C70.7328 91.0703 69.3445 88.6362 68.1722 85.8943C63.6561 75.3309 67.0833 71.5157 62.3698 64.6102Z" fill="white"/>
</g>
<path d="M88.6131 115.148C88.6131 115.148 84.899 116.847 84.839 117.117C84.7789 117.387 87.2299 117.021 88.2309 117.057C89.2319 117.094 90.0546 116.796 89.963 116.372C89.8713 115.949 89.5184 114.883 89.5184 114.883L88.6131 115.148Z" fill="url(#paint3_linear)"/>
<path d="M88.4746 113.778L88.7048 115.451C88.7048 115.451 89.2939 115.659 89.6887 115.41L89.853 113.574L88.4746 113.778Z" fill="url(#paint4_linear)"/>
<path d="M105.985 113.776L106.419 114.469C106.54 114.663 106.577 114.896 106.519 115.118C106.37 115.696 106.07 116.821 105.939 117.115C105.761 117.515 103.355 117.758 103.355 117.758C103.355 117.758 103.14 117.457 103.639 117.091C104.137 116.725 104.458 116.667 104.633 116.128C104.808 115.59 104.922 114.067 104.922 114.067L105.985 113.776Z" fill="url(#paint5_linear)"/>
<path d="M104.18 112.015C104.338 112.141 105.116 114.485 105.116 114.485C105.116 114.485 105.367 114.804 105.841 114.331C106.315 113.858 106.056 114.119 106.056 114.119L105.961 111.812L104.18 112.015Z" fill="url(#paint6_linear)"/>
<path d="M86.3483 80.1492C86.1641 85.1433 86.1691 90.5687 86.4704 96.3639C86.8096 102.89 87.4742 108.921 88.3066 114.387C88.6112 114.396 88.9312 114.397 89.2655 114.386C89.4913 114.38 89.71 114.368 89.9214 114.353C90.3438 113.218 90.8428 111.726 91.2885 109.944C91.7571 108.07 92.0385 106.389 92.238 104.782C92.9404 99.1247 92.1001 98.6332 92.6712 94.4402C93.1768 90.7267 93.9083 90.5799 94.7548 85.3072C95.6732 79.5862 94.9772 78.7299 94.639 78.4207C93.1993 77.1047 89.827 78.0111 86.3483 80.1492Z" fill="url(#paint7_linear)"/>
<path opacity="0.3" d="M94.6389 78.4207C93.2658 77.1655 90.1341 77.935 86.8291 79.8637C90.6464 83.9681 91.0679 86.6356 90.6155 88.3681C90.1044 90.3263 88.5374 90.8936 88.5485 93.0334C88.5622 95.663 90.9371 96.3538 90.8933 99.1366C90.8644 100.977 89.8215 100.96 89.5807 103.233C89.2958 105.923 90.6604 106.846 90.2239 108.837C90.0361 109.693 89.497 110.813 87.9565 111.969C88.0697 112.785 88.1858 113.594 88.3066 114.387C88.6111 114.396 88.9311 114.397 89.2654 114.386C89.4912 114.38 89.71 114.368 89.9212 114.353C90.3437 113.218 90.8427 111.726 91.2884 109.944C91.757 108.07 92.0384 106.389 92.2379 104.782C92.9403 99.1247 92.1001 98.6333 92.6711 94.4402C93.1768 90.7267 93.9083 90.5799 94.7547 85.3072C95.6731 79.586 94.9772 78.7298 94.6389 78.4207Z" fill="url(#paint8_linear)"/>
<path d="M88.7056 80.0598C91.9954 84.8487 95.5457 90.8101 98.7251 97.9481C101.128 103.342 102.873 108.408 104.157 112.924C104.329 113.003 104.735 113.161 105.254 113.091C105.962 112.996 106.385 112.543 106.496 112.417C107.006 109.176 106.942 106.433 106.762 104.454C106.646 103.186 106.442 101.076 105.628 98.4714C104.716 95.5544 104.093 95.3919 102.905 92.3062C101.672 89.1035 101.967 88.3028 100.783 84.2939C100.297 82.647 99.4842 80.1965 98.1454 77.2661C94.9988 78.1973 91.8521 79.1286 88.7056 80.0598Z" fill="url(#paint9_linear)"/>
<path d="M75.3422 73.3031C75.3733 74.4684 77.2886 75.4948 78.8307 75.8096C82.4363 76.5455 86.6166 73.9256 88.6007 71.0275C88.9903 70.4584 89.4232 69.7685 89.5276 69.8219C89.7635 69.9427 87.5959 73.5041 86.656 77.5548C86.1752 79.627 86.3011 80.5975 85.4022 81.9771C85.1986 82.2896 84.9476 82.615 85.0358 82.9847C85.2566 83.9106 87.3742 84.1511 88.8431 84.3179C90.394 84.4939 91.8401 84.4769 93.2698 84.456C95.5585 84.4226 95.7387 84.3037 96.2611 84.5601C97.853 85.3414 97.7451 87.2133 98.943 87.4629C99.949 87.6726 100.97 86.5492 101.293 86.193C102.975 84.3416 102.885 82.1095 103.183 79.8581C103.877 74.6237 106.721 68.889 109.502 65.2587C110.346 64.1578 110.933 63.5786 110.969 62.5554C111.077 59.5516 106.318 56.2359 102.356 55.8549C101.27 55.7505 99.3259 55.7833 97.5029 55.9552C96.7743 56.0238 95.9986 56.1249 95.1648 56.2708C93.1428 56.6245 91.7352 56.8707 90.3007 57.527C84.5162 60.1737 85.7785 66.0652 79.5177 70.1387C77.3648 71.5392 75.3096 72.0828 75.3422 73.3031Z" fill="#E38DDD"/>
<path d="M99.0435 52.7385C99.0435 52.7385 99.2919 54.125 99.8637 55.112C100.381 56.004 102.518 56.3237 102.963 56.479C103.408 56.6342 102.291 57.4096 101.103 57.6907C99.9157 57.9719 96.4415 58.1557 95.7611 57.7817C95.0807 57.4078 96.203 57.2935 97.0202 56.8638C97.8375 56.4342 98.1109 54.6876 97.8578 53.9451C97.6047 53.2024 99.0435 52.7385 99.0435 52.7385Z" fill="url(#paint10_linear)"/>
<path d="M96.7855 52.3371C95.9236 51.7211 95.6849 50.0554 96.1636 49.6815C96.3004 49.5746 96.4311 49.6237 98.3762 50.4039C99.3421 50.7914 99.8173 50.9977 99.9737 51.4243C100.069 51.6847 100.054 52.0365 99.9483 52.3137C99.8939 52.4563 99.7881 52.6339 99.5526 52.9728C99.3437 53.2735 99.3577 53.2633 99.2937 53.3507C99.1398 53.5607 98.843 53.9142 98.2991 54.324C98.2688 54.1707 98.221 53.9804 98.1409 53.7729C98.1101 53.6931 97.9859 53.3811 97.7889 53.1182C97.4498 52.6658 97.0652 52.5371 96.7855 52.3371Z" fill="url(#paint11_linear)"/>
<path d="M98.9945 53.9216C98.9945 53.9216 98.4306 54.7617 97.3861 54.6477C96.4508 54.5456 96.4055 52.4364 97.0241 52.0162C97.2304 51.876 97.6334 51.8318 97.9549 51.9372C98.1448 51.9995 98.2063 52.0823 98.5186 52.1779C98.8065 52.2662 98.8903 52.2375 98.9749 52.3154C99.0809 52.4128 99.1515 52.6432 98.9409 53.2501C99.1278 53.0767 99.3457 53.0166 99.4947 53.0951C99.5184 53.1076 99.5809 53.1543 99.6142 53.2222C99.7348 53.4682 99.5021 53.7654 98.9945 53.9216Z" fill="url(#paint12_linear)"/>
<path opacity="0.3" d="M80.3999 73.1239C83.0142 72.5351 84.0558 72.5541 85.3487 71.5125C87.5011 69.7782 87.8243 67.1387 89.0751 67.1709C89.6662 67.1862 90.1464 67.7899 90.4881 68.381C90.1732 68.8741 89.8584 69.3673 89.5435 69.8604C89.5422 69.8417 89.538 69.8271 89.5275 69.8218C89.4232 69.7684 88.9903 70.4583 88.6007 71.0274C86.6166 73.9255 82.4363 76.5454 78.8306 75.8095C77.7968 75.5985 76.5978 75.0668 75.9087 74.3887C77.6882 73.7876 79.2081 73.3923 80.3999 73.1239Z" fill="url(#paint13_linear)"/>
<path d="M76.1424 76.0377C76.1424 76.0377 74.6672 75.891 73.7882 75.5149C72.9092 75.1388 72.3414 75.6788 72.4222 76.0527C72.5029 76.4265 73.9491 76.9469 74.5268 76.9656C75.1046 76.9843 76.1424 76.0377 76.1424 76.0377Z" fill="url(#paint14_linear)"/>
<path d="M107.913 83.1742C109.496 83.3155 113.062 83.38 115.583 81.0472C119.781 77.1639 117.698 69.772 116.237 66.5929C114.562 62.948 111.896 60.9078 110.275 59.668C108.265 58.1297 107.038 57.1909 105.562 57.4011C101.744 57.9448 99.0996 65.7697 101.195 68.01C101.882 68.7434 102.561 68.3281 104.547 68.9605C105.193 69.1665 110.02 70.7037 110.86 74.2584C111.448 76.7464 109.951 79.6596 107.286 81.6162C107.495 82.1356 107.704 82.6549 107.913 83.1742Z" fill="#E38DDD"/>
<path opacity="0.3" d="M90.1601 81.8851C91.9532 80.752 92.2184 79.6036 94.2263 78.8276C96.8346 77.8195 98.0881 79.1001 99.3813 78.0662C100.92 76.8357 99.5579 74.6921 100.71 70.9722C100.905 70.3407 102.39 65.545 105.796 64.934C107.385 64.6491 109.483 65.2577 110.292 66.6039C110.924 67.6574 110.335 68.4428 111.104 69.6059C111.873 70.7682 112.793 70.4839 113.773 71.4533C115.329 72.9927 115.567 76.2386 114.162 78.0743C113.507 78.9305 112.656 79.2691 111.053 79.9063C110.075 80.2954 109.165 80.5374 108.381 80.6911C110.343 78.8081 111.361 76.3795 110.86 74.2583C110.336 72.0424 108.264 70.6107 106.62 69.7966C104.975 72.8919 103.631 76.4786 103.183 79.8576C102.885 82.109 102.975 84.3412 101.293 86.1925C100.969 86.5487 99.949 87.6721 98.943 87.4624C97.7451 87.2128 97.8529 85.3409 96.261 84.5597C95.7386 84.3032 95.5584 84.4221 93.2697 84.4555C91.84 84.4764 90.3939 84.4935 88.843 84.3174C87.5367 84.1691 85.7207 83.9612 85.1787 83.266C87.537 83.2018 89.1109 82.5482 90.1601 81.8851Z" fill="url(#paint15_linear)"/>
<path d="M106.873 84.419L107.058 83.8762C107.352 83.0109 106.868 82.088 105.978 81.8168L71.0762 71.1851L70.0127 74.7897L104.738 85.4855C105.624 85.7583 106.58 85.2816 106.873 84.419Z" fill="url(#paint16_linear)"/>
<path d="M36.3932 61.4192C39.0617 50.8769 49.5186 44.5236 59.8601 47.5011C70.3914 50.5334 76.4207 61.944 73.221 72.7002C70.0964 83.2039 59.3811 88.8703 49.3823 85.6296C39.5563 82.4449 33.7854 71.7218 36.3932 61.4192ZM70.1833 71.7697C72.8278 62.768 67.7821 53.2338 58.9878 50.6754C50.3264 48.1557 41.5267 53.4446 39.256 62.2962C37.0289 70.978 41.8923 80.0274 50.1892 82.6932C58.609 85.3985 67.5909 80.5941 70.1833 71.7697Z" fill="url(#paint17_linear)"/>
<path opacity="0.3" d="M71.0762 71.1851L75.5263 72.5407C75.8317 73.96 76.4253 74.7731 77.0228 75.2684C79.2706 77.1318 82.2721 75.0995 86.4596 77.2844C88.5609 78.3808 88.1617 79.0786 90.1313 79.8436C93.3875 81.1083 94.8781 79.3564 97.7599 80.5076C100.675 81.672 100.962 84.1883 102.615 84.098C103.322 84.0594 104.233 83.5449 105.248 81.5944L105.978 81.8168C106.868 82.088 107.352 83.0108 107.058 83.8763L106.873 84.419C106.58 85.2815 105.624 85.7582 104.738 85.4854L70.0127 74.7896L71.0762 71.1851Z" fill="#D8DEE8"/>
<path d="M35.7174 62.3233C38.3859 51.781 48.8428 45.4276 59.1844 48.4052C69.7157 51.4374 75.745 62.8481 72.5453 73.6043C69.4207 84.1081 58.7054 89.7745 48.7065 86.5337C38.8805 83.349 33.1096 72.6259 35.7174 62.3233ZM69.5075 72.6738C72.152 63.6721 67.1063 54.1379 58.3121 51.5795C49.6506 49.0598 40.851 54.3486 38.5802 63.2002C36.3531 71.8821 41.2165 80.9315 49.5135 83.5973C57.9332 86.3025 66.9151 81.4982 69.5075 72.6738Z" fill="url(#paint18_linear)"/>
<path d="M36.7285 62.6329C39.2576 52.6886 49.1291 46.7137 58.8754 49.5303C68.7901 52.3955 74.4708 63.1403 71.4693 73.2746C68.5344 83.1845 58.4329 88.548 48.9916 85.4974C39.7044 82.4965 34.2537 72.3635 36.7285 62.6329ZM69.5078 72.6737C72.1522 63.672 67.1066 54.1378 58.3123 51.5795C49.6509 49.0597 40.8512 54.3486 38.5805 63.2002C36.3534 71.882 41.2168 80.9314 49.5137 83.5972C57.9335 86.3025 66.9154 81.4981 69.5078 72.6737Z" fill="url(#paint19_linear)"/>
<path d="M107.779 82.8402L107.426 81.9636C107.426 81.9636 106.85 81.9987 106.378 81.6599C106.12 81.4752 105.663 81.4202 105.53 81.4571C105.398 81.4939 104.896 81.472 105.468 81.7447C106.039 82.0174 106.035 82.22 105.797 82.4439C105.558 82.6677 104.652 83.1492 104.325 83.1724C103.999 83.1956 104.589 83.7003 104.918 83.7648C105.247 83.8292 105.787 83.9107 106.455 83.5176C106.698 83.3742 107.779 82.8402 107.779 82.8402Z" fill="url(#paint20_linear)"/>
<defs>
<linearGradient id="paint0_linear" x1="63.5743" y1="30.5464" x2="41.0848" y2="68.8809" gradientUnits="userSpaceOnUse">
<stop stop-color="#FFC444"/>
<stop offset="0.9964" stop-color="#F36F56"/>
</linearGradient>
<linearGradient id="paint1_linear" x1="9.39697" y1="106.568" x2="119.129" y2="106.568" gradientUnits="userSpaceOnUse">
<stop offset="0.494" stop-color="#EBEFF2"/>
<stop offset="1" stop-color="white"/>
</linearGradient>
<linearGradient id="paint2_linear" x1="20.9585" y1="66.8117" x2="87.9383" y2="66.8117" gradientUnits="userSpaceOnUse">
<stop stop-color="#FF9085"/>
<stop offset="1" stop-color="#F36F56"/>
</linearGradient>
<linearGradient id="paint3_linear" x1="86.7976" y1="109.29" x2="87.7495" y2="121.043" gradientUnits="userSpaceOnUse">
<stop stop-color="#311944"/>
<stop offset="1" stop-color="#A03976"/>
</linearGradient>
<linearGradient id="paint4_linear" x1="89.1987" y1="115.829" x2="89.0016" y2="103.654" gradientUnits="userSpaceOnUse">
<stop stop-color="#FFC444"/>
<stop offset="0.9964" stop-color="#F36F56"/>
</linearGradient>
<linearGradient id="paint5_linear" x1="104.25" y1="107.877" x2="105.202" y2="119.63" gradientUnits="userSpaceOnUse">
<stop stop-color="#311944"/>
<stop offset="1" stop-color="#A03976"/>
</linearGradient>
<linearGradient id="paint6_linear" x1="105.194" y1="115.57" x2="104.997" y2="103.395" gradientUnits="userSpaceOnUse">
<stop stop-color="#FFC444"/>
<stop offset="0.9964" stop-color="#F36F56"/>
</linearGradient>
<linearGradient id="paint7_linear" x1="86.2457" y1="96.1116" x2="95.248" y2="96.09" gradientUnits="userSpaceOnUse">
<stop stop-color="#444B8C"/>
<stop offset="0.9964" stop-color="#3E4177"/>
</linearGradient>
<linearGradient id="paint8_linear" x1="86.2456" y1="96.112" x2="95.2478" y2="96.0904" gradientUnits="userSpaceOnUse">
<stop stop-color="#444B8C"/>
<stop offset="0.9964" stop-color="#3E4177"/>
</linearGradient>
<linearGradient id="paint9_linear" x1="88.7419" y1="95.2182" x2="106.864" y2="95.1748" gradientUnits="userSpaceOnUse">
<stop stop-color="#444B8C"/>
<stop offset="0.9964" stop-color="#3E4177"/>
</linearGradient>
<linearGradient id="paint10_linear" x1="99.1448" y1="58.5119" x2="97.2216" y2="75.477" gradientUnits="userSpaceOnUse">
<stop stop-color="#FFC444"/>
<stop offset="0.9964" stop-color="#F36F56"/>
</linearGradient>
<linearGradient id="paint11_linear" x1="100.2" y1="57.7645" x2="97.4874" y2="49.7816" gradientUnits="userSpaceOnUse">
<stop stop-color="#444B8C"/>
<stop offset="0.9964" stop-color="#3E4177"/>
</linearGradient>
<linearGradient id="paint12_linear" x1="97.9472" y1="51.8562" x2="99.4583" y2="64.3566" gradientUnits="userSpaceOnUse">
<stop stop-color="#FFC444"/>
<stop offset="0.9964" stop-color="#F36F56"/>
</linearGradient>
<linearGradient id="paint13_linear" x1="75.9087" y1="71.5528" x2="90.4881" y2="71.5528" gradientUnits="userSpaceOnUse">
<stop stop-color="#FFC444"/>
<stop offset="0.9964" stop-color="#F36F56"/>
</linearGradient>
<linearGradient id="paint14_linear" x1="74.5663" y1="75.3774" x2="69.2833" y2="86.0903" gradientUnits="userSpaceOnUse">
<stop stop-color="#FFC444"/>
<stop offset="0.9964" stop-color="#F36F56"/>
</linearGradient>
<linearGradient id="paint15_linear" x1="85.1787" y1="76.1768" x2="115.09" y2="76.1768" gradientUnits="userSpaceOnUse">
<stop stop-color="#FFC444"/>
<stop offset="0.9964" stop-color="#F36F56"/>
</linearGradient>
<linearGradient id="paint16_linear" x1="70.0127" y1="78.3737" x2="107.144" y2="78.3737" gradientUnits="userSpaceOnUse">
<stop stop-color="#444B8C"/>
<stop offset="0.9964" stop-color="#26264F"/>
</linearGradient>
<linearGradient id="paint17_linear" x1="35.7671" y1="66.6531" x2="74.0794" y2="66.6531" gradientUnits="userSpaceOnUse">
<stop stop-color="#444B8C"/>
<stop offset="0.9964" stop-color="#26264F"/>
</linearGradient>
<linearGradient id="paint18_linear" x1="49.7519" y1="88.1859" x2="55.9135" y2="59.8887" gradientUnits="userSpaceOnUse">
<stop stop-color="#444B8C"/>
<stop offset="0.9964" stop-color="#26264F"/>
</linearGradient>
<linearGradient id="paint19_linear" x1="58.9155" y1="46.7759" x2="50.3166" y2="84.7252" gradientUnits="userSpaceOnUse">
<stop stop-color="#444B8C"/>
<stop offset="0.9964" stop-color="#26264F"/>
</linearGradient>
<linearGradient id="paint20_linear" x1="105.103" y1="85.3598" x2="106.611" y2="81.4698" gradientUnits="userSpaceOnUse">
<stop stop-color="#FFC444"/>
<stop offset="0.9964" stop-color="#F36F56"/>
</linearGradient>
</defs>
</svg>
