<svg width="137" height="110" viewBox="0 0 137 110" fill="none" xmlns="http://www.w3.org/2000/svg">
<path d="M109.09 86.7922C87.8386 113.975 38.07 114.412 24.2924 99.3126C18.7937 93.2872 10.4996 87.4477 8.36543 72.2467C7.33805 64.9291 10.3727 56.3482 10.2855 52.3013C9.9847 38.5351 13.4954 29.8246 15.7116 25.1416C22.0593 11.7365 44.1103 6.51917 58.3631 6.27713C59.3579 6.25994 60.3618 6.26657 61.3735 6.29697C78.0625 6.79424 96.8947 13.7414 108.509 28.5867C109.71 30.1182 110.831 31.7344 111.866 33.4364C122.468 50.8699 120.684 71.9641 109.09 86.7922Z" fill="white"/>
<path d="M74.517 60.5448C77.295 58.5832 77.7917 53.4445 77.1116 49.996C76.3174 45.9697 74.2377 45.863 73.8638 42.6836C73.1675 36.7641 80.0913 34.7062 79.8626 28.6809C79.6756 23.7553 74.9775 23.2615 75.0186 17.7973C75.0483 13.8545 77.5089 12.2164 76.4037 8.776C76.3092 8.48187 75.2449 5.32461 72.5484 4.58667C69.8268 3.84192 67.0343 5.9974 65.6534 7.73362C63.1007 10.943 64.9903 13.1986 63.3604 18.1136C61.1414 24.8051 56.3254 24.585 55.7099 29.8499C55.2016 34.1975 58.3683 35.3503 57.709 40.1596C57.0967 44.6254 54.1436 45.2542 54.0196 48.2981C53.7343 55.3007 68.8509 64.546 74.517 60.5448Z" fill="#D8DEE8"/>
<g opacity="0.7">
<path opacity="0.7" d="M70.5116 63.8342C70.4952 63.8342 70.4785 63.8299 70.4633 63.821C67.8558 62.2894 65.6831 60.2794 64.0054 57.8468C62.414 55.5393 60.7688 53.1537 60.9016 50.1699C61.0025 47.8997 62.0588 46.6869 63.3962 45.1515C64.6712 43.6876 66.2581 41.8656 67.3683 38.4913C68.0021 36.5652 68.7908 34.1681 68.1827 31.2984C67.8298 29.6328 67.1781 28.6903 66.603 27.8588C66.0008 26.9879 65.4807 26.2358 65.5801 24.9454C65.7393 22.8785 66.8432 21.5584 68.1214 20.0299C68.8966 19.1029 69.6982 18.1444 70.4011 16.8995C72.3771 13.4 72.4295 8.68864 70.5569 2.89644C70.5407 2.84625 70.5683 2.79241 70.6184 2.77617C70.6687 2.75986 70.7225 2.78753 70.7387 2.83767C72.6284 8.68278 72.5708 13.4455 70.5674 16.9935C69.8559 18.2535 69.0487 19.2189 68.268 20.1524C67.0108 21.6558 65.9251 22.9541 65.7706 24.9601C65.6764 26.1829 66.1546 26.8745 66.7602 27.7501C67.3454 28.5965 68.0087 29.5557 68.3696 31.2588C68.9883 34.1789 68.1907 36.6031 67.5498 38.551C66.4275 41.962 64.8266 43.8 63.5402 45.277C62.2274 46.7843 61.1904 47.9748 61.0924 50.1784C60.9625 53.0981 62.5892 55.4569 64.1623 57.738C65.8243 60.1478 67.9767 62.1389 70.56 63.6563C70.6056 63.683 70.6208 63.7416 70.5941 63.787C70.5763 63.8173 70.5444 63.8342 70.5116 63.8342Z" fill="white"/>
</g>
<g opacity="0.7">
<path opacity="0.7" d="M68.4701 32.7585C68.4438 32.7585 68.4177 32.7477 68.3988 32.7266C68.3637 32.6873 68.3671 32.6269 68.4064 32.5917C72.825 28.6435 74.9011 24.9806 75.8647 22.603C76.9082 20.0281 76.9077 18.3647 76.9075 18.3482C76.9071 18.2955 76.9495 18.2524 77.0022 18.252C77.0025 18.252 77.0028 18.252 77.003 18.252C77.0554 18.252 77.0981 18.2941 77.0986 18.3466C77.0992 18.4152 77.1011 20.0554 76.0467 22.6623C75.0763 25.0616 72.9852 28.7565 68.5337 32.7342C68.5155 32.7505 68.4927 32.7585 68.4701 32.7585Z" fill="white"/>
</g>
<g opacity="0.7">
<path opacity="0.7" d="M66.3451 41.2951C66.3238 41.2951 66.3024 41.2881 66.2847 41.2736C63.8182 39.2584 61.9428 36.9726 60.7106 34.4797C59.7242 32.484 59.1457 30.3523 58.9912 28.1437C58.7279 24.3829 59.8034 21.6633 59.8143 21.6362C59.8341 21.5873 59.8896 21.5637 59.9386 21.5833C59.9875 21.6031 60.0112 21.6587 59.9915 21.7076C59.9807 21.7343 58.9201 24.4202 59.1823 28.1393C59.4242 31.569 60.8736 36.6061 66.4055 41.1257C66.4464 41.159 66.4524 41.2192 66.4191 41.2601C66.4002 41.2832 66.3727 41.2951 66.3451 41.2951Z" fill="white"/>
</g>
<g opacity="0.7">
<path opacity="0.7" d="M62.3084 55.3992C62.2671 55.3992 62.229 55.3722 62.2168 55.3305C62.2019 55.2799 62.2309 55.2268 62.2815 55.212C68.7968 53.3005 72.1943 49.8273 73.8972 47.2503C75.7396 44.4622 76.048 42.1013 76.0509 42.0777C76.0574 42.0254 76.1056 41.9882 76.1574 41.9946C76.2098 42.0011 76.247 42.0488 76.2405 42.1011C76.2376 42.1251 75.9234 44.5306 74.0566 47.3556C72.3361 49.9592 68.906 53.4675 62.3353 55.3953C62.3263 55.3979 62.3173 55.3992 62.3084 55.3992Z" fill="white"/>
</g>
<g opacity="0.7">
<path opacity="0.7" d="M70.7023 16.3791C70.6765 16.3791 70.6509 16.3687 70.632 16.3483C66.9056 12.3075 66.4518 8.09122 66.7273 5.26572C67.0257 2.20539 68.223 0.0695453 68.235 0.0483383C68.2611 0.00247452 68.3195 -0.0135677 68.3652 0.0124813C68.4111 0.03852 68.4272 0.0968288 68.4011 0.142693C68.3892 0.163619 67.2097 2.27018 66.9167 5.29214C66.6467 8.0767 67.0965 12.2327 70.7725 16.2188C70.8082 16.2576 70.8058 16.318 70.767 16.3538C70.7486 16.3707 70.7254 16.3791 70.7023 16.3791Z" fill="white"/>
</g>
<path d="M63.7091 78.1746C64.4146 78.2747 66.0376 77.8704 66.4172 77.5906C68.9436 75.7284 73.9002 72.5491 74.5937 69.3045C74.7121 68.7504 72.4151 67.5714 72.2118 66.9766C70.9297 65.8694 70.4163 65.5649 69.7146 63.9135C67.6429 59.0383 76.9586 53.5306 69.2605 48.5648C63.6217 44.9274 57.8211 45.6142 61.1311 36.2153C64.4411 26.8163 61.6642 7.25679 49.7002 11.147C42.8339 13.3796 46.4788 23.156 41.8312 28.3414C37.4148 33.2688 38.5376 38.6395 43.6586 43.7426C48.7796 48.8457 44.8107 50.5857 41.5486 55.5265C37.6301 61.4614 47.3405 65.3861 51.9781 66.8157C55.7127 67.9668 64.4456 73.4176 63.7091 78.1746Z" fill="url(#paint0_linear)"/>
<g opacity="0.7">
<g opacity="0.7">
<path opacity="0.7" d="M70.3443 73.6994L70.4445 73.5858C52.9426 58.1461 46.4978 33.9955 53.2045 8.98315L53.0581 8.94385C49.8797 20.7979 49.6606 32.9209 52.4246 44.0021C55.3305 55.6519 61.527 65.921 70.3443 73.6994Z" fill="#FCFDFE"/>
<path opacity="0.7" d="M39.6366 57.807C46.0129 57.5032 55.8064 60.1513 61.4679 63.71L61.5485 63.5817C55.8647 60.009 46.0319 57.3507 39.6294 57.6557L39.6366 57.807Z" fill="#FCFDFE"/>
<path opacity="0.7" d="M66.9432 70.6291L67.0709 70.5477C65.2037 67.6158 64.8904 63.8526 66.1397 59.3627C67.0557 56.0705 68.7749 52.4714 71.2498 48.6653L71.1227 48.5828C68.6395 52.4018 66.9138 56.015 65.9937 59.3221C64.7323 63.8552 65.0518 67.6594 66.9432 70.6291Z" fill="#FCFDFE"/>
<path opacity="0.7" d="M52.0934 42.414L52.2253 42.3393C48.9899 36.6319 42.7787 33.6291 38.1378 32.115L38.0908 32.2591C42.7062 33.7649 48.882 36.749 52.0934 42.414Z" fill="#FCFDFE"/>
<path opacity="0.7" d="M50.478 27.4827L50.6267 27.5123C52.0736 20.2645 57.8912 15.1319 61.2301 12.7176L61.1413 12.5947C57.7844 15.0222 51.9352 20.1841 50.478 27.4827Z" fill="#FCFDFE"/>
</g>
</g>
<path d="M136.769 99.0434L24.2544 98.0635V100.963C24.2544 101.75 24.7451 102.419 25.4098 102.538L57.2256 108.248C57.6032 108.316 57.9861 108.334 58.3671 108.301L135.547 101.792C136.236 101.734 136.769 101.062 136.769 100.254V99.0434Z" fill="url(#paint1_linear)"/>
<path d="M100.549 94.3435L25.4922 99.6477C24.1492 99.7426 23.0571 98.7341 23.0571 97.3948V43.7382C23.0571 42.3989 24.1492 41.3132 25.4922 41.3132H100.549C101.655 41.3132 102.55 42.2947 102.55 43.5054V92.0099C102.55 93.2206 101.655 94.2653 100.549 94.3435Z" fill="url(#paint2_linear)"/>
<path d="M101.746 94.3435L26.6895 99.6477C25.3464 99.7426 24.2544 98.7341 24.2544 97.3948V43.7382C24.2544 42.3989 25.3464 41.3132 26.6895 41.3132H101.746C102.853 41.3132 103.747 42.2947 103.747 43.5054V92.0099C103.747 93.2206 102.853 94.2653 101.746 94.3435Z" fill="url(#paint3_linear)"/>
<path d="M99.4076 90.9237L29.5002 95.5311C28.4072 95.6031 27.519 94.7754 27.519 93.682V46.7057C27.519 45.6123 28.4072 44.7223 29.5002 44.7178L99.4076 44.4285C100.32 44.4247 101.059 45.2289 101.059 46.2248V89.0118C101.059 90.0076 100.32 90.8636 99.4076 90.9237Z" fill="url(#paint4_linear)"/>
<path d="M66.8688 42.781C66.8688 43.2796 66.4824 43.6849 66.0054 43.6864C65.5278 43.6879 65.1401 43.284 65.1401 42.7843C65.1401 42.2846 65.5278 41.8792 66.0054 41.8789C66.4824 41.8785 66.8688 42.2824 66.8688 42.781Z" fill="white"/>
<path opacity="0.48" d="M83.6624 79.6273C77.8762 76.5141 73.3265 80.4589 68.9358 76.5667C66.2738 74.207 67.5807 72.4474 64.3053 68.921C60.6774 65.0154 58.3155 66.3282 54.6696 62.8131C50.0595 58.3684 52.3652 54.9104 48.3943 51.7193C43.5769 47.848 38.3817 51.4311 33.7959 47.7184C31.818 46.1171 30.7328 43.7891 30.1661 41.3132H25.6792C24.8929 41.3132 24.2544 41.9505 24.2544 42.7366V98.3563C24.2544 99.1424 24.8929 99.7343 25.6792 99.6785L102.174 94.2488C102.549 94.2221 102.882 94.0029 103.096 93.6852C97.4964 93.4811 94.0562 91.6039 91.8572 89.6633C87.5553 85.867 88.3015 82.1233 83.6624 79.6273Z" fill="white"/>
<path d="M99.8733 94.1027L24.2544 99.6859L57.2256 105.603C57.6032 105.67 57.9861 105.688 58.3671 105.656L136.769 99.0434L101.076 94.1407C100.677 94.0858 100.274 94.0731 99.8733 94.1027Z" fill="url(#paint5_linear)"/>
<path opacity="0.3" d="M35.2886 99.8263L98.2435 95.1089L117.728 97.7636L55.3149 102.806L35.2886 99.8263Z" fill="url(#paint6_linear)"/>
<path d="M111.253 70.8101L52.4709 73.2846C50.8097 73.3545 49.4575 74.8366 49.4575 76.5946V88.5111C49.4575 90.2691 50.8097 91.6033 52.4709 91.4916L111.253 87.5381C112.649 87.4442 113.776 86.0694 113.776 84.467V73.6053C113.776 72.0029 112.649 70.7513 111.253 70.8101Z" fill="url(#paint7_linear)"/>
<path d="M94.5403 77.0253L55.1768 79.0007V77.0573L94.5403 75.188V77.0253Z" fill="white"/>
<path d="M94.5403 80.0878L55.1768 82.2401V80.2966L94.5403 78.2505V80.0878Z" fill="white"/>
<path d="M77.2529 84.173L55.1768 85.4792V83.5357L77.2529 82.2891V84.173Z" fill="white"/>
<path d="M120.617 78.3713C120.617 85.1542 115.867 90.9994 109.913 91.4338C103.851 91.8762 98.8545 86.5596 98.8545 79.5515C98.8545 72.5434 103.851 66.6849 109.913 66.4697C115.867 66.2583 120.617 71.5884 120.617 78.3713Z" fill="url(#paint8_linear)"/>
<path d="M119.427 78.4354C119.427 84.4644 115.201 89.6514 109.913 90.0261C104.54 90.4068 100.12 85.6888 100.12 79.4825C100.12 73.2762 104.54 68.0787 109.913 67.8767C115.201 67.6778 119.427 72.4064 119.427 78.4354Z" fill="white"/>
<path d="M23.7578 49.3239L87.3205 48.7757C88.8249 48.7627 90.0396 50.1006 90.0396 51.7638V63.0379C90.0396 64.7011 88.8249 66.0905 87.3205 66.1413L23.7578 68.2888C21.9553 68.3497 20.4878 66.9146 20.4878 65.0831V52.6684C20.4878 50.8369 21.9553 49.3395 23.7578 49.3239Z" fill="white"/>
<path d="M44.145 55.0789L84.8405 54.3988V52.5315L44.145 53.1019V55.0789Z" fill="#D8DEE8"/>
<path d="M44.145 58.374L84.8405 57.5111V55.6438L44.145 56.397V58.374Z" fill="#D8DEE8"/>
<path d="M63.1597 61.1801L84.8411 60.6229V58.7556L63.1597 59.2544V61.1801Z" fill="#D8DEE8"/>
<path d="M11.3491 58.7288C11.3491 66.657 17.7372 72.8318 25.472 72.5263C33.0509 72.2269 39.0836 65.7942 39.0836 58.153C39.0836 50.5119 33.0509 44.3296 25.472 44.345C17.7372 44.3607 11.3491 50.8007 11.3491 58.7288Z" fill="url(#paint9_linear)"/>
<path d="M12.9673 58.6957C12.9673 65.715 18.6165 71.1942 25.4713 70.9379C32.2033 70.6862 37.5729 64.9783 37.5729 58.1848C37.5729 51.3913 32.2033 45.9064 25.4713 45.9342C18.6165 45.9626 12.9673 51.6763 12.9673 58.6957Z" fill="white"/>
<path d="M24.4268 42.3868C21.8453 43.976 18.704 43.5541 12.527 42.6455C6.56142 41.768 3.57865 41.3292 2.00905 39.4507C-0.824142 36.0599 -0.0208694 29.9979 2.26124 26.0213C5.57493 20.2472 10.6437 21.2447 12.915 15.8707C14.9575 11.0381 11.5997 8.47804 13.6911 5.00552C16.6954 0.0172192 27.1882 -0.617241 34.5159 3.06531C38.0457 4.83921 43.8056 9.10467 43.1822 13.2837C42.6234 17.0307 37.0803 19.7205 31.1529 22.5967C26.2546 24.9737 23.3461 25.4838 22.0986 28.4173C20.9541 31.1086 21.7897 34.4707 22.6161 34.626C23.1935 34.7344 23.4774 33.223 24.9443 32.6858C26.2155 32.2202 28.0078 32.6207 28.6953 33.5912C30.0068 35.4428 27.9141 40.2401 24.4268 42.3868Z" fill="url(#paint10_linear)"/>
<path d="M36.4291 25.6135C36.4291 25.6135 45.0755 29.384 43.6216 39.0292C42.1619 48.7128 29.1247 45.7225 29.1247 45.7225L28.3447 38.9502C28.3447 38.9502 38.3159 39.4281 37.0743 33.1554C35.7178 26.3027 34.5572 26.2036 34.5572 26.2036L36.4291 25.6135Z" fill="url(#paint11_linear)"/>
<path d="M24.6902 104.335C24.6902 104.335 24.5783 105.249 24.6534 105.545C24.7286 105.842 27.3086 105.844 28.1804 105.666C29.0501 105.488 27.6614 104.697 27.1054 104.572C26.5487 104.447 24.6902 104.335 24.6902 104.335Z" fill="url(#paint12_linear)"/>
<path d="M25.9913 102.723L25.7192 104.556C25.7192 104.556 25.0246 104.931 24.6901 104.645L24.6533 102.748L25.9913 102.723Z" fill="url(#paint13_linear)"/>
<path d="M11.1584 103.823C11.1584 103.823 11.7274 104.198 11.5758 104.715C11.4242 105.232 10.0943 107.365 9.14372 108.02C8.19087 108.677 8.48982 107.452 8.76713 106.682C9.04422 105.912 9.75153 104.21 10.0272 103.913C10.3027 103.616 11.1584 103.823 11.1584 103.823Z" fill="url(#paint14_linear)"/>
<path d="M12.1811 101.715C11.9066 102.501 11.6422 103.15 11.4354 103.63C10.9774 104.693 10.7268 105.099 10.4429 105.456C10.195 105.768 9.60774 106.438 9.44975 106.347C9.28915 106.256 9.71933 105.464 10.5469 103.185C10.6671 102.854 11.046 101.802 11.046 101.802L12.1811 101.715Z" fill="url(#paint15_linear)"/>
<path d="M31.3558 69.109C31.5419 70.9746 31.7204 73.8729 31.4535 77.411C31.1054 82.0245 30.2067 84.9844 29.0766 89.9634C28.3843 93.0136 27.4494 97.5069 26.6013 103.116C26.4043 103.247 25.824 103.596 25.0754 103.543C24.6557 103.514 24.3415 103.37 24.1559 103.263C21.907 96.4703 22.5726 92.106 23.6576 89.3493C24.1191 88.1767 24.678 87.2411 24.9764 85.4667C25.3708 83.1213 24.8831 81.848 24.1864 76.4946C23.689 72.6729 23.7752 72.0754 24.1061 71.4864C25.4259 69.1367 29.4345 69.0411 31.3558 69.109Z" fill="url(#paint16_linear)"/>
<path d="M23.7084 70.1873C22.3307 77.4522 20.9736 81.3107 19.9434 83.5132C19.6889 84.0572 18.8385 85.8168 18.0329 88.3212C17.3183 90.5425 17.0201 92.1644 16.8672 92.8801C16.3841 95.1409 15.1877 98.4828 11.9494 103.013C11.9088 103.04 11.3538 103.397 10.8225 103.159C10.5533 103.039 10.4191 102.824 10.3657 102.723C10.7924 98.5781 11.2817 95.09 11.7057 92.398C11.7948 91.8337 12.1861 89.3665 12.7991 86.1052C13.0387 84.8303 13.3896 82.9639 13.8095 81.0455C14.3315 78.6596 15.1308 75.4151 16.3593 71.5259C18.8249 71.0767 21.2745 70.6307 23.7084 70.1873Z" fill="url(#paint17_linear)"/>
<path opacity="0.3" d="M23.6576 89.3494C24.1191 88.1767 24.678 87.2411 24.9764 85.4668C25.3708 83.1214 24.8831 81.848 24.1864 76.4947C23.689 72.673 23.7752 72.0754 24.1061 71.4865C24.8239 70.2086 26.3407 69.5996 27.8823 69.3188C27.8617 69.4 27.841 69.4814 27.8243 69.5598C27.0161 73.352 30.0912 75.5138 28.7072 79.702C28.0231 81.7726 26.9287 82.2967 26.6733 84.6771C26.4339 86.9085 27.3016 87.3191 27.1164 89.3441C26.8394 92.3731 24.7324 93.2432 24.1822 95.5946C23.8243 97.1245 24.1257 99.3021 26.7302 102.279C26.6871 102.556 26.644 102.834 26.6013 103.116C26.4042 103.247 25.824 103.596 25.0755 103.543C24.6558 103.514 24.3415 103.37 24.1559 103.263C21.907 96.4704 22.5726 92.106 23.6576 89.3494Z" fill="url(#paint18_linear)"/>
<path d="M34.159 41.1801C33.9588 40.8599 33.3216 39.9713 30.6051 39.3048C29.2362 38.969 26.692 38.3897 23.3924 39.0821C18.813 40.0429 15.9327 42.8282 14.843 44.0052C15.7356 44.5863 18.1879 46.3523 19.3966 49.7026C19.7719 50.7427 20.8783 54.2936 19.2949 57.6613C18.3795 59.6083 16.7547 61.0955 15.5161 62.2296C13.6507 63.9371 12.6811 64.2195 12.0521 65.7275C11.3659 67.3724 12.0573 68.1416 11.205 69.2821C10.2876 70.5098 9.20985 69.992 7.64533 71.261C6.03607 72.566 6.60951 73.5684 5.14135 75.0052C2.99802 77.1025 0.138244 76.5745 0.00466392 77.4873C-0.11039 78.2728 1.92553 79.236 3.64691 79.5825C7.03336 80.2642 9.96301 78.713 10.8299 78.2387C13.2199 76.9312 12.8081 76.1743 14.6222 75.1842C17.6406 73.5369 19.6898 75.1402 26.4399 75.0244C30.0454 74.9626 31.8554 74.9056 32.8432 73.6262C33.7431 72.4605 33.2704 71.2408 32.7299 65.9199C32.7299 65.9199 32.7299 65.9197 32.7299 65.9193C32.556 64.1404 32.1917 60.4131 32.1896 58.2831C32.1882 57.0243 32.6136 54.9607 33.463 50.8404C33.5131 50.5976 33.9719 48.3758 34.3422 45.4128C34.6753 42.7473 34.627 41.929 34.159 41.1801Z" fill="url(#paint19_linear)"/>
<g opacity="0.3">
<path opacity="0.3" d="M5.14133 75.0051C6.60949 73.5683 6.03606 72.5659 7.64532 71.2609C9.20983 69.9919 10.2876 70.5097 11.205 69.2821C12.0573 68.1416 11.3659 67.3724 12.0521 65.7274C12.6811 64.2194 13.6507 63.9372 15.5161 62.2295C16.7547 61.0955 18.3795 59.6083 19.2948 57.6612C20.8783 54.2936 19.7718 50.7427 19.3965 49.7025C18.1879 46.3523 15.7356 44.5863 14.843 44.0051C14.929 43.912 15.0304 43.8061 15.1389 43.6946C20.9769 44.4923 24.3397 47.8523 24.7534 48.8461C25.7083 51.1391 24.1956 52.0028 24.1565 58.6522C24.1378 61.8308 24.4755 63.0766 23.4588 64.4317C22.2925 65.986 20.9441 65.5559 19.2452 67.6035C17.9346 69.1828 18.1448 70.1495 16.9177 70.8419C15.5938 71.5889 14.7481 70.8062 13.2459 71.1823C10.7231 71.814 10.1817 74.746 8.50232 76.4122C7.22751 77.6771 4.85942 78.6322 0.146086 77.9349C0.036425 77.7828 -0.016618 77.6319 0.00459942 77.4873C0.138398 76.5744 2.99801 77.1024 5.14133 75.0051Z" fill="url(#paint20_linear)"/>
</g>
<path d="M25.2564 35.4929C25.2564 35.4929 24.9675 37.8377 24.1135 38.3706C23.2575 38.9042 21.8697 39.6026 21.7165 39.7935C21.5633 39.9842 27.0093 40.5968 29.6791 39.2324C28.8014 39.0411 28.5624 38.971 28.5624 38.971C28.3236 38.9009 27.8779 38.7705 27.4305 38.5081C27.1257 38.3294 26.6339 37.9806 26.1822 37.3243L26.1921 36.0267L25.2564 35.4929Z" fill="url(#paint21_linear)"/>
<path d="M25.1258 36.3231C25.1258 36.3231 25.6813 37.1026 26.5508 36.7867C27.3277 36.5046 26.8642 34.457 26.2474 34.2168C26.0414 34.1366 25.6629 34.1667 25.4096 34.3244C25.2314 34.4353 24.7551 35.0313 25.0282 35.7077C24.8309 35.6477 24.6572 35.6988 24.6137 35.7977C24.5583 35.9231 24.7256 36.0961 24.7634 36.1353C24.8946 36.2712 25.0529 36.3102 25.1258 36.3231Z" fill="url(#paint22_linear)"/>
<path d="M35.0654 25.9766L34.6803 24.7686C34.6266 24.6002 34.8141 24.4644 34.9502 24.574C35.2861 24.8446 35.1722 25.4848 36.5866 22.9795C37.1513 21.9792 36.8124 24.2638 36.4975 24.9059C36.2836 25.3421 36.3012 25.5732 36.1116 25.7133C35.8023 25.9419 35.4085 26.1649 35.0654 25.9766Z" fill="url(#paint23_linear)"/>
<path d="M21.1021 50.9508C21.676 52.1764 19.0314 55.0881 16.0701 56.5083C15.464 56.7991 11.0823 58.9004 9.11321 56.9934C7.47848 55.4101 8.5343 52.0613 8.91051 50.868C10.7527 45.0253 16.3552 42.0685 18.6789 41.0134C20.4039 45.3623 19.3889 47.3044 18.9887 47.9124C18.5701 48.5482 17.3996 49.8888 16.1525 51.0756C15.2727 51.9125 14.7239 52.3221 14.7978 52.4503C14.8897 52.6099 15.9216 52.2935 19.9037 50.2985C20.3626 50.369 20.9057 50.5319 21.1021 50.9508Z" fill="url(#paint24_linear)"/>
<path d="M30.7435 43.7351L23.8683 44.4026C23.7228 44.4167 23.6005 44.5199 23.5603 44.6625L20.9599 53.8748C20.8908 54.1195 21.0851 54.3544 21.3348 54.3284L28.3124 53.5998C28.4578 53.5846 28.58 53.4793 28.6192 53.3354L31.1113 44.1852C31.1768 43.9444 30.9865 43.7115 30.7435 43.7351Z" fill="white"/>
<path opacity="0.3" d="M26.1813 51.6484C26.4413 50.2006 25.6396 49.087 26.408 47.7264C27.1967 46.3296 28.5775 46.5576 29.5661 45.4099C29.8803 45.0452 30.162 44.5294 30.3003 43.7781L30.7434 43.7351C30.9864 43.7114 31.1767 43.9444 31.1112 44.1852L28.619 53.3354C28.5798 53.4793 28.4577 53.5846 28.3123 53.5998L24.7852 53.9681C25.6857 53.134 26.0573 52.3393 26.1813 51.6484Z" fill="url(#paint25_linear)"/>
<path d="M20.1032 50.673C20.1032 50.673 22.5089 48.1637 23.4836 47.7903C24.4558 47.4178 23.5951 50.0397 23.0245 50.4145C22.4531 50.7899 22.2299 50.9334 21.7831 50.9947C21.3359 51.0562 21.3359 51.0562 21.3359 51.0562L20.748 51.3794C20.748 51.3794 19.9909 51.2974 20.1032 50.673Z" fill="url(#paint26_linear)"/>
<path d="M107.407 60.926C105.759 61.3713 103.64 63.2588 102.527 64.2996C99.9484 66.7117 95.0593 75.0326 97.9154 78.0831C99.8465 80.1455 103.217 79.3218 104.693 77.2925C105.776 75.8049 105.12 74.4278 104.893 71.7181C104.647 68.8006 105.686 63.741 107.407 60.926Z" fill="url(#paint27_linear)"/>
<path d="M106.02 61.6793C104.88 63.0021 104.479 62.8758 103.588 64.724C102.241 67.5166 103.234 70.7744 103.375 74.2601C103.53 78.0824 103.377 85.1915 101.456 88.8711C101.422 88.9353 101.406 88.9488 101.407 89.0448C101.466 92.9505 119.497 90.1369 119.47 88.7442C119.331 81.8265 114.901 66.5562 116.003 61.5529C115.503 61.5268 114.512 60.9608 114.108 60.8319C112.37 60.2774 110.793 60.1382 109.134 60.3078C108.526 60.37 108.219 60.5006 107.774 60.6575C107.05 60.9128 106.583 61.3134 106.02 61.6793Z" fill="url(#paint28_linear)"/>
<path d="M112.458 56.5728C112.434 57.7438 112.813 59.4466 112.963 60.5023C113.112 61.5576 110.991 61.5305 110.295 61.0184C109.655 60.5472 110.137 59.3467 110.754 58.7308C111.37 58.1159 111.831 57.2 112.458 56.5728Z" fill="url(#paint29_linear)"/>
<path d="M109.258 56.0753C108.272 55.1562 108.091 52.03 109.091 51.4662C109.574 51.1933 110.417 52.7664 110.964 53.0868C111.697 53.5163 113.68 54.0441 114.072 54.8541C114.367 55.4644 113.774 56.6796 113.536 57.1135C113.266 57.6047 113.234 57.4319 112.909 57.7756C112.459 58.2526 111.859 58.8091 111.4 59.3474C111.301 58.9215 111.327 58.9227 111.152 58.3705C111.084 58.1581 110.543 57.25 110.279 56.897C110.112 56.6726 109.379 56.1877 109.258 56.0753Z" fill="url(#paint30_linear)"/>
<path d="M112.403 58.615C111.651 59.292 111.283 60.1368 109.914 59.8305C108.684 59.5554 108.477 56.4437 109.597 55.5743C109.969 55.2848 110.513 55.3109 110.975 55.4692C111.247 55.5626 111.532 55.7581 111.804 55.8748C112.055 55.9824 112.266 55.8729 112.496 56.1397C112.783 56.4734 112.588 57.2868 112.423 57.6773C112.549 57.5702 112.691 57.4179 112.856 57.3723C112.973 57.3402 113.174 57.1524 113.284 57.3263C113.463 57.61 113.075 58.1227 112.847 58.3313C112.743 58.4268 112.531 58.5408 112.403 58.615Z" fill="url(#paint31_linear)"/>
<path d="M112.583 55.9459C112.416 56.0369 112.713 56.3617 112.669 56.6692C112.582 57.2665 112.393 58.3439 111.527 58.4162C111.014 58.4591 110.476 57.9747 109.937 57.8984C109.602 57.851 109.233 57.8551 108.9 57.9329C108.685 58.5749 108.676 59.5977 109.234 60.0204C109.835 60.4749 110.228 60.2635 110.864 60.1005C111.289 59.9916 111.757 59.6372 112.024 59.2256C112.302 58.7969 112.505 58.3437 112.78 57.8926C112.932 57.6436 113.116 57.3318 113.294 57.0717C113.343 57.001 113.417 56.8879 113.452 56.7931C113.309 56.6475 112.825 55.8143 112.583 55.9459Z" fill="url(#paint32_linear)"/>
<path d="M109.58 58.4032C109.833 58.5557 110.13 58.5657 110.406 58.58C110.419 58.5807 110.479 58.5592 110.456 58.609C110.37 58.7962 109.997 58.8479 109.808 58.7858C109.673 58.7416 109.446 58.5673 109.47 58.4195C109.48 58.3571 109.554 58.4154 109.58 58.4032Z" fill="white"/>
<path opacity="0.3" d="M107.617 84.1355C107.129 83.5784 106.352 82.6912 106.306 81.4569C106.187 78.2828 111.037 77.1102 110.847 74.5413C110.7 72.5436 107.736 72.7129 106.038 69.1176C105.746 68.4987 104.675 66.1433 105.452 63.5291C105.762 62.4865 106.271 61.7252 106.65 61.2495C106.44 61.3911 106.237 61.5377 106.019 61.6793C104.88 63.002 104.479 62.8758 103.587 64.724C102.24 67.5166 103.233 70.7744 103.374 74.2601C103.529 78.0823 103.377 85.1915 101.455 88.8711C101.422 88.9353 101.399 88.977 101.407 89.0448C101.837 92.9242 119.497 90.1369 119.469 88.7442C119.452 87.9103 119.373 86.9558 119.249 85.9145C118.637 86.0864 111.094 88.1028 107.617 84.1355Z" fill="url(#paint33_linear)"/>
<path d="M102.479 71.8683C101.47 71.7978 102.167 71.2017 101.861 71.2842C101.67 71.3359 96.9564 75.8723 98.448 78.333C99.8652 80.6709 105.697 79.1559 107.731 78.448C108.856 78.0561 112.18 76.8479 114.184 73.6396C114.364 73.3521 114.498 73.1039 114.587 72.9311C110.198 72.2639 108.078 72.0821 106.962 72.054C106.245 72.036 105.52 72.0807 102.479 71.8683Z" fill="url(#paint34_linear)"/>
<path d="M104.178 71.4355C104.304 72.4514 104.826 75.5868 107.446 78.1783C107.965 78.6915 111.466 82.0388 116.321 81.2416C120.071 80.6258 123.38 77.739 124.14 74.1115C125.62 67.0512 116.741 60.4868 114.672 61.5016C113.277 62.186 112.878 67.387 114.966 70.0688C115.419 70.6497 116.259 71.4591 116.129 72.45C116.004 73.4018 115.054 73.9878 114.515 74.3102C111.963 75.8373 106.311 71.6718 104.801 71.3057C104.692 71.3001 104.61 71.1946 104.178 71.4355Z" fill="url(#paint35_linear)"/>
<path opacity="0.3" d="M117.826 70.0992C116.954 69.178 115.942 68.6786 114.8 68.2934C114.515 68.2077 114.229 68.1276 113.946 68.0454C114.18 68.7909 114.515 69.4891 114.966 70.0686C115.419 70.6495 116.259 71.459 116.129 72.4498C116.004 73.4016 115.054 73.9876 114.515 74.31C111.963 75.8372 106.311 71.6716 104.801 71.3055C104.692 71.2999 104.61 71.1944 104.178 71.4354C104.209 71.6901 104.266 72.0783 104.375 72.558C106.517 71.9102 108.827 74.1054 110.659 75.1846C113 76.5604 115.893 77.463 118.144 75.7343C119.822 74.4752 119.215 71.6055 117.826 70.0992Z" fill="url(#paint36_linear)"/>
<path opacity="0.3" d="M118.926 63.1506C118.534 64.4864 118.486 65.8505 119.272 67.1738C120.401 69.0348 121.658 70.5915 122.115 72.646C122.524 74.3885 122.276 76.092 121.79 77.7836C121.649 78.2343 121.431 78.6238 121.162 78.973C122.649 77.7017 123.742 76.0095 124.14 74.1116C125.073 69.6619 121.92 65.4365 118.926 63.1506Z" fill="url(#paint37_linear)"/>
<path d="M114.184 73.6397C114.305 73.9358 114.902 74.2475 115.191 74.2183C115.676 74.1693 116.018 73.839 116.322 73.6979C116.593 73.5719 117.197 73.4054 117.233 73.187C117.302 72.7735 116.642 72.644 116.254 72.5966C115.71 72.53 115.129 72.6807 114.587 72.9312C114.452 73.1696 114.301 73.4031 114.184 73.6397Z" fill="url(#paint38_linear)"/>
<path d="M103.279 71.9217C105.239 72.236 105.69 72.1093 105.745 71.9375C105.814 71.7182 105.287 71.2609 104.724 71.1725C104.152 71.0825 103.571 71.3779 103.279 71.9217Z" fill="url(#paint39_linear)"/>
<path d="M110.781 61.2483C110.85 61.4071 110.927 61.5717 111.013 61.7405C111.051 61.8141 111.089 61.8857 111.127 61.9551C111.284 61.9823 111.441 62.0093 111.598 62.0364C111.698 61.8084 111.798 61.5805 111.898 61.3526C111.743 61.368 111.551 61.3744 111.332 61.3536C111.118 61.3332 110.932 61.2919 110.781 61.2483Z" fill="url(#paint40_linear)"/>
<path d="M111.132 61.9111C111.132 61.9111 110.592 67.2444 108.924 68.0388C108.964 68.2122 108.904 69.6071 108.904 69.6071C108.904 69.6071 110.455 69.1933 110.543 69.2275C110.63 69.2617 112.443 66.3522 111.598 62.0365L111.132 61.9111Z" fill="url(#paint41_linear)"/>
<defs>
<linearGradient id="paint0_linear" x1="52.6852" y1="24.5975" x2="56.7565" y2="57.0108" gradientUnits="userSpaceOnUse">
<stop offset="0.0036" stop-color="#E38DDD"/>
<stop offset="1" stop-color="#9571F6"/>
</linearGradient>
<linearGradient id="paint1_linear" x1="71.7803" y1="103.368" x2="63.8763" y2="106.688" gradientUnits="userSpaceOnUse">
<stop stop-color="#40447E"/>
<stop offset="0.9964" stop-color="#3C3B6B"/>
</linearGradient>
<linearGradient id="paint2_linear" x1="61.2256" y1="68.5334" x2="52.6478" y2="72.1361" gradientUnits="userSpaceOnUse">
<stop stop-color="#40447E"/>
<stop offset="0.9964" stop-color="#3C3B6B"/>
</linearGradient>
<linearGradient id="paint3_linear" x1="24.2544" y1="70.4836" x2="103.747" y2="70.4836" gradientUnits="userSpaceOnUse">
<stop stop-color="#40447E"/>
<stop offset="0.9964" stop-color="#3C3B6B"/>
</linearGradient>
<linearGradient id="paint4_linear" x1="74.4716" y1="51.2161" x2="13.548" y2="150.813" gradientUnits="userSpaceOnUse">
<stop stop-color="#FFC444"/>
<stop offset="0.9964" stop-color="#F36F56"/>
</linearGradient>
<linearGradient id="paint5_linear" x1="24.2544" y1="99.8795" x2="136.769" y2="99.8795" gradientUnits="userSpaceOnUse">
<stop stop-color="#40447E"/>
<stop offset="0.9964" stop-color="#3C3B6B"/>
</linearGradient>
<linearGradient id="paint6_linear" x1="35.2886" y1="98.9576" x2="117.728" y2="98.9576" gradientUnits="userSpaceOnUse">
<stop stop-color="#40447E"/>
<stop offset="0.9964" stop-color="#3C3B6B"/>
</linearGradient>
<linearGradient id="paint7_linear" x1="49.4575" y1="81.1531" x2="113.776" y2="81.1531" gradientUnits="userSpaceOnUse">
<stop stop-color="#AA80F9"/>
<stop offset="0.9964" stop-color="#6165D7"/>
</linearGradient>
<linearGradient id="paint8_linear" x1="98.8545" y1="78.9616" x2="120.617" y2="78.9616" gradientUnits="userSpaceOnUse">
<stop stop-color="#AA80F9"/>
<stop offset="0.9964" stop-color="#6165D7"/>
</linearGradient>
<linearGradient id="paint9_linear" x1="39.0836" y1="58.441" x2="11.3491" y2="58.441" gradientUnits="userSpaceOnUse">
<stop stop-color="#AA80F9"/>
<stop offset="0.9964" stop-color="#6165D7"/>
</linearGradient>
<linearGradient id="paint10_linear" x1="21.503" y1="3.89315" x2="21.7618" y2="27.693" gradientUnits="userSpaceOnUse">
<stop stop-color="#444B8C"/>
<stop offset="0.9964" stop-color="#26264F"/>
</linearGradient>
<linearGradient id="paint11_linear" x1="36.8262" y1="41.8074" x2="40.4213" y2="54.8502" gradientUnits="userSpaceOnUse">
<stop stop-color="#FF9085"/>
<stop offset="1" stop-color="#FB6FBB"/>
</linearGradient>
<linearGradient id="paint12_linear" x1="26.8918" y1="99.0179" x2="26.0601" y2="113.989" gradientUnits="userSpaceOnUse">
<stop stop-color="#444B8C"/>
<stop offset="0.9964" stop-color="#26264F"/>
</linearGradient>
<linearGradient id="paint13_linear" x1="25.2385" y1="106.571" x2="25.7267" y2="84.2357" gradientUnits="userSpaceOnUse">
<stop stop-color="#FFC444"/>
<stop offset="0.9964" stop-color="#F36F56"/>
</linearGradient>
<linearGradient id="paint14_linear" x1="10.4779" y1="98.4422" x2="9.51811" y2="115.719" gradientUnits="userSpaceOnUse">
<stop stop-color="#444B8C"/>
<stop offset="0.9964" stop-color="#26264F"/>
</linearGradient>
<linearGradient id="paint15_linear" x1="10.7199" y1="107.598" x2="11.2352" y2="84.026" gradientUnits="userSpaceOnUse">
<stop stop-color="#FFC444"/>
<stop offset="0.9964" stop-color="#F36F56"/>
</linearGradient>
<linearGradient id="paint16_linear" x1="32.1877" y1="92.1338" x2="23.0593" y2="79.8825" gradientUnits="userSpaceOnUse">
<stop stop-color="#444B8C"/>
<stop offset="0.9964" stop-color="#26264F"/>
</linearGradient>
<linearGradient id="paint17_linear" x1="25.7204" y1="94.592" x2="3.72101" y2="74.0758" gradientUnits="userSpaceOnUse">
<stop stop-color="#444B8C"/>
<stop offset="0.9964" stop-color="#26264F"/>
</linearGradient>
<linearGradient id="paint18_linear" x1="31.0208" y1="93.0036" x2="21.8925" y2="80.7525" gradientUnits="userSpaceOnUse">
<stop stop-color="#444B8C"/>
<stop offset="0.9964" stop-color="#26264F"/>
</linearGradient>
<linearGradient id="paint19_linear" x1="29.3186" y1="51.6291" x2="8.55127" y2="78.8863" gradientUnits="userSpaceOnUse">
<stop stop-color="#FF9085"/>
<stop offset="1" stop-color="#FB6FBB"/>
</linearGradient>
<linearGradient id="paint20_linear" x1="17.2218" y1="38.6185" x2="11.8005" y2="71.7725" gradientUnits="userSpaceOnUse">
<stop stop-color="#FF9085"/>
<stop offset="1" stop-color="#FB6FBB"/>
</linearGradient>
<linearGradient id="paint21_linear" x1="26.8508" y1="33.2192" x2="25.4619" y2="40.7948" gradientUnits="userSpaceOnUse">
<stop stop-color="#311944"/>
<stop offset="1" stop-color="#A03976"/>
</linearGradient>
<linearGradient id="paint22_linear" x1="24.8054" y1="30.3296" x2="25.5238" y2="34.3444" gradientUnits="userSpaceOnUse">
<stop stop-color="#311944"/>
<stop offset="1" stop-color="#A03976"/>
</linearGradient>
<linearGradient id="paint23_linear" x1="34.6709" y1="24.3885" x2="36.89" y2="24.3885" gradientUnits="userSpaceOnUse">
<stop stop-color="#311944"/>
<stop offset="1" stop-color="#A03976"/>
</linearGradient>
<linearGradient id="paint24_linear" x1="21.181" y1="49.3991" x2="8.22705" y2="49.3991" gradientUnits="userSpaceOnUse">
<stop stop-color="#FF9085"/>
<stop offset="1" stop-color="#FB6FBB"/>
</linearGradient>
<linearGradient id="paint25_linear" x1="30.0888" y1="67.751" x2="29.0838" y2="58.9293" gradientUnits="userSpaceOnUse">
<stop stop-color="#AA80F9"/>
<stop offset="0.9964" stop-color="#6165D7"/>
</linearGradient>
<linearGradient id="paint26_linear" x1="20.0918" y1="49.5668" x2="23.9236" y2="49.5668" gradientUnits="userSpaceOnUse">
<stop stop-color="#311944"/>
<stop offset="1" stop-color="#A03976"/>
</linearGradient>
<linearGradient id="paint27_linear" x1="114.632" y1="82.2013" x2="99.8564" y2="66.5294" gradientUnits="userSpaceOnUse">
<stop stop-color="#AA80F9"/>
<stop offset="0.9964" stop-color="#6165D7"/>
</linearGradient>
<linearGradient id="paint28_linear" x1="113.727" y1="95.0767" x2="105.407" y2="62.4184" gradientUnits="userSpaceOnUse">
<stop stop-color="#AA80F9"/>
<stop offset="0.9964" stop-color="#6165D7"/>
</linearGradient>
<linearGradient id="paint29_linear" x1="112.97" y1="58.9677" x2="109.993" y2="58.9677" gradientUnits="userSpaceOnUse">
<stop stop-color="#FCB148"/>
<stop offset="0.0521" stop-color="#FDBA46"/>
<stop offset="0.1424" stop-color="#FFC244"/>
<stop offset="0.3183" stop-color="#FFC444"/>
<stop offset="0.4849" stop-color="#FDB946"/>
<stop offset="0.7754" stop-color="#F99C4D"/>
<stop offset="0.8658" stop-color="#F8924F"/>
<stop offset="1" stop-color="#F8924F"/>
</linearGradient>
<linearGradient id="paint30_linear" x1="110.118" y1="51.273" x2="114.859" y2="65.1354" gradientUnits="userSpaceOnUse">
<stop stop-color="#444B8C"/>
<stop offset="0.9964" stop-color="#26264F"/>
</linearGradient>
<linearGradient id="paint31_linear" x1="111.18" y1="55.3684" x2="110.739" y2="66.7213" gradientUnits="userSpaceOnUse">
<stop stop-color="#FCB148"/>
<stop offset="0.0521" stop-color="#FDBA46"/>
<stop offset="0.1424" stop-color="#FFC244"/>
<stop offset="0.3183" stop-color="#FFC444"/>
<stop offset="0.4849" stop-color="#FDB946"/>
<stop offset="0.7754" stop-color="#F99C4D"/>
<stop offset="0.8658" stop-color="#F8924F"/>
<stop offset="1" stop-color="#F8924F"/>
</linearGradient>
<linearGradient id="paint32_linear" x1="109.018" y1="51.8755" x2="113.63" y2="65.3616" gradientUnits="userSpaceOnUse">
<stop stop-color="#444B8C"/>
<stop offset="0.9964" stop-color="#26264F"/>
</linearGradient>
<linearGradient id="paint33_linear" x1="112.589" y1="95.5011" x2="103.494" y2="63.3529" gradientUnits="userSpaceOnUse">
<stop stop-color="#AA80F9"/>
<stop offset="0.9964" stop-color="#6165D7"/>
</linearGradient>
<linearGradient id="paint34_linear" x1="112.921" y1="82.4551" x2="99.2304" y2="67.9341" gradientUnits="userSpaceOnUse">
<stop stop-color="#AA80F9"/>
<stop offset="0.9964" stop-color="#6165D7"/>
</linearGradient>
<linearGradient id="paint35_linear" x1="111.886" y1="95.7661" x2="115.504" y2="59.5226" gradientUnits="userSpaceOnUse">
<stop stop-color="#AA80F9"/>
<stop offset="0.9964" stop-color="#6165D7"/>
</linearGradient>
<linearGradient id="paint36_linear" x1="110.928" y1="82.6303" x2="112.067" y2="67.0988" gradientUnits="userSpaceOnUse">
<stop stop-color="#AA80F9"/>
<stop offset="0.9964" stop-color="#6165D7"/>
</linearGradient>
<linearGradient id="paint37_linear" x1="119.896" y1="90.3175" x2="121.982" y2="61.8948" gradientUnits="userSpaceOnUse">
<stop stop-color="#AA80F9"/>
<stop offset="0.9964" stop-color="#6165D7"/>
</linearGradient>
<linearGradient id="paint38_linear" x1="117.238" y1="73.4005" x2="114.184" y2="73.4005" gradientUnits="userSpaceOnUse">
<stop stop-color="#FCB148"/>
<stop offset="0.0521" stop-color="#FDBA46"/>
<stop offset="0.1424" stop-color="#FFC244"/>
<stop offset="0.3183" stop-color="#FFC444"/>
<stop offset="0.4849" stop-color="#FDB946"/>
<stop offset="0.7754" stop-color="#F99C4D"/>
<stop offset="0.8658" stop-color="#F8924F"/>
<stop offset="1" stop-color="#F8924F"/>
</linearGradient>
<linearGradient id="paint39_linear" x1="105.751" y1="71.6353" x2="103.279" y2="71.6353" gradientUnits="userSpaceOnUse">
<stop stop-color="#FCB148"/>
<stop offset="0.0521" stop-color="#FDBA46"/>
<stop offset="0.1424" stop-color="#FFC244"/>
<stop offset="0.3183" stop-color="#FFC444"/>
<stop offset="0.4849" stop-color="#FDB946"/>
<stop offset="0.7754" stop-color="#F99C4D"/>
<stop offset="0.8658" stop-color="#F8924F"/>
<stop offset="1" stop-color="#F8924F"/>
</linearGradient>
<linearGradient id="paint40_linear" x1="111.208" y1="58.9118" x2="111.427" y2="62.8874" gradientUnits="userSpaceOnUse">
<stop stop-color="#444B8C"/>
<stop offset="0.9964" stop-color="#26264F"/>
</linearGradient>
<linearGradient id="paint41_linear" x1="110.362" y1="67.0208" x2="110.484" y2="57.6812" gradientUnits="userSpaceOnUse">
<stop stop-color="#444B8C"/>
<stop offset="0.9964" stop-color="#26264F"/>
</linearGradient>
</defs>
</svg>
