<svg width="120" height="119" viewBox="0 0 120 119" fill="none" xmlns="http://www.w3.org/2000/svg">
<path d="M117.908 50.8286C114.664 29.5981 101.365 3.51488 75.0928 0.785246C75.0928 0.785246 55.1454 -1.64106 35.4816 2.03626C23.8111 4.21872 13.5778 10.7155 7.10259 20.053C0.627316 29.3904 -1.53563 40.7762 1.08938 51.6311C2.79429 58.6815 3.9464 65.9784 3.6302 73.2231C3.07992 85.8317 3.39652 97.601 15.633 105.12C26.5587 111.835 40.3089 117.756 53.4268 118.793C62.3416 119.498 72.339 118.357 80.9312 116.037C124.719 104.208 121.151 72.0591 117.908 50.8286Z" fill="white"/>
<path d="M24.7894 101.443C26.6502 101.296 29.0308 100.779 31.3158 99.2847C33.788 97.6685 37.0079 94.3469 36.1675 92.2539C35.8537 91.4725 34.9503 90.8035 34.1562 90.8672C32.983 90.9614 32.8464 92.591 30.8092 94.3635C30.4327 94.6911 28.4862 96.3847 27.5185 95.814C27.0374 95.5303 26.8951 94.7441 26.9736 94.1464C27.203 92.3987 29.3368 92.1303 31.3882 90.2384C33.468 88.3202 35.2016 84.974 34.2106 82.7118C33.6412 81.4118 32.1348 80.3851 31.1446 80.6737C30.7214 80.797 30.4531 81.1428 29.1683 83.9186C28.1137 86.1968 27.8792 86.8609 27.1993 87.0769C26.4995 87.2993 25.4115 87.0203 24.9979 86.3308C23.9209 84.5351 28.5758 81.8839 28.9985 76.8586C29.1879 74.6066 28.5787 71.2689 26.5393 70.5535C25.1607 70.0699 23.1966 70.8085 22.4866 72.0733C21.8465 73.2135 22.6241 74.0713 22.1358 76.6327C21.9876 77.4099 21.6827 79.0093 21.0392 79.0933C20.2837 79.1918 19.4384 77.1524 19.2431 76.6557C17.7723 72.9165 19.4588 70.9937 18.072 69.1785C16.9906 67.763 14.6375 67.1945 12.7734 67.9094C11.1423 68.5351 9.83739 70.1619 9.75022 71.848C9.66153 73.5634 11.1043 75.2711 13.9899 78.6865C15.3583 80.3061 16.447 81.4004 16.3851 83.0102C16.3549 83.795 16.0437 84.8989 15.4816 84.9997C14.241 85.2222 13.6304 80.2266 10.6901 79.4551C9.18516 79.0602 7.31499 79.8363 6.49319 81.1929C5.48629 82.8551 6.16088 85.2109 7.42586 86.4497C9.07632 88.066 10.7689 86.8377 13.8744 88.5738C15.2521 89.344 17.4172 90.9823 17.1002 92.3372C16.9622 92.9271 16.3439 93.5047 15.6653 93.5817C14.1443 93.7544 13.642 91.2617 11.1967 90.166C9.435 89.3765 6.99892 89.4619 6.42025 90.4555C5.60333 91.8581 8.50479 95.0425 10.0474 96.4496C11.9122 98.1506 16.3102 101.376 24.7894 101.443Z" fill="#D8DEE8"/>
<path opacity="0.5" d="M23.9532 100.644C24.1991 96.4749 21.4377 87.983 19.4286 83.9685C17.4627 80.0402 15.5821 73.8257 15.5634 73.7634L15.4409 73.8003C15.4598 73.8627 17.3435 80.0877 19.3143 84.0257C21.3171 88.0278 24.0703 96.4882 23.8257 100.636L23.9532 100.644Z" fill="white"/>
<path d="M29.1752 101.987C30.5764 100.041 32.6317 96.5314 33.0003 91.8355C33.1522 89.9005 33.4488 86.1212 31.1368 82.8612C29.9845 81.2364 27.5407 78.8334 25.8896 79.5265C24.8271 79.9726 24.1676 81.6692 24.4674 82.9593C24.7698 84.2602 25.8692 84.3807 27.0665 86.5882C27.5096 87.4051 28.0157 88.364 27.6269 88.9057C27.3021 89.3581 26.41 89.4405 25.7411 89.1691C24.3593 88.6087 24.7911 86.8884 23.2973 85.6545C22.2351 84.7771 20.4644 84.3646 19.7003 85.0833C19.0369 85.7073 19.1524 87.1649 19.7387 88.1366C20.6774 89.6926 22.3607 89.2361 23.4581 90.9371C23.945 91.6918 24.2911 92.8316 23.865 93.2823C23.3794 93.7958 21.9506 93.3517 21.0348 92.784C19.8258 92.0346 19.7811 91.2371 18.9849 91.1371C18.0967 91.0256 16.9864 91.8714 16.8127 92.8071C16.5695 94.1177 18.1774 95.5312 19.4506 96.1453C21.0806 96.9315 22.2918 96.4701 23.0879 97.5442C23.3801 97.9384 23.6477 98.5818 23.4081 98.9723C23.0663 99.5293 21.8308 99.3454 21.0105 99.2233C19.014 98.9261 18.4644 98.2021 17.749 98.5539C17.0247 98.91 16.6512 100.113 16.9644 100.957C17.1385 101.426 17.6614 102.152 20.2526 102.607C22.0664 102.925 25.1136 103.149 29.1752 101.987Z" fill="#97A6B7"/>
<path d="M109.803 36.53C109.803 42.0526 108.068 47.1756 105.127 51.3925C105.116 51.4099 105.074 51.4265 105.074 51.4439V51.4446C100.46 58.2057 92.5532 62.5861 83.6837 62.5861C82.9582 62.5861 82.2634 62.5522 81.5531 62.454C81.5524 62.454 81.5524 62.454 81.5524 62.454C81.5495 62.454 81.548 62.4972 81.5451 62.4972C81.1954 62.4683 80.8486 62.4549 80.5032 62.4122C80.3804 62.3978 80.2575 62.3928 80.1354 62.3755C80.027 62.361 79.9193 62.3514 79.8117 62.3347C79.7178 62.321 79.6245 62.3093 79.5321 62.2941C79.5111 62.2905 79.4901 62.2883 79.4692 62.2854C79.2416 62.2478 79.0147 62.2088 78.7885 62.1654C78.7871 62.1654 78.7863 62.165 78.7849 62.165C66.7259 59.8615 57.6143 49.2601 57.6143 36.5298C57.6143 33.8382 58.0053 31.2414 58.7626 28.7983C58.881 28.4154 59.0287 28.0368 59.1268 27.6618V27.6611C59.4214 27.0361 59.6188 26.4226 59.8898 25.8207C59.9989 25.5801 60.1195 25.3409 60.2344 25.1039C60.8695 23.8019 61.6137 22.5605 62.4483 21.3906C62.5242 21.2844 62.6029 21.1789 62.6802 21.0734C62.9895 20.6529 63.3121 20.2425 63.6467 19.8414C64.1474 19.2403 64.6747 18.6615 65.2268 18.108C66.6639 16.6657 68.269 15.3904 70.0097 14.3145C70.5481 13.9814 71.1002 13.6671 71.6638 13.3737C73.0288 12.6612 74.4639 12.0666 75.9574 11.6027C78.4084 10.8403 81.014 10.4299 83.7157 10.4299C89.9291 10.4299 95.6353 12.6005 100.117 16.225C103.413 18.8913 106.094 22.343 107.78 26.2962C108.158 27.1792 108.413 28.0867 108.805 29.0159V29.0167C108.805 29.021 108.76 29.0239 108.762 29.0282C109.474 31.404 109.803 33.9222 109.803 36.53Z" fill="url(#paint0_linear)"/>
<path d="M81.5527 62.5418V62.541H81.5553L81.5536 62.5418C81.5527 62.5418 81.5527 62.5418 81.5527 62.5418Z" fill="white"/>
<path d="M89.401 45.3294C88.841 46.1184 87.1083 47.1315 88.2839 49.1214C89.4495 51.1063 88.203 51.4785 87.401 51.2927C86.5953 51.1092 84.0909 51.0066 84.5085 52.1447C84.9247 53.2842 85.6422 53.7112 84.7246 54.1512C83.8076 54.5891 83.4196 55.733 82.481 57.3074C81.5489 58.8848 79.3334 57.5206 79.9895 59.1016C80.6442 60.6833 81.155 60.5301 81.0936 61.632C81.0792 61.9348 81.2801 62.2455 81.5517 62.541C81.202 62.5121 80.8508 62.4767 80.5026 62.4341C80.3797 62.4196 80.2569 62.4037 80.1348 62.3864C80.0264 62.372 79.9187 62.3568 79.8111 62.3402C79.7171 62.3264 79.6239 62.312 79.5314 62.2968C79.5105 62.2932 79.5159 62.2896 79.4949 62.2867C79.2709 62.2491 79.1547 62.2086 78.8601 62.166V62.1653C78.6638 61.9789 78.7868 61.7765 78.8164 61.5583C79.1091 59.5236 76.3017 58.1254 75.8313 56.6998C75.3689 55.2777 75.8254 54.4294 75.7185 53.2509C75.6087 52.0746 75.9934 50.5145 75.3164 49.5232C74.6393 48.5354 71.9099 48.2045 71.3904 46.2109C70.8673 44.2217 72.084 41.2425 72.5565 40.7352C73.0233 40.228 70.2966 37.9201 68.9989 37.8464C67.6954 37.7669 68.2169 35.1425 66.013 35.5421C63.8049 35.9294 59.8378 34.6974 60.6572 33.3722C61.3335 32.2804 62.4688 29.8721 58.7627 28.7983C58.8812 28.4154 59.028 28.0368 59.1262 27.6617V27.661C59.4207 27.036 59.6182 26.4225 59.8891 25.8206C59.9982 25.58 60.1188 25.3408 60.2337 25.1038C60.8696 23.8018 61.6138 22.5604 62.4477 21.3905C62.5235 21.2843 62.6023 21.1788 62.6796 21.0733C62.9896 20.6528 63.3122 20.2416 63.6461 19.8413C64.1468 19.2402 64.6741 18.6614 65.2261 18.1079C66.6633 16.6656 68.2684 15.3903 70.0091 14.3144C70.7432 14.8289 71.5815 15.1461 72.3055 14.7552C74.0809 13.7616 72.9104 13.6092 72.1835 13.5723C71.9942 13.5629 71.8107 13.4878 71.6633 13.3736C73.0282 12.6612 74.4633 12.0665 75.9568 11.6026C75.8463 12.6048 74.4842 14.2147 75.4865 14.0181C76.6527 13.7963 77.1289 10.6452 77.9851 11.6922C78.8537 12.7435 77.0349 14.1215 78.7431 13.323C80.4534 12.5325 80.6818 10.768 82.5879 11.6264C84.5034 12.4957 84.3286 13.5246 84.8633 13.4227C85.3959 13.3223 87.1184 14.4799 86.0765 15.4322C85.0251 16.3874 84.0612 15.1706 82.4853 14.8036C80.9086 14.4408 80.9469 15.7306 80.2215 16.0255C79.4837 16.3101 75.9251 14.5904 75.0515 16.1447C74.1685 17.6866 73.7928 18.7626 75.1035 18.7228C76.4128 18.6859 76.4974 18.3471 76.3947 19.3153C76.29 20.2843 76.5284 21.0097 77.7149 20.0986C78.8977 19.1889 78.6325 18.3015 79.5574 18.7351C80.4831 19.1701 80.5921 18.7763 81.5763 18.0617C82.5597 17.347 83.8539 17.2726 84.1928 18.876C84.5324 20.4801 83.9521 20.8399 82.2223 20.9209C80.4917 21.0047 80.2959 20.4592 79.7446 21.9057C79.1961 23.353 76.907 25.2115 74.8976 25.9774C72.8917 26.7448 72.1056 27.8785 72.1518 29.4082C72.1995 30.9408 71.4451 32.5572 70.9415 31.2941C70.4357 30.0274 69.018 27.8944 67.5714 29.3201C66.1219 30.7486 63.5994 33.274 66.3871 33.7357C69.169 34.2061 67.7174 31.5998 69.1235 32.1208C70.5275 32.6453 68.234 33.7942 69.1726 34.209C70.1127 34.6273 70.5065 34.4315 70.4993 35.7126C70.492 36.993 70.8107 38.2366 71.9517 37.6932C73.0919 37.152 74.5565 34.6418 76.2062 36.1267C77.8579 37.6152 77.7409 37.4215 78.6073 36.988C79.4729 36.5552 80.0242 37.8529 80.379 38.444C80.7338 39.0343 82.1255 38.4317 83.2534 40.1904C84.3806 41.9491 84.8228 42.2628 86.1083 41.6298C87.3944 40.9975 87.9176 41.4672 88.2528 42.3552C88.5867 43.2433 89.3786 42.3755 89.7602 43.5489C90.1395 44.7217 89.9574 44.5396 89.401 45.3294Z" fill="white"/>
<path d="M93.8044 24.0212C92.8933 22.0659 97.4079 22.2855 98.2056 22.4359C99.0084 22.5695 100.891 21.0976 101.131 20.4134C101.376 19.724 101.779 20.0514 103.208 20.0318C104.636 20.0167 103.374 19.6937 101.803 19.1756C100.234 18.659 101.575 18.6069 100.129 17.4653C99.507 16.9652 99.7028 16.5404 100.118 16.2246C103.414 18.8909 106.048 22.3426 107.734 26.2958C107.686 26.2814 107.642 26.2734 107.6 26.2727C106.6 26.2669 106.379 24.0559 105.864 23.6252C105.356 23.1953 105.879 24.8398 106.003 25.5154C106.128 26.1918 105.729 25.6231 105.23 26.2438C104.73 26.8652 103.826 26.8768 103.744 25.9447C103.661 25.0147 103.006 24.1014 101.675 23.6765C100.345 23.2516 99.1941 23.6006 98.1131 24.0175C97.038 24.4273 94.7221 25.9613 93.8044 24.0212Z" fill="white"/>
<path d="M105.139 51.4436C105.229 50.7723 105.377 50.0786 105.096 49.825C104.415 49.1928 104.266 47.4702 104.502 46.5973C104.738 45.7222 106.574 45.7721 105.328 44.319C104.079 42.8616 102.953 41.1317 103.478 40.1425C104.002 39.1548 103.843 39.0825 102.86 39.0883C101.875 39.0941 101.444 39.1375 100.463 38.2617C99.4818 37.3744 98.1321 40.3557 94.439 37.9647C90.7467 35.5499 92.8494 31.4796 94.2331 31.4695C95.6255 31.4464 97.252 30.7433 96.1111 29.0453C94.9737 27.3407 96.7512 27.1001 97.6198 27.4874C98.4898 27.8704 100.032 26.8414 101.605 26.3776C103.181 25.9158 103.111 28.4831 103.986 28.9969C104.866 29.5114 106.515 29.1031 107.372 28.2808C107.984 27.6941 108.118 28.3784 108.723 29.0279C109.435 31.4038 109.818 33.9219 109.818 36.5297C109.818 42.0747 108.088 47.2165 105.139 51.4436Z" fill="white"/>
<path d="M98.5337 20.7671C98.5346 20.7655 99.6851 20.2461 99.2682 19.4092C98.8549 18.5722 98.1994 16.0068 97.7206 16.8152C97.2386 17.6272 97.9491 19.204 97.7939 19.8843C97.6374 20.5667 97.6332 20.9239 98.5337 20.7671Z" fill="white"/>
<path d="M97.3846 19.9838C97.3683 19.7141 97.5381 18.6188 96.6763 18.6531C96.6779 18.6514 95.4296 19.1723 96.1599 20.0572C96.8934 20.9395 97.4032 20.2527 97.3846 19.9838Z" fill="white"/>
<path opacity="0.3" d="M109.733 36.4841C109.733 42.0067 108.034 47.1298 105.093 51.3467C105.081 51.3641 105.074 51.3807 105.074 51.398V51.3987C100.362 58.1599 92.5185 62.5196 83.6489 62.5196C82.9235 62.5196 82.1939 62.4644 81.4837 62.3662C81.4829 62.3662 81.4829 62.3662 81.4829 62.3662C81.48 62.3662 81.4786 62.4307 81.4757 62.4307C81.126 62.4018 80.7791 62.3983 80.4337 62.3557C80.3109 62.3413 80.1881 62.3417 80.066 62.3243C79.9576 62.3099 79.8499 62.3029 79.7422 62.2862C79.6483 62.2725 79.5551 62.2625 79.4626 62.2473C79.4417 62.2437 79.4207 62.242 79.3997 62.2391C79.1721 62.2015 78.9452 62.1627 78.7191 62.1193C78.7176 62.1193 78.7169 62.1191 78.7155 62.1191C67.564 59.9889 58.9336 50.7565 57.6973 39.3132C60.3123 46.8142 66.7786 52.4501 74.7283 54.021H74.7312C74.9263 54.1192 75.1221 54.0994 75.3186 54.1319C75.3367 54.134 75.3555 54.1404 75.3736 54.1433C75.4531 54.1563 75.534 54.1695 75.6149 54.1811C75.7074 54.1956 75.8006 54.2072 75.8946 54.2195C76.0001 54.2347 76.1055 54.2438 76.2118 54.2561C76.5102 54.293 76.8093 54.3609 77.1113 54.3855C77.1142 54.3855 77.1157 54.4137 77.1178 54.4137C77.1178 54.4137 77.1178 54.4137 77.1186 54.4137C77.732 54.4137 78.3434 54.463 78.9698 54.463C82.7995 54.463 86.4087 53.4894 89.5663 51.8094C92.724 50.1295 95.43 47.7073 97.4532 44.7881C97.4532 44.7729 97.4778 44.7526 97.4871 44.7374C100.027 41.0964 101.513 36.6692 101.513 31.9002C101.513 29.6486 101.183 27.4722 100.567 25.4208C100.566 25.4172 100.558 25.4129 100.558 25.4093V25.4085C100.362 24.6065 100.045 23.8225 99.7203 23.0602C98.2636 19.646 95.9952 16.6654 93.1483 14.3633C91.0644 12.6775 88.6744 11.3567 86.0739 10.4961C91.3414 10.981 96.156 13.0323 100.047 16.1791C103.343 18.8454 106.01 22.2972 107.697 26.2503C108.074 27.1333 108.314 28.0409 108.707 28.9701V28.9708C108.707 28.9752 108.676 28.9781 108.678 28.9824C109.39 31.3582 109.733 33.8764 109.733 36.4841Z" fill="url(#paint1_linear)"/>
<path d="M24.8376 60.7908L24.7368 87.5758L92.0549 88.7158L105.241 49.3884L40.3483 52.1823L40.6006 53.3178L24.8376 60.7908Z" fill="url(#paint2_linear)"/>
<path d="M24.8384 60.7908L40.4753 51.6356L105.242 49.3884L90.8512 58.6515L24.8384 60.7908Z" fill="url(#paint3_linear)"/>
<path d="M23.7476 63.03L92.0375 60.2149V57.96L23.7354 60.8137L23.7476 63.03Z" fill="url(#paint4_linear)"/>
<path d="M105.243 49.3887L116.922 60.7195L117.125 85.679L92.0571 88.7161L92.0588 57.9601L105.243 49.3887Z" fill="url(#paint5_linear)"/>
<path d="M92.0381 60.5014L105.308 51.195L117.138 62.3777L117.127 60.7507L105.253 49.3938L92.0381 57.9608V60.5014Z" fill="url(#paint6_linear)"/>
<path d="M114.895 81.4375L114.752 62.1588L108.765 61.593L108.876 81.9385L114.895 81.4375Z" fill="white"/>
<path d="M109.286 81.132L114.473 80.7825L114.343 62.8237L109.181 62.3499L109.286 81.132Z" fill="url(#paint7_linear)"/>
<path d="M112.086 81.6536L111.957 61.8882L111.441 61.8369L111.567 81.6898L112.086 81.6536Z" fill="white"/>
<path d="M108.842 75.6898L114.851 75.5179L114.846 74.8171L108.838 74.9502L108.842 75.6898Z" fill="white"/>
<path d="M108.802 68.4146L114.799 68.6242L114.794 67.9266L108.798 67.6785L108.802 68.4146Z" fill="white"/>
<path d="M104.245 82.2851L104.162 61.1438L96.7686 60.4272L96.8022 82.8551L104.245 82.2851Z" fill="white"/>
<path d="M97.511 82.0046L103.73 81.5692L103.655 61.8671L97.4751 61.3062L97.511 82.0046Z" fill="url(#paint8_linear)"/>
<path d="M100.972 82.5455L100.91 60.8321L100.302 60.7732L100.36 82.5925L100.972 82.5455Z" fill="white"/>
<path d="M96.7922 75.9634L104.22 75.7906L104.217 75.022L96.791 75.1478L96.7922 75.9634Z" fill="white"/>
<path d="M96.7795 67.9438L104.189 68.2312L104.186 67.4664L96.7783 67.1326L96.7795 67.9438Z" fill="white"/>
<path d="M57.5498 68.1639L57.4531 87.9857L79.823 88.2658L80.0357 67.7249L57.5498 68.1639Z" fill="white"/>
<path d="M58.051 68.8226L57.9551 87.9925L79.1763 88.2582L79.3785 68.4292L58.051 68.8226Z" fill="#97A6B7"/>
<path d="M56.6353 69.6253L80.8872 69.2085L80.9152 66.5525L56.6472 67.07L56.6353 69.6253Z" fill="#D8DEE8"/>
<path d="M56.9282 71.7297L80.5395 71.4045L80.5625 69.2141L56.9382 69.6201L56.9282 71.7297Z" fill="white"/>
<g opacity="0.5">
<path opacity="0.5" d="M56.9346 70.2867L80.5547 69.9062L80.5583 69.5603L56.9361 69.9536L56.9346 70.2867Z" fill="#D8DEE8"/>
<path opacity="0.5" d="M56.9316 71.0642L80.547 70.7135L80.5506 70.3677L56.9332 70.7311L56.9316 71.0642Z" fill="#D8DEE8"/>
</g>
<path d="M28.9614 68.722L29.0008 87.6294L49.326 87.8839L49.3826 68.3232L28.9614 68.722Z" fill="white"/>
<path d="M29.4219 69.3501L29.4579 87.6351L48.8373 87.8777L48.8896 68.991L29.4219 69.3501Z" fill="#97A6B7"/>
<path d="M28.1394 70.1154L50.2637 69.7352L50.2716 67.2063L28.1338 67.6784L28.1394 70.1154Z" fill="#D8DEE8"/>
<path d="M28.5103 72.1212L49.8638 71.8271L49.8701 69.7417L28.5059 70.1089L28.5103 72.1212Z" fill="white"/>
<g opacity="0.5">
<path opacity="0.5" d="M28.576 70.739L49.9003 70.3978L49.9172 70.0671L28.5752 70.4212L28.576 70.739Z" fill="#D8DEE8"/>
<path opacity="0.5" d="M28.578 71.4797L49.8981 71.1656L49.9151 70.835L28.5771 71.1621L28.578 71.4797Z" fill="#D8DEE8"/>
</g>
<path d="M64.1255 24.6729L1.17285 30.4278C4.97622 32.7774 10.8622 37.4868 14.4052 47.0278C21.3807 65.8123 13.6307 83.3088 22.0142 95.9435C24.2448 99.3052 29.0545 105.393 36.485 106.886L96.606 98.6889C76.9193 92.9812 71.5796 82.1898 70.5526 72.9893C69.5222 63.7559 72.4542 52.7121 68.9419 37.8511C67.5056 31.7739 65.5454 27.4014 64.1255 24.6729Z" fill="url(#paint9_linear)"/>
<path d="M8.95508 14.4275C27.4412 13.2667 45.9272 12.106 64.4133 10.9453C66.902 13.0541 70.3977 16.8031 72.6754 23.288C77.9174 38.2127 71.8114 52.9736 73.5758 67.4803C74.7009 76.7315 79.3422 88.3213 95.9672 96.0682C76.1165 98.6659 56.2659 101.263 36.4152 103.861C32.3137 102.29 26.8469 99.0242 23.6836 91.4255C20.3299 83.3694 22.678 77.9196 21.5226 52.5962C20.7095 34.7742 19.1102 27.7451 15.7788 22.1101C13.4722 18.2084 10.8725 15.845 8.95508 14.4275Z" fill="white"/>
<path d="M69.554 66.1161C69.5658 66.2622 69.5782 66.4083 69.5913 66.5544C69.6037 66.692 69.5044 66.8142 69.3671 66.8293L26.0053 71.5919C25.8543 71.6085 25.7228 71.4905 25.7241 71.3386C25.7255 71.1915 25.7268 71.0431 25.728 70.8935C25.729 70.7649 25.826 70.6564 25.9538 70.6424L69.2741 65.8844C69.4162 65.8687 69.5425 65.9736 69.554 66.1161Z" fill="#D8DEE8"/>
<path d="M69.3806 61.4486C69.3801 61.5962 69.3801 61.7438 69.3806 61.8915C69.3811 62.0215 69.2836 62.1308 69.1544 62.1446L26.0188 66.7386C25.8693 66.7545 25.739 66.6387 25.7384 66.4884C25.7378 66.3414 25.7371 66.1932 25.7363 66.0441C25.7356 65.9139 25.8335 65.8036 25.963 65.7898L69.1005 61.1955C69.2507 61.1795 69.3811 61.2975 69.3806 61.4486Z" fill="#D8DEE8"/>
<path d="M70.1738 70.736C70.2012 70.8806 70.2293 71.0247 70.2582 71.1685C70.2874 71.3142 70.1864 71.4535 70.0387 71.4702L25.9471 76.4559C25.7955 76.473 25.6632 76.3536 25.6651 76.201C25.6669 76.0542 25.6687 75.906 25.6707 75.7557C25.6723 75.628 25.7688 75.5207 25.8957 75.5064L69.8968 70.5309C70.0286 70.516 70.1491 70.6056 70.1738 70.736Z" fill="#D8DEE8"/>
<path d="M62.9619 95.1242L82.9566 92.5633C83.0425 92.5523 83.1289 92.586 83.1851 92.6553C83.2924 92.7878 83.4253 92.8921 83.5751 92.9735C83.8052 93.0986 83.7318 93.4212 83.4933 93.4517L63.8709 95.965C63.5678 95.6848 63.2647 95.4047 62.9619 95.1242Z" fill="#D8DEE8"/>
<path d="M35.4297 98.6501L58.0135 95.7576C58.3061 96.0408 58.6007 96.3218 58.8967 96.6016L36.1854 99.5104C36.1356 99.5168 36.0845 99.5084 36.0394 99.4862C35.8017 99.3694 35.5682 99.2485 35.3386 99.1237C35.1234 99.0067 35.1867 98.6812 35.4297 98.6501Z" fill="#D8DEE8"/>
<path d="M69.5429 56.7483C69.5336 56.8974 69.5247 57.0465 69.5161 57.1957C69.5089 57.3197 69.4133 57.4202 69.2898 57.4329L25.963 61.8989C25.8153 61.9141 25.6863 61.8006 25.6835 61.6521C25.6808 61.5052 25.6779 61.3575 25.6749 61.2088C25.6722 61.0769 25.771 60.9643 25.9023 60.9508L69.2647 56.4811C69.4203 56.4651 69.5526 56.5922 69.5429 56.7483Z" fill="#D8DEE8"/>
<path d="M75.5323 84.1806C75.6223 84.3174 75.7134 84.4536 75.8053 84.5892C75.912 84.7465 75.816 84.9606 75.6273 84.9837L27.8386 90.8287C27.7291 90.8421 27.6231 90.7837 27.5771 90.6835C27.5125 90.5428 27.449 90.4009 27.3867 90.2575C27.3189 90.1013 27.4188 89.9237 27.5878 89.9031L75.2909 84.0685C75.3863 84.0569 75.4795 84.1004 75.5323 84.1806Z" fill="#D8DEE8"/>
<path d="M73.0725 79.7833C73.1382 79.9232 73.2046 80.0626 73.272 80.2015C73.3482 80.3586 73.2482 80.5436 73.0749 80.5643L26.3517 86.1388C26.2185 86.1547 26.0951 86.0646 26.0717 85.9326C26.0457 85.7856 26.0212 85.6376 25.9981 85.4882C25.9762 85.3468 26.0771 85.2154 26.2191 85.1985L72.8138 79.6392C72.9222 79.6263 73.0261 79.6845 73.0725 79.7833Z" fill="#D8DEE8"/>
<path d="M71.3194 75.2955C71.3645 75.4379 71.4105 75.5799 71.4573 75.7214C71.5077 75.8741 71.4063 76.0344 71.2466 76.0529L25.9434 81.3188C25.7952 81.336 25.6638 81.2224 25.6606 81.0732C25.6574 80.9263 25.6547 80.7776 25.6524 80.6269C25.6504 80.4968 25.7475 80.3858 25.8768 80.3707L71.0492 75.1201C71.1697 75.1061 71.2827 75.1798 71.3194 75.2955Z" fill="#D8DEE8"/>
<path d="M69.9208 52.0322C69.9067 52.1816 69.8928 52.3311 69.8791 52.4807C69.8679 52.6016 69.7728 52.6977 69.652 52.7098L25.8361 57.0721C25.6901 57.0866 25.5625 56.9752 25.5576 56.8287C25.5527 56.682 25.5478 56.5346 25.5426 56.3864C25.538 56.2528 25.6378 56.1378 25.7708 56.1246L69.6436 51.7567C69.8022 51.7409 69.9357 51.8734 69.9208 52.0322Z" fill="#D8DEE8"/>
<path d="M68.6136 23.969C68.7263 23.9604 68.8314 24.0272 68.8708 24.1332C68.9243 24.2775 68.9771 24.4224 69.0285 24.5687C69.0288 24.5697 69.0292 24.5708 69.0296 24.5718C69.0844 24.7282 68.9739 24.8937 68.8087 24.9063L22.7473 28.4149C22.6266 28.4241 22.5166 28.3458 22.4842 28.2292C22.4438 28.0843 22.403 27.9405 22.3618 27.7979C22.317 27.6432 22.4249 27.4873 22.5855 27.4751L68.6136 23.969Z" fill="#D8DEE8"/>
<path d="M70.1711 28.6836C70.2017 28.8302 70.2311 28.9768 70.2597 29.1235C70.2886 29.2719 70.181 29.4124 70.0303 29.4245L23.8167 33.1384C23.6869 33.1488 23.5705 33.0582 23.5472 32.9301C23.5206 32.7839 23.4936 32.6389 23.4664 32.495C23.4384 32.3468 23.5447 32.2079 23.695 32.1958L69.9016 28.4825C70.029 28.4723 70.145 28.5584 70.1711 28.6836Z" fill="#D8DEE8"/>
<path d="M66.6486 20.2043L21.0809 23.6684C20.9735 23.6765 20.8731 23.6152 20.8301 23.5165C20.3122 22.3281 19.7398 21.2147 19.1061 20.1429C18.7868 19.6027 18.4545 19.077 18.1103 18.5646C18.001 18.4019 18.1072 18.1821 18.3028 18.1689L63.1441 15.1471C63.2181 15.1421 63.2909 15.1694 63.343 15.2222C64.6792 16.5763 65.8501 18.1135 66.8496 19.8247C66.9437 19.9858 66.8347 20.1901 66.6486 20.2043Z" fill="#D8DEE8"/>
<path d="M70.3815 47.3146C70.367 47.464 70.3525 47.6135 70.3378 47.7632C70.326 47.884 70.2302 47.9798 70.1095 47.9914L25.6415 52.2575C25.4972 52.2714 25.3708 52.1611 25.364 52.0163C25.3571 51.8683 25.3501 51.7211 25.3431 51.5744C25.3366 51.4392 25.4374 51.3233 25.5721 51.3104L70.1046 47.0381C70.2634 47.0228 70.3969 47.1558 70.3815 47.3146Z" fill="#D8DEE8"/>
<path d="M70.786 42.6095C70.7756 42.7584 70.7649 42.9074 70.7539 43.0566C70.7447 43.1804 70.6471 43.2799 70.5235 43.2913L25.381 47.4541C25.2386 47.4672 25.1136 47.3594 25.1047 47.2167C25.0955 47.0689 25.0861 46.9219 25.0767 46.7756C25.0679 46.6386 25.1697 46.5201 25.3064 46.5075L70.5089 42.3392C70.6647 42.3249 70.7969 42.4533 70.786 42.6095Z" fill="#D8DEE8"/>
<path d="M70.9859 37.9286C70.9843 38.0773 70.9822 38.2261 70.9795 38.375C70.9773 38.5047 70.8771 38.6119 70.7479 38.6233L25.0269 42.6641C24.8872 42.6764 24.7642 42.5722 24.7521 42.4325C24.7393 42.2851 24.7264 42.1386 24.7134 41.9929C24.701 41.8533 24.804 41.7308 24.9436 41.7184L70.7095 37.6736C70.8588 37.6604 70.9874 37.7788 70.9859 37.9286Z" fill="#D8DEE8"/>
<path d="M70.8305 33.2839C70.8426 33.4317 70.854 33.5795 70.8646 33.7275C70.8745 33.8659 70.7707 33.9866 70.6324 33.9983L24.5321 37.8907C24.3964 37.9022 24.2761 37.8034 24.2593 37.6682C24.2412 37.5212 24.2228 37.3754 24.2042 37.2304C24.1859 37.0873 24.2904 36.9584 24.4343 36.9463L70.5557 33.0522C70.6954 33.0404 70.819 33.1442 70.8305 33.2839Z" fill="#D8DEE8"/>
<path d="M57.7919 98.2621L49.7853 93.3031C47.1241 91.6399 44.455 89.9844 41.8462 88.2513C41.1988 87.8158 40.5432 87.3771 39.9419 86.9083C39.8683 86.8496 39.7956 86.7901 39.7306 86.7313C39.6984 86.7022 39.6676 86.6727 39.644 86.6473C39.6334 86.6356 39.6229 86.6233 39.6206 86.6195C39.6165 86.6147 39.6239 86.6228 39.6241 86.6261C39.6294 86.6351 39.6336 86.6451 39.6364 86.6553C39.6404 86.666 39.6508 86.709 39.6476 86.7352C39.6506 86.7818 39.6236 86.8543 39.5944 86.891C39.5571 86.9396 39.5176 86.9609 39.506 86.9672C39.4796 86.9798 39.4666 86.9828 39.4629 86.9844C39.456 86.9866 39.444 86.9878 39.4459 86.988C39.4425 86.9889 39.4401 86.9883 39.4462 86.9887C39.4487 86.9885 39.4548 86.9888 39.4623 86.9894C39.4908 86.9915 39.5301 86.9965 39.5711 87.0046C39.6528 87.0196 39.7415 87.0425 39.8293 87.0674C40.1835 87.1699 40.5394 87.3119 40.8834 87.4707C41.5713 87.7912 42.2273 88.1902 42.7922 88.678C43.3537 89.1638 43.8273 89.7546 44.0371 90.4239C44.2589 91.0938 44.1589 91.8045 43.8362 92.4527C43.5166 93.1064 43.0277 93.7008 42.5407 94.3218C42.2967 94.6331 42.0505 94.9542 41.8309 95.3122C41.6122 95.6669 41.4156 96.0717 41.3418 96.5368C41.3029 96.7683 41.3118 97.0124 41.3503 97.2479C41.3757 97.3645 41.4006 97.4818 41.4448 97.5908C41.4807 97.7043 41.5327 97.8077 41.5856 97.9109C41.8009 98.3227 42.1136 98.6455 42.4447 98.9169C43.1158 99.4553 43.8822 99.7994 44.6627 100.046C45.4451 100.294 46.2522 100.437 47.0638 100.497C48.6848 100.616 50.3453 100.398 51.8683 99.757C52.6297 99.433 53.3345 98.9992 53.9786 98.4981C54.6228 97.9955 55.2115 97.4245 55.7251 96.7803C55.9808 96.4572 56.2199 96.1173 56.4226 95.7451C56.6241 95.3732 56.8023 94.975 56.8787 94.5078C56.9148 94.2751 56.9243 94.0194 56.8562 93.7514C56.8376 93.6845 56.8206 93.6179 56.7891 93.5523L56.7452 93.4543C56.7277 93.4205 56.703 93.3833 56.681 93.3488C56.5884 93.2103 56.4542 93.0907 56.3187 93.0201C56.0423 92.8695 55.7892 92.8475 55.5604 92.8339C55.3302 92.8239 55.1154 92.8413 54.9078 92.8661C54.0802 92.9691 53.3214 93.1753 52.5578 93.3715C51.7986 93.5783 51.0448 93.7858 50.2868 93.9771C49.5295 94.1705 48.7684 94.3449 48.0018 94.4994C47.234 94.645 46.462 94.7716 45.6858 94.8664C44.1336 95.0552 42.5707 95.1597 41.0078 95.1699C39.4452 95.184 37.882 95.1051 36.3327 94.9189L36.3318 94.9188C36.1083 94.892 35.9053 95.0514 35.8784 95.2749C35.8516 95.4984 36.011 95.7013 36.2345 95.7282C36.2503 95.7301 36.2663 95.731 36.2818 95.7311C37.8661 95.7363 39.4451 95.7212 41.021 95.6447C41.8085 95.6022 42.5958 95.5622 43.3808 95.49C43.7737 95.4602 44.1658 95.4208 44.5582 95.3852C44.9496 95.3407 45.342 95.3039 45.7325 95.2516C47.2962 95.0612 48.8611 94.8538 50.4158 94.5745C51.1926 94.4354 51.9661 94.2797 52.735 94.127C53.1189 94.049 53.5005 93.9665 53.8804 93.8951C54.2595 93.8243 54.6366 93.7505 55.0014 93.7136C55.1835 93.6935 55.3616 93.6863 55.5237 93.6918C55.6839 93.6971 55.8329 93.7263 55.9014 93.7692C56.0011 93.7892 56.091 94.0705 56.0336 94.3768C55.9857 94.6867 55.8468 95.0204 55.6744 95.3359C55.5026 95.6539 55.2894 95.9594 55.0589 96.2517C54.5951 96.8363 54.0507 97.3677 53.4582 97.8313C52.8648 98.2948 52.2217 98.691 51.5383 98.9833C50.1639 99.5668 48.6267 99.7714 47.1209 99.6782C46.3675 99.6286 45.617 99.5021 44.9005 99.282C44.1859 99.0647 43.4939 98.7527 42.9347 98.3101C42.3745 97.8733 41.9883 97.2688 42.0928 96.6478C42.1389 96.3348 42.2809 96.0126 42.4711 95.7007C42.6593 95.3875 42.8876 95.0814 43.1236 94.7721C43.5938 94.1536 44.1098 93.5227 44.4745 92.7573C44.6575 92.3776 44.7872 91.9546 44.8303 91.5161C44.8755 91.0773 44.8202 90.628 44.6823 90.2155C44.5466 89.8006 44.3324 89.4216 44.0779 89.0853C43.8233 88.7479 43.5286 88.4508 43.214 88.1851C42.5828 87.6543 41.8779 87.2401 41.1403 86.907C40.7696 86.7417 40.3928 86.5957 39.9914 86.4847C39.8901 86.4575 39.7883 86.432 39.6768 86.4128C39.6213 86.403 39.5633 86.3948 39.4937 86.3909C39.4768 86.3899 39.4584 86.3893 39.4364 86.3899C39.4179 86.3897 39.3911 86.3916 39.3633 86.3953C39.3529 86.3961 39.3291 86.401 39.3102 86.406C39.2943 86.4098 39.2698 86.4165 39.2327 86.4353C39.2091 86.4458 39.1606 86.4751 39.1154 86.5334C39.0767 86.5783 39.0501 86.6652 39.0502 86.7229C39.0492 86.761 39.0594 86.8167 39.068 86.8388C39.0755 86.8604 39.0845 86.8816 39.0945 86.902C39.108 86.9259 39.1264 86.956 39.1379 86.9702C39.1645 87.0062 39.1869 87.0304 39.2094 87.0548C39.2533 87.1007 39.2943 87.1382 39.3352 87.1744C39.4167 87.2462 39.4969 87.3099 39.5775 87.3726C40.2209 87.8611 40.8775 88.287 41.5375 88.7196C42.8582 89.5767 44.1928 90.4053 45.5304 91.2294C46.8687 92.052 48.2098 92.8691 49.5568 93.6765C52.2511 95.2903 54.945 96.9036 57.6623 98.4779C57.7223 98.5129 57.7994 98.4926 57.8344 98.4326C57.8688 98.3737 57.8494 98.298 57.7919 98.2621Z" fill="#FC79AB"/>
<path d="M62.9198 110.205C62.9198 110.205 63.1366 111.084 63.1435 111.402C63.1504 111.72 59.647 112.164 59.5924 111.929C59.5379 111.695 60.1244 111.268 60.5478 111.1C60.9712 110.932 62.2133 110.475 62.2133 110.475L62.9198 110.205Z" fill="url(#paint10_linear)"/>
<path d="M61.9941 109.386L62.195 110.484C62.195 110.484 62.6251 110.721 62.9683 110.484L63.0518 109.264L61.9941 109.386Z" fill="url(#paint11_linear)"/>
<path d="M69.3089 111.146C69.3089 111.146 69.5258 112.024 69.5327 112.343C69.5396 112.661 66.0361 113.105 65.9816 112.87C65.927 112.636 66.5135 112.209 66.937 112.041C67.3604 111.873 68.6024 111.416 68.6024 111.416L69.3089 111.146Z" fill="url(#paint12_linear)"/>
<path d="M68.3848 110.326L68.5856 111.424C68.5856 111.424 69.0157 111.662 69.3589 111.424L69.4424 110.205L68.3848 110.326Z" fill="url(#paint13_linear)"/>
<path d="M60.3167 80.4318C59.9763 81.2884 59.6359 82.145 59.2954 83.0016C59.3454 87.7305 59.5927 92.8571 60.1352 98.3174C60.5389 102.38 61.0652 106.217 61.6674 109.81C62.2165 109.74 62.7656 109.671 63.3147 109.601C63.9848 107.956 64.7335 105.484 64.5831 102.519C64.4262 99.4269 63.458 99.0922 63.2806 96.1333C63.0507 92.2983 64.5744 91.1481 65.0607 86.4741C65.2467 84.6865 65.2826 82.3684 64.7971 79.5984C63.3036 79.8761 61.8102 80.1541 60.3167 80.4318Z" fill="url(#paint14_linear)"/>
<path opacity="0.3" d="M64.797 79.5984C63.9904 79.7484 63.1838 79.8984 62.3773 80.0486C61.1173 82.7138 60.921 85.3985 61.2719 86.5509C61.7684 88.1814 62.7726 88.636 62.8532 90.3066C62.9331 91.9595 61.9959 92.4649 61.5354 94.4575C61.2167 95.8372 61.4284 97.0652 61.8649 99.465C62.7442 104.299 64.0403 105.695 63.1827 107.372C62.9389 107.848 62.4777 108.429 61.522 108.921C61.5702 109.218 61.618 109.516 61.6672 109.809C62.2163 109.74 62.7654 109.671 63.3145 109.601C63.9846 107.956 64.7334 105.484 64.5829 102.519C64.426 99.4268 63.4578 99.0921 63.2804 96.1333C63.0505 92.2983 64.5742 91.1482 65.0605 86.4741C65.2465 84.6866 65.2824 82.3684 64.797 79.5984Z" fill="url(#paint15_linear)"/>
<path d="M62.6226 81.7403C63.7189 85.8397 64.7497 90.2386 65.6539 94.9189C66.7458 100.57 67.5153 105.918 68.0485 110.899C68.6548 110.867 69.261 110.836 69.8673 110.805C71.873 105.898 71.7624 102.69 71.252 100.636C71.0553 99.8443 70.5695 98.3004 70.2991 95.9566C70.1106 94.3228 70.1152 93.0675 70.1256 91.5581C70.1485 88.2488 70.4384 87.5035 70.2869 84.9857C70.1448 82.6228 70.0588 81.4283 69.3295 80.7855C67.4082 79.092 62.9597 81.5497 62.6226 81.7403Z" fill="url(#paint16_linear)"/>
<path d="M45.0207 72.2163C45.0207 72.2163 43.6888 72.1021 43.4961 71.8862C43.3034 71.6703 43.1788 71.659 43.1499 71.461C43.121 71.263 42.5602 71.3584 42.7934 71.7877C43.0267 72.217 42.5003 71.9919 42.397 71.9815C42.1595 71.9577 41.2536 71.9311 41.2797 71.9872C41.3059 72.0433 40.8735 72.6077 41.5169 72.8992C42.0801 73.1544 41.9152 73.0419 42.2814 73.0594C42.6475 73.0769 43.7816 72.7069 43.7816 72.7069L44.7526 72.7809L45.0207 72.2163Z" fill="url(#paint17_linear)"/>
<path d="M44.2394 71.5945C44.1808 72.0385 44.1221 72.4824 44.0635 72.9264C44.9456 73.6623 46.896 75.0728 49.6094 75.2843C54.3929 75.6574 59.1367 72.1172 60.0199 68.1354C60.4572 66.1633 60.0999 63.3965 58.8744 62.9516C58.5342 62.8281 58.0231 62.8456 56.9695 63.5535C54.1576 65.4423 53.9184 67.923 52.365 69.601C51.247 70.8086 49.0488 72.0321 44.2394 71.5945Z" fill="url(#paint18_linear)"/>
<path d="M58.9004 83.8828C58.2438 82.9676 58.8974 81.9818 58.9171 80.1466C58.9394 78.0666 58.1164 77.7865 57.0555 74.4276C56.35 72.1936 55.6727 70.049 56.0672 67.4435C56.2562 66.1947 56.5769 64.0768 58.2169 62.9347C59.0633 62.3454 60.2797 62.3001 62.678 62.2337C65.6438 62.1514 67.1267 62.1103 68.2745 62.602C68.4425 62.674 71.9389 64.2279 72.4076 67.1799C72.8846 70.1845 69.6245 70.8547 69.5085 74.9217C69.4564 76.7475 70.0309 79.503 70.4034 81.2903C70.7612 83.0064 70.9473 83.4382 70.6472 83.9905C69.924 85.3216 67.3707 85.1633 62.264 84.847C60.2608 84.7228 59.3903 84.5657 58.9004 83.8828Z" fill="url(#paint19_linear)"/>
<path opacity="0.3" d="M65.8842 74.559C66.1607 75.3277 66.9755 75.8531 67.6632 77.7217C67.8117 78.1252 68.869 80.9981 67.8609 81.8069C67.2785 82.274 66.6623 81.5268 65.1595 81.5432C62.5553 81.5715 61.496 83.847 59.7566 83.3882C59.4548 83.3085 59.0497 83.1197 58.6223 82.6454C58.5818 83.1069 58.6267 83.5013 58.9 83.8824C59.39 84.5653 60.2605 84.7224 62.2636 84.8466C67.3703 85.1629 69.9237 85.3213 70.6469 83.9901C70.9469 83.4378 70.7608 83.006 70.4031 81.2899C70.0305 79.5026 69.456 76.7471 69.5081 74.9213C69.6242 70.8543 72.8842 70.1841 72.4072 67.1796C72.2797 66.3763 71.9247 65.6805 71.4769 65.0859C67.4355 67.1108 65.0153 72.1434 65.8842 74.559Z" fill="url(#paint20_linear)"/>
<path d="M74.0958 83.8494C74.0958 83.8494 74.909 84.1224 74.9953 85.4694C74.8626 85.4575 74.5529 85.4646 74.5529 85.4646C74.5529 85.4646 74.6103 84.4855 74.0312 84.2869C74.0779 84.1732 74.0958 83.8494 74.0958 83.8494Z" fill="url(#paint21_linear)"/>
<path d="M71.0791 83.7212C71.0998 83.9693 71.1204 84.2173 71.1411 84.4654C71.5503 84.3598 71.9968 84.2372 72.4754 84.2204C73.0958 84.1987 73.6625 84.275 74.1657 84.4006C74.188 84.3699 74.2353 84.296 74.2572 84.1749C74.2923 83.9798 74.2334 83.8165 74.2225 83.7874C73.9665 83.6932 73.6884 83.6131 73.3899 83.5567C72.5313 83.3943 71.7517 83.5288 71.0791 83.7212Z" fill="url(#paint22_linear)"/>
<path d="M71.0402 83.9355C71.0414 83.8459 71.0483 83.7341 71.0788 83.7214C71.1076 83.7095 71.1463 83.7911 71.1629 83.8364C71.1698 83.8552 71.1851 83.9008 71.1946 84.0456C71.2069 84.2321 71.1926 84.3233 71.1795 84.3795C71.1716 84.4133 71.1592 84.4646 71.1409 84.4656C71.1261 84.4664 71.1133 84.4338 71.0942 84.3707C71.0684 84.2857 71.0374 84.144 71.0402 83.9355Z" fill="url(#paint23_linear)"/>
<path d="M70.2837 85.4931C70.4562 85.527 70.875 85.6274 70.875 85.6274C70.875 85.6274 70.6021 84.7529 71.1163 84.3577C71.1296 84.2921 71.1431 84.188 71.1269 84.0623C71.1144 83.965 71.0882 83.8871 71.0656 83.833C70.8473 83.9524 70.3714 84.3588 70.2837 85.4931Z" fill="url(#paint24_linear)"/>
<path d="M66.6763 85.6869C66.6763 85.6869 66.6978 85.2242 67.4309 85.2325C67.5461 85.318 67.5519 85.6956 67.5519 85.6956L66.6763 85.6869Z" fill="url(#paint25_linear)"/>
<path d="M66.0231 94.7969L68.0298 95.9807L69.2346 91.5098L67.245 85.5259L66.6767 85.6872L65.8109 94.3259C65.7913 94.5219 65.8761 94.7101 66.0231 94.7969Z" fill="url(#paint26_linear)"/>
<path opacity="0.3" d="M69.2342 91.5098L67.2446 85.5259L66.6763 85.6872C66.8164 86.2185 66.8835 87.0818 66.9151 87.5622C67.0494 89.6057 67.4948 90.173 67.2792 91.5978C67.0997 92.7838 66.7071 92.9487 66.7415 93.7463C66.7789 94.6148 67.2837 95.3337 67.8821 95.8938L68.0294 95.9807L69.2342 91.5098Z" fill="url(#paint27_linear)"/>
<path d="M67.2446 85.5259L77.9178 85.6375L79.5399 94.83L68.0294 95.9807L67.2446 85.5259Z" fill="url(#paint28_linear)"/>
<g opacity="0.2">
<path opacity="0.2" d="M77.9184 85.6372L74.3953 85.6003C74.3298 85.7905 74.2295 86.0537 74.0831 86.3514C72.4812 89.607 68.7578 90.0274 68.8258 90.5701C68.9273 91.3809 77.1048 90.2063 77.3087 91.2938C77.407 91.8184 75.7149 93.0306 73.9288 93.5068C71.7659 94.0835 70.1592 93.4094 69.0824 94.6675C68.7163 95.0953 68.5545 95.5927 68.4756 95.9287L79.5404 94.8297L77.9184 85.6372Z" fill="url(#paint29_linear)"/>
</g>
<path d="M67.4311 85.2326C67.3072 85.2312 67.1338 85.2137 66.9451 85.3227C66.9048 85.346 66.8691 85.3718 66.8379 85.398L66.9249 85.3679C67.0647 85.3283 67.2573 85.3851 67.3291 85.5265C67.4174 85.7001 67.4492 86.1001 67.4685 86.2982C67.5234 86.8616 67.8603 90.3635 67.8603 90.3635C67.8855 90.6585 68.1081 90.8809 68.3708 90.874L78.2577 90.3101C78.3307 90.3082 78.4028 90.2845 78.4629 90.2365C78.5884 90.1364 78.645 89.9633 78.6159 89.7991L78.1294 85.7529C78.0882 85.5199 77.9115 85.3509 77.7062 85.3486L67.4311 85.2326Z" fill="url(#paint30_linear)"/>
<path d="M67.541 85.2338C67.4171 85.2324 67.2702 85.2137 67.1062 85.2561C67.062 85.2675 66.9912 85.2885 66.96 85.3147C66.96 85.3147 67.3076 85.2352 67.4391 85.5276C67.5193 85.706 67.5591 86.1011 67.5784 86.2991C67.6332 86.8624 67.9699 90.3632 67.9699 90.3632C67.9951 90.6581 68.2176 90.8804 68.4802 90.8735L78.4692 90.6106C78.5421 90.6087 78.6141 90.5849 78.6741 90.5369C78.7994 90.4367 78.856 90.2637 78.827 90.0996L78.2328 85.754C78.1916 85.521 78.015 85.3521 77.8099 85.3497L67.541 85.2338Z" fill="url(#paint31_linear)"/>
<path opacity="0.1" d="M78.827 90.0996L78.2328 85.754C78.1916 85.521 78.015 85.3521 77.8099 85.3497L67.541 85.2338C67.4171 85.2324 67.2702 85.2137 67.1062 85.2561C67.062 85.2675 66.9912 85.2885 66.96 85.3147C66.96 85.3147 67.3076 85.2352 67.4391 85.5276C67.4517 85.5558 67.4633 85.5897 67.474 85.627C68.4759 85.677 69.4721 85.6584 70.4627 85.7331C72.4047 85.8762 74.3468 85.8948 76.14 86.6953C76.7096 86.9497 77.0991 87.8499 76.9451 88.2642C76.834 88.5631 76.4541 88.5387 76.3214 88.9317C76.1817 89.3453 76.5165 89.6261 76.3761 89.9165C76.2289 90.2211 75.781 90.0772 75.0534 90.2969C74.6513 90.4184 74.3422 90.597 74.1488 90.7243L78.4692 90.6106C78.5421 90.6087 78.6141 90.5849 78.6741 90.5369C78.7994 90.4367 78.856 90.2637 78.827 90.0996Z" fill="url(#paint32_linear)"/>
<path d="M74.1283 91.4486L72.8774 91.7636L72.7448 91.7756C72.611 91.7877 72.4959 91.6711 72.49 91.5164L72.4348 90.0538C72.4289 89.8991 72.5349 89.7706 72.669 89.7684L72.8024 89.7661L74.0604 89.9267C74.1801 89.9247 74.2808 89.8595 74.2863 90.0039L74.3375 91.3683C74.3429 91.5126 74.2477 91.4379 74.1283 91.4486Z" fill="url(#paint33_linear)"/>
<path d="M74.2231 91.6484L72.8374 91.7737C72.7037 91.7858 72.5886 91.6692 72.5828 91.5146L72.5276 90.0524C72.5217 89.8977 72.6276 89.7692 72.7617 89.767L74.1515 89.7437C74.2712 89.7417 74.3727 89.8581 74.3781 90.0024L74.4293 91.3665C74.4347 91.5108 74.3424 91.6376 74.2231 91.6484Z" fill="url(#paint34_linear)"/>
<path d="M72.5475 81.8552C72.5475 81.8552 72.431 82.627 72.3146 82.6998C72.1981 82.7726 71.834 83.1803 71.9068 83.4424C71.9796 83.7045 71.7029 84.3027 72.2198 84.4477C72.7368 84.5928 73.3311 84.7478 73.3907 84.2844C73.4504 83.821 73.3047 83.2968 73.3193 82.9037C73.3339 82.5105 73.5377 82.1173 73.5377 82.1173L72.5475 81.8552Z" fill="url(#paint35_linear)"/>
<path d="M67.6641 62.3701C66.973 65.7388 67.5695 67.922 68.2901 69.3214C69.7489 72.1546 72.256 72.8229 72.6733 75.336C72.9744 77.1488 73.1053 80.7234 72.2206 81.8829C73.0181 82.2012 73.1016 82.1833 73.7035 82.1833C74.5102 81.7225 76.2294 78.6477 76.9544 74.7243C77.834 69.965 74.1543 64.3451 67.6641 62.3701Z" fill="url(#paint36_linear)"/>
<path d="M65.5115 62.3343C65.1691 62.1944 63.5076 61.8563 63.1392 61.1361C62.7315 60.3393 62.5936 59.2427 62.5936 59.2427C62.5936 59.2427 61.4472 59.5472 61.6151 60.1395C61.783 60.7317 61.4972 62.0891 60.8392 62.3923C60.3785 62.6046 59.8078 62.6897 59.684 62.8317C59.6705 62.8338 59.6621 62.8357 59.6591 62.8376C59.5642 62.8968 59.8595 63.3521 61.0438 64.0122C65.1306 63.3969 65.5608 62.697 65.5787 62.4564C65.5967 62.404 65.5775 62.3612 65.5115 62.3343Z" fill="url(#paint37_linear)"/>
<path d="M61.0598 58.9639C60.5281 58.5192 60.4548 58.4681 60.3877 58.3051C60.1184 57.6505 60.5658 56.6887 61.2311 56.4074C61.2657 56.3929 61.7123 56.2094 61.9032 56.3942C62.0653 56.5512 61.8654 56.8019 61.9954 57.1191C62.1171 57.4159 62.3831 57.4176 62.9047 57.7779C63.3343 58.0747 63.6013 58.2592 63.6822 58.5423C63.8489 59.126 63.1997 60.0433 62.562 60.0709C62.3327 60.0808 62.2612 59.969 61.0598 58.9639Z" fill="url(#paint38_linear)"/>
<path d="M62.5072 60.1673C62.5072 60.1673 62.0309 60.8025 61.2171 60.6703C60.4884 60.552 60.5393 58.8974 61.0413 58.5935C61.2087 58.4921 61.5263 58.4739 61.7739 58.5697C61.9202 58.6263 61.9649 58.6937 62.2057 58.7815C62.4277 58.8624 62.4946 58.8434 62.5577 58.9079C62.6367 58.9885 62.6826 59.172 62.4927 59.6389C62.6463 59.5107 62.8194 59.4726 62.933 59.5401C62.9511 59.5509 62.9982 59.5901 63.0215 59.6447C63.1059 59.8424 62.9113 60.0657 62.5072 60.1673Z" fill="url(#paint39_linear)"/>
<path d="M62.1646 63.8732C62.1646 63.8732 61.9336 65.1062 61.5726 65.1303C61.2116 65.1543 60.9468 65.2025 60.9468 65.2025L60.543 63.6946C60.543 63.6946 61.0694 64.1233 62.1646 63.8732Z" fill="url(#paint40_linear)"/>
<path d="M61.7428 65.0273C61.7428 65.0273 62.5462 74.0475 65.3622 75.4916C65.29 75.7804 65.3622 78.1271 65.3622 78.1271C65.3622 78.1271 62.7372 77.3367 62.5875 77.3889C62.4379 77.4411 59.4084 72.4196 60.9457 65.2024L61.7428 65.0273Z" fill="url(#paint41_linear)"/>
<path d="M40.1816 72.4939C40.1816 72.4939 41.2726 71.5326 41.4936 71.1816C41.7145 70.8307 41.7207 71.5187 41.4995 71.6576C41.2783 71.7966 44.6194 71.334 44.0307 71.9134C43.4419 72.4928 43.0174 73.0389 42.2265 73.0756C41.4356 73.1123 40.5027 73.3523 40.3414 73.4578C40.1802 73.5633 40.1816 72.4939 40.1816 72.4939Z" fill="url(#paint42_linear)"/>
<path d="M18.5871 65.7976C18.3192 65.8989 14.2336 67.5237 13.3938 71.7879C13.3259 72.1324 12.6696 75.796 15.1541 78.3842C17.9401 81.2864 23.3048 81.2145 25.4342 78.7883C25.9308 78.2225 26.1927 77.5954 26.3395 77.0685L25.7784 75.5779C25.0938 74.7514 24.1617 74.5556 23.6639 74.4329C22.4366 74.1304 21.5101 74.6771 20.8072 74.0853C20.4183 73.7579 20.3411 73.2866 20.2721 72.8656C20.037 71.4317 20.8463 70.5491 20.9052 69.6649C20.9492 69.0038 21.1806 67.5554 20.3178 66.6109C19.7715 66.0128 19.0147 65.85 18.5871 65.7976Z" fill="url(#paint43_linear)"/>
<path d="M16.9949 113.32C16.9472 113.058 16.0995 112.82 15.6797 113.172C15.4713 113.346 15.3277 113.7 15.4484 113.86C15.4922 113.918 15.3125 114.021 15.4847 114.023C16.0558 114.029 17.0423 113.581 16.9949 113.32Z" fill="url(#paint44_linear)"/>
<path d="M16.1067 113.417L15.2349 113.293C15.6388 112.807 15.564 111.258 15.564 111.258L16.4912 111.465C16.4912 111.465 16.3856 111.89 16.2059 112.517C16.1443 112.732 16.1168 113.068 16.1067 113.417Z" fill="url(#paint45_linear)"/>
<path d="M16.1834 113.309C16.1834 113.309 15.1337 113.067 15.0202 113.275C14.9066 113.483 14.8185 114.041 15.4845 114.023C16.1504 114.005 16.2426 113.485 16.1834 113.309Z" fill="url(#paint46_linear)"/>
<path d="M28.9589 114.305C28.875 114.052 28.0023 113.935 27.6359 114.342C27.4539 114.544 27.3613 114.915 27.5031 115.056C27.5547 115.108 27.3911 115.234 27.5619 115.212C28.1282 115.138 29.0423 114.557 28.9589 114.305Z" fill="url(#paint47_linear)"/>
<path d="M28.0915 114.524H27.2109C27.5428 113.986 27.252 112.463 27.252 112.463L28.199 112.538C28.199 112.538 28.154 112.974 28.0638 113.62C28.0329 113.841 28.0527 114.178 28.0915 114.524Z" fill="url(#paint48_linear)"/>
<path d="M30.3739 81.2256C30.7818 82.5726 31.3643 84.7466 31.7393 87.4743C32.8088 95.2544 30.5355 95.5026 30.9601 104.124C31.0956 106.876 28.576 113.222 28.3538 113.362C28.2463 113.372 28.1297 113.379 28.0054 113.375C27.7862 113.369 27.4772 113.335 27.1179 113.228C26.7188 113.159 25.2798 109.261 25.6133 106.944C25.8493 105.303 25.7809 103.543 25.6441 100.023C25.6219 99.4522 24.1624 88.9244 24.1624 88.9244C23.7185 92.8212 23.2079 96.1322 22.7652 98.6994C21.3431 106.947 16.7193 111.939 16.4781 112.019C16.4304 112.038 15.9966 112.196 15.6418 111.962C15.4839 111.858 15.4302 111.724 15.4302 111.724C15.3065 111.627 15.4667 103.489 16.877 97.3652C18.9241 88.476 18.0328 86.3961 18.6813 82.4257C19.2425 78.9901 30.3739 81.2256 30.3739 81.2256Z" fill="url(#paint49_linear)"/>
<path d="M30.9212 82.5689C29.6922 83.1999 26.5258 84.3294 22.7537 83.768C21.03 83.5119 19.6511 82.939 18.6811 82.4269C18.799 82.0694 18.8917 81.7312 18.9632 81.4114C19.4801 79.0818 18.8482 77.7001 18.5294 76.415C18.0134 74.3299 18.0047 74.4874 17.5796 72.8313C16.8771 70.0988 16.7621 67.3074 17.2443 66.7353C18.5448 65.1952 20.8879 65.1401 22.1054 65.1034C23.4639 65.0638 26.5877 64.5845 28.3085 66.1324C28.3385 66.1595 27.9858 66.3479 28.1597 66.5508C28.3211 66.7392 28.8738 67.4011 29.3743 68.2939C29.7376 68.9412 30.0652 69.6959 30.3956 70.8196C30.8516 72.3723 31.0536 73.7444 31.1464 74.6197C31.1715 74.8623 31.1889 75.0671 31.2014 75.2265C31.5164 79.363 31.2043 81.2713 30.9212 82.5689Z" fill="url(#paint50_linear)"/>
<path d="M28.1531 114.407C28.1531 114.407 27.0799 114.315 26.9966 114.537C26.9134 114.759 26.9041 115.323 27.561 115.212C28.2179 115.101 28.2364 114.574 28.1531 114.407Z" fill="url(#paint51_linear)"/>
<path d="M25.5844 63.5652C25.9806 62.8952 25.804 62.1299 25.7643 61.9645C25.5976 61.2721 25.5356 61.1671 25.4071 61.0206L25.2254 60.8284C25.2254 60.8284 25.2141 60.82 25.2021 60.8118C25.0758 60.7249 24.6039 60.5836 24.5021 60.5785C24.1767 60.5622 23.5146 61.729 23.1355 63.527C23.1047 63.5912 23.0742 63.656 23.044 63.7216C22.8559 64.1295 22.6946 64.5307 22.5561 64.9218C20.3572 65.1078 20.052 65.3657 20.0422 65.5147C20.0216 65.8283 21.2745 66.1907 22.2167 66.3287C24.2716 66.6296 26.3839 66.0876 26.3743 65.7044C26.37 65.5376 25.9616 65.3202 24.2196 65.0921C24.2604 64.8038 24.3011 64.5155 24.3418 64.2273C24.4834 64.1959 25.2925 64.0588 25.5844 63.5652Z" fill="url(#paint52_linear)"/>
<path d="M25.9983 60.4952C25.85 61.044 25.4348 61.5617 25.2778 61.6208C25.2575 61.6284 25.1415 61.6786 25.0209 61.7851C25.0045 61.7996 24.9886 61.8175 24.9723 61.8417C24.7597 62.1557 25.2015 62.7099 25.0539 62.8365C24.9469 62.9284 24.6129 62.6784 24.5425 62.7636C24.4763 62.8438 24.7367 63.1159 24.6599 63.2126C24.602 63.2857 24.4308 63.1591 24.2764 63.2535C24.1994 63.3005 24.2038 63.3552 24.0887 63.5309C24.0236 63.6303 23.9414 63.7361 23.8846 63.792C23.6088 64.064 23.0397 64.0384 22.9707 63.8818C22.9515 63.8382 22.9842 63.8145 22.987 63.686C22.987 63.686 22.9896 63.5668 22.9462 63.4167C22.8842 63.2022 22.651 62.9986 22.4321 62.7312C22.0267 62.2362 21.9724 61.8919 21.9593 61.777C21.9546 61.736 21.953 61.7056 21.9518 61.6837C21.9293 61.2441 22.0873 60.6492 22.3668 60.332C22.8351 59.8005 23.4454 60.2748 24.1703 59.8178C25.0066 59.2906 24.875 58.2301 25.2556 58.2184C25.6753 58.2053 26.2724 59.4803 25.9983 60.4952Z" fill="#26264F"/>
<path d="M24.8906 62.6542C24.8053 62.4333 24.5223 62.5441 24.4572 62.7831C24.392 63.022 24.5576 63.3327 24.7951 63.3454C25.0327 63.3582 25.0054 62.9515 24.8906 62.6542Z" fill="url(#paint53_linear)"/>
<path d="M19.1139 80.57C19.1118 80.57 19.1096 80.5699 19.1075 80.5697C19.0755 80.5661 19.0525 80.5373 19.056 80.5054C19.2163 79.0629 18.9172 78.0145 18.6534 77.0895C18.5882 76.861 18.5267 76.6452 18.473 76.4286C18.1798 75.2456 18.0515 74.7888 17.9156 74.3053C17.827 73.9903 17.7355 73.6647 17.5937 73.1203C17.5856 73.0892 17.6043 73.0573 17.6354 73.0492C17.6661 73.0412 17.6983 73.0598 17.7064 73.0909C17.8479 73.6342 17.9393 73.9594 18.0277 74.2738C18.1639 74.7582 18.2924 75.2158 18.5861 76.4005C18.6393 76.6152 18.7006 76.8301 18.7654 77.0576C19.0322 77.9929 19.3346 79.0529 19.1718 80.5182C19.1685 80.548 19.1432 80.57 19.1139 80.57Z" fill="url(#paint54_linear)"/>
<path d="M24.8882 62.2258L25.0922 62.7154C25.0922 62.7154 25.2962 63.303 25.5655 63.0827C25.7855 62.9026 25.8258 62.9187 25.8331 62.9307C25.8345 62.933 25.8343 62.9358 25.8343 62.9358C25.8378 62.9358 25.8408 62.8186 25.843 62.7154C25.8943 62.8569 25.9572 63.0811 25.9572 63.3601C25.9572 63.6312 25.9572 63.9213 25.745 64.1435C25.7328 64.1564 25.5016 64.3914 25.1901 64.3802C25.1901 64.3802 25.0676 64.3758 24.6025 64.1599C24.6025 64.1599 25.2391 63.9151 25.2717 63.8253C25.3604 63.5812 25.0498 63.3537 24.9289 62.7725C24.8824 62.5484 24.8812 62.3561 24.8882 62.2258Z" fill="#26264F"/>
<path opacity="0.3" d="M30.9213 82.5687C29.6923 83.1996 26.5259 84.3292 22.7538 83.7678C21.0301 83.5117 19.6512 82.9388 18.6812 82.4267C18.7991 82.0692 18.8918 81.731 18.9633 81.4112C21.4726 83.1687 22.5219 81.4595 24.1423 81.0566C25.8283 80.6382 27.9966 81.5078 26.6767 77.6139C25.3559 73.72 27.5463 74.0031 27.5463 74.0031L31.1465 74.6195C31.1716 74.8621 31.189 75.0669 31.2015 75.2263C31.5165 79.3627 31.2044 81.271 30.9213 82.5687Z" fill="url(#paint55_linear)"/>
<path d="M40.2034 72.3438C40.6949 72.6877 40.9585 73.1548 41.0951 73.453C40.7337 74.3011 39.9142 75.876 38.2179 77.0367C35.4365 78.9397 31.3583 79.0037 28.5177 76.8335C25.1239 74.2407 24.5569 69.2687 25.9824 67.1394C26.1464 66.8943 26.6859 66.0885 27.5234 65.996C28.0523 65.9376 28.7722 66.1557 29.9097 67.4874C32.2797 70.2623 31.4425 71.9949 32.8427 72.8067C34.9424 74.0241 38.0624 70.8456 40.2034 72.3438Z" fill="url(#paint56_linear)"/>
<path d="M30.6496 78.0272C30.6455 78.0272 30.6414 78.0268 30.6372 78.0259C30.6037 78.0186 27.2634 77.251 25.7633 73.1123C25.7523 73.0821 25.7679 73.0486 25.7982 73.0377C25.8285 73.0267 25.8618 73.0424 25.8728 73.0726C27.3501 77.1482 30.629 77.9049 30.6619 77.912C30.6934 77.9188 30.7133 77.9498 30.7065 77.9813C30.7005 78.0086 30.6764 78.0272 30.6496 78.0272Z" fill="url(#paint57_linear)"/>
<path d="M43.3558 71.6277C43.3558 71.6277 43.1082 71.1521 42.7636 71.385C42.419 71.618 41.9352 71.7782 42.2572 71.8607C42.5791 71.9432 43.3558 71.6277 43.3558 71.6277Z" fill="url(#paint58_linear)"/>
<path d="M101.763 89.4711L91.7539 88.2474V73.486L101.763 71.5901V89.4711Z" fill="url(#paint59_linear)"/>
<path d="M113.972 88.6931L101.763 89.4709V71.5898L113.972 73.2753V88.6931Z" fill="url(#paint60_linear)"/>
<path d="M116.372 108.993L99.9648 110.147V86.1162L116.372 87.2702V108.993Z" fill="url(#paint61_linear)"/>
<path d="M99.9581 86.116V110.148L86.4614 108.503V87.6501L90.4643 87.1964L95.9714 86.5696L99.9581 86.116Z" fill="url(#paint62_linear)"/>
<path d="M95.9971 86.5698V90.5386L90.4224 90.8174V87.1966L95.9971 86.5698Z" fill="white"/>
<path d="M113.015 76.5694L109.641 76.3562V73.7126L113.015 74.0198V76.5694Z" fill="white"/>
<path d="M114.776 91.6119H111.255V88.6785L114.776 88.8917V91.6119Z" fill="white"/>
<path d="M33.6824 35.7348C33.6824 43.3853 27.7002 49.4036 20.0542 49.1688C12.097 48.9244 5.40479 42.0522 5.40479 33.8284C5.40479 25.6046 12.097 19.6347 20.0542 20.4633C27.7002 21.2594 33.6824 28.0843 33.6824 35.7348Z" fill="url(#paint63_linear)"/>
<path d="M35.7484 35.0751C35.7484 42.7256 29.7661 48.7439 22.1202 48.5091C14.163 48.2647 7.4707 41.3925 7.4707 33.1687C7.4707 24.9449 14.163 18.975 22.1202 19.8036C29.7661 20.5997 35.7484 27.4246 35.7484 35.0751Z" fill="url(#paint64_linear)"/>
<path d="M35.1485 35.0346C35.1485 42.3483 29.4246 48.0918 22.1204 47.8553C14.5327 47.6096 8.16211 41.0511 8.16211 33.2153C8.16211 25.3795 14.5327 19.68 22.1204 20.4574C29.4246 21.2058 35.1485 27.721 35.1485 35.0346Z" fill="url(#paint65_linear)"/>
<path d="M34.7186 35.0056C34.7186 42.0779 29.18 47.6252 22.1204 47.3882C14.7962 47.1423 8.6543 40.8079 8.6543 33.2484C8.6543 25.689 14.7962 20.1827 22.1204 20.9244C29.18 21.6392 34.7186 27.9333 34.7186 35.0056Z" fill="url(#paint66_linear)"/>
<path d="M22.0484 23.3305C22.424 23.3662 22.7281 23.7044 22.7281 24.0859V25.388C23.4793 25.4719 24.2315 25.6025 24.9849 25.7795C25.5403 25.9101 26.092 26.0655 26.64 26.2456C26.9684 26.3536 27.1921 26.6851 27.1586 27.027L26.9987 28.6599C26.9563 29.0931 26.5281 29.3475 26.1249 29.1677C25.7639 29.0067 25.3939 28.8688 25.0145 28.7541C24.3527 28.5538 23.6547 28.4232 22.9202 28.3627L22.7281 28.3469V32.076C24.6878 32.6243 26.1271 33.3619 27.0572 34.2897C27.9828 35.213 28.444 36.3637 28.444 37.7452C28.444 39.2391 27.9341 40.4353 26.9103 41.3375C25.8811 42.2445 24.438 42.7546 22.5719 42.8651V44.3023C22.5719 44.6839 22.2676 44.9813 21.8916 44.9663L21.8796 44.9658C21.5028 44.9509 21.1968 44.6282 21.1968 44.2452V42.8275L20.894 42.8138C20.0192 42.7743 19.1812 42.6851 18.3806 42.5458C17.7877 42.4427 17.2087 42.3096 16.6438 42.1464C16.3021 42.0477 16.0676 41.7222 16.0989 41.3725L16.2871 39.2736C16.3277 38.8198 16.7835 38.5558 17.215 38.726C17.7179 38.9244 18.2271 39.0915 18.7425 39.2274C19.5457 39.4392 20.3598 39.5751 21.1847 39.6354L21.1968 35.4873C19.3157 35.0218 17.9073 34.3323 16.982 33.4191C16.0524 32.5016 15.5859 31.3274 15.5859 29.8998C15.5859 28.4223 16.0917 27.2819 17.0995 26.4815C18.1021 25.6852 19.5274 25.289 21.3662 25.29V23.9588C21.3662 23.576 21.6719 23.2947 22.0484 23.3305ZM21.3662 28.3083C20.7849 28.3506 20.3315 28.5102 20.007 28.7875C19.682 29.0652 19.5193 29.4385 19.5193 29.9069C19.5193 30.3506 19.6698 30.7216 19.9705 31.0194C20.2707 31.3167 20.7363 31.554 21.3662 31.7314V28.3083ZM22.5719 35.8197V39.6237C23.2039 39.625 23.6885 39.4741 24.0268 39.1715C24.3646 38.8694 24.5332 38.4427 24.5332 37.8909C24.5332 37.3879 24.3765 36.9707 24.0626 36.639C23.7483 36.3067 23.2518 36.0336 22.5719 35.8197Z" fill="url(#paint67_linear)"/>
<path opacity="0.3" d="M19.8406 36.7373C20.2662 32.5333 24.1299 30.7536 23.6257 26.8866C23.3149 24.5032 21.5084 22.4946 19.4932 20.9263C13.3808 21.5673 8.6543 26.6285 8.6543 33.2482C8.6543 40.8077 14.7962 47.1421 22.1204 47.388C22.8315 47.4119 23.526 47.3749 24.2013 47.2864C21.2926 44.392 19.4749 40.3491 19.8406 36.7373Z" fill="url(#paint68_linear)"/>
<path d="M46.6754 15.5956C46.6754 20.1643 43.1029 23.7583 38.5369 23.6181C33.785 23.4722 29.7886 19.3682 29.7886 14.4571C29.7886 9.54607 33.785 5.981 38.5369 6.47579C43.1029 6.95123 46.6754 11.0269 46.6754 15.5956Z" fill="url(#paint69_linear)"/>
<path d="M47.9093 15.2016C47.9093 19.7703 44.3368 23.3643 39.7708 23.224C35.0189 23.0781 31.0225 18.9742 31.0225 14.0631C31.0225 9.15202 35.0189 5.58695 39.7708 6.08175C44.3368 6.55718 47.9093 10.6329 47.9093 15.2016Z" fill="url(#paint70_linear)"/>
<path d="M47.5507 15.1775C47.5507 19.545 44.1325 22.9749 39.7707 22.8337C35.2395 22.687 31.4351 18.7704 31.4351 14.091C31.4351 9.41166 35.2395 6.00806 39.7707 6.4723C44.1325 6.91919 47.5507 10.81 47.5507 15.1775Z" fill="url(#paint71_linear)"/>
<path d="M47.294 15.1602C47.294 19.3836 43.9865 22.6963 39.7706 22.5548C35.3968 22.4079 31.729 18.6252 31.729 14.1108C31.729 9.59647 35.3968 6.30826 39.7706 6.75115C43.9865 7.17805 47.294 10.9367 47.294 15.1602Z" fill="url(#paint72_linear)"/>
<path d="M39.7274 8.18836C39.9517 8.20969 40.1333 8.41165 40.1333 8.63949V9.41709C40.5819 9.46718 41.0311 9.54516 41.481 9.65089C41.8127 9.72884 42.1422 9.82164 42.4694 9.92923C42.6655 9.99371 42.7991 10.1917 42.7791 10.3959L42.6836 11.371C42.6583 11.6297 42.4026 11.7816 42.1618 11.6742C41.9463 11.5781 41.7252 11.4958 41.4987 11.4272C41.1035 11.3076 40.6866 11.2297 40.248 11.1935L40.1333 11.1841V13.411C41.3036 13.7384 42.1631 14.1789 42.7186 14.733C43.2713 15.2843 43.5467 15.9715 43.5467 16.7965C43.5467 17.6886 43.2422 18.403 42.6309 18.9418C42.0162 19.4834 41.1544 19.788 40.04 19.854V20.7123C40.04 20.9402 39.8583 21.1177 39.6338 21.1088L39.6266 21.1085C39.4016 21.0996 39.2189 20.9069 39.2189 20.6782V19.8315L39.038 19.8234C38.5156 19.7998 38.0152 19.7465 37.5371 19.6634C37.183 19.6018 36.8373 19.5223 36.4999 19.4248C36.2959 19.3659 36.1558 19.1715 36.1745 18.9627L36.2869 17.7092C36.3111 17.4383 36.5833 17.2806 36.841 17.3822C37.1413 17.5007 37.4454 17.6005 37.7532 17.6817C38.2329 17.8082 38.719 17.8893 39.2117 17.9253L39.2189 15.4481C38.0955 15.1702 37.2544 14.7584 36.7019 14.2131C36.1467 13.6652 35.8682 12.964 35.8682 12.1114C35.8682 11.2291 36.1702 10.5481 36.772 10.0701C37.3708 9.59456 38.2219 9.35798 39.32 9.35857V8.5636C39.32 8.33496 39.5026 8.16698 39.7274 8.18836ZM39.32 11.161C38.9729 11.1863 38.7021 11.2816 38.5083 11.4472C38.3142 11.613 38.2171 11.8359 38.2171 12.1157C38.2171 12.3807 38.307 12.6022 38.4865 12.78C38.6658 12.9575 38.9439 13.0993 39.32 13.2052V11.161ZM40.04 15.6467V17.9183C40.4175 17.9191 40.7069 17.829 40.9089 17.6483C41.1106 17.4678 41.2113 17.213 41.2113 16.8836C41.2113 16.5832 41.1177 16.334 40.9303 16.1359C40.7426 15.9375 40.4461 15.7744 40.04 15.6467Z" fill="url(#paint73_linear)"/>
<path opacity="0.3" d="M38.4092 16.1942C38.6634 13.6837 40.9707 12.6209 40.6696 10.3116C40.484 8.88826 39.4052 7.68876 38.2018 6.7522C34.5516 7.13501 31.729 10.1575 31.729 14.1106C31.729 18.625 35.3968 22.4077 39.7706 22.5546C40.1953 22.5688 40.6101 22.5468 41.0134 22.4939C39.2763 20.7654 38.1908 18.3511 38.4092 16.1942Z" fill="url(#paint74_linear)"/>
<path d="M110.137 33.4084C110.137 39.5923 105.154 44.9385 98.9878 45.3507C92.801 45.7643 87.77 41.0565 87.77 34.8342C87.77 28.612 92.801 23.2627 98.9878 22.8875C105.154 22.5135 110.137 27.2244 110.137 33.4084Z" fill="url(#paint75_linear)"/>
<path d="M111.072 33.4081C111.072 39.5921 106.089 44.9383 99.9234 45.3505C93.7365 45.764 88.7056 41.0562 88.7056 34.834C88.7056 28.6118 93.7365 23.2625 99.9234 22.8873C106.089 22.5133 111.072 27.2242 111.072 33.4081Z" fill="url(#paint76_linear)"/>
<path d="M99.5302 40.1963C99.0453 40.228 98.5941 40.0024 98.3431 39.5993L94.1273 32.8297C93.7322 32.1953 93.9451 31.3264 94.6025 30.889C95.2595 30.4519 96.112 30.6116 96.5066 31.2457L99.4303 35.9449L103.288 28.088C103.634 27.3829 104.466 27.0595 105.145 27.3653C105.825 27.671 106.095 28.49 105.749 29.1947L100.764 39.3562C100.536 39.8215 100.082 40.1416 99.5789 40.1922C99.5626 40.1938 99.5464 40.1952 99.5302 40.1963Z" fill="white"/>
<defs>
<linearGradient id="paint0_linear" x1="90.6173" y1="53.0396" x2="72.2312" y2="8.91298" gradientUnits="userSpaceOnUse">
<stop offset="0.0036" stop-color="#E38DDD"/>
<stop offset="1" stop-color="#9571F6"/>
</linearGradient>
<linearGradient id="paint1_linear" x1="57.6973" y1="36.5079" x2="109.733" y2="36.5079" gradientUnits="userSpaceOnUse">
<stop offset="0.0036" stop-color="#E38DDD"/>
<stop offset="1" stop-color="#9571F6"/>
</linearGradient>
<linearGradient id="paint2_linear" x1="105.241" y1="69.0521" x2="24.7368" y2="69.0521" gradientUnits="userSpaceOnUse">
<stop stop-color="#D8DEE8"/>
<stop offset="1" stop-color="white"/>
</linearGradient>
<linearGradient id="paint3_linear" x1="105.242" y1="55.0896" x2="24.8384" y2="55.0896" gradientUnits="userSpaceOnUse">
<stop stop-color="#FFC444"/>
<stop offset="0.9964" stop-color="#F36F56"/>
</linearGradient>
<linearGradient id="paint4_linear" x1="58.0108" y1="64.4761" x2="58.2092" y2="71.1572" gradientUnits="userSpaceOnUse">
<stop stop-color="#D8DEE8"/>
<stop offset="1" stop-color="white"/>
</linearGradient>
<linearGradient id="paint5_linear" x1="117.125" y1="69.0524" x2="92.0571" y2="69.0524" gradientUnits="userSpaceOnUse">
<stop stop-color="#D8DEE8"/>
<stop offset="1" stop-color="white"/>
</linearGradient>
<linearGradient id="paint6_linear" x1="105.767" y1="85.1984" x2="104.575" y2="60.4669" gradientUnits="userSpaceOnUse">
<stop stop-color="#D8DEE8"/>
<stop offset="1" stop-color="white"/>
</linearGradient>
<linearGradient id="paint7_linear" x1="111.161" y1="60.2834" x2="113.124" y2="95.4364" gradientUnits="userSpaceOnUse">
<stop offset="0.0036" stop-color="#E38DDD"/>
<stop offset="1" stop-color="#9571F6"/>
</linearGradient>
<linearGradient id="paint8_linear" x1="99.8619" y1="59.0179" x2="102.025" y2="97.7491" gradientUnits="userSpaceOnUse">
<stop offset="0.0036" stop-color="#E38DDD"/>
<stop offset="1" stop-color="#9571F6"/>
</linearGradient>
<linearGradient id="paint9_linear" x1="-5.61888" y1="65.7793" x2="99.0647" y2="85.8911" gradientUnits="userSpaceOnUse">
<stop stop-color="#AA80F9"/>
<stop offset="0.9964" stop-color="#6165D7"/>
</linearGradient>
<linearGradient id="paint10_linear" x1="58.44" y1="100.905" x2="62.9862" y2="117.311" gradientUnits="userSpaceOnUse">
<stop stop-color="#311944"/>
<stop offset="1" stop-color="#893976"/>
</linearGradient>
<linearGradient id="paint11_linear" x1="62.4851" y1="112.504" x2="62.551" y2="106.969" gradientUnits="userSpaceOnUse">
<stop stop-color="#FFC444"/>
<stop offset="0.9964" stop-color="#F36F56"/>
</linearGradient>
<linearGradient id="paint12_linear" x1="64.1314" y1="99.3275" x2="68.6777" y2="115.734" gradientUnits="userSpaceOnUse">
<stop stop-color="#311944"/>
<stop offset="1" stop-color="#893976"/>
</linearGradient>
<linearGradient id="paint13_linear" x1="68.886" y1="112.58" x2="68.9519" y2="107.045" gradientUnits="userSpaceOnUse">
<stop stop-color="#FFC444"/>
<stop offset="0.9964" stop-color="#F36F56"/>
</linearGradient>
<linearGradient id="paint14_linear" x1="59.2954" y1="94.7039" x2="65.1882" y2="94.7039" gradientUnits="userSpaceOnUse">
<stop stop-color="#444B8C"/>
<stop offset="0.9964" stop-color="#26264F"/>
</linearGradient>
<linearGradient id="paint15_linear" x1="59.2953" y1="94.7039" x2="65.188" y2="94.7039" gradientUnits="userSpaceOnUse">
<stop stop-color="#444B8C"/>
<stop offset="0.9964" stop-color="#26264F"/>
</linearGradient>
<linearGradient id="paint16_linear" x1="62.6226" y1="95.546" x2="71.5677" y2="95.546" gradientUnits="userSpaceOnUse">
<stop stop-color="#444B8C"/>
<stop offset="0.9964" stop-color="#26264F"/>
</linearGradient>
<linearGradient id="paint17_linear" x1="43.8055" y1="73.1436" x2="49.3402" y2="78.7771" gradientUnits="userSpaceOnUse">
<stop stop-color="#FFC444"/>
<stop offset="0.9964" stop-color="#F36F56"/>
</linearGradient>
<linearGradient id="paint18_linear" x1="68.2544" y1="54.1988" x2="41.7671" y2="81.2791" gradientUnits="userSpaceOnUse">
<stop offset="0.0036" stop-color="#6165D7"/>
<stop offset="1" stop-color="#AA80F9"/>
</linearGradient>
<linearGradient id="paint19_linear" x1="80.603" y1="96.6062" x2="60.6388" y2="67.9446" gradientUnits="userSpaceOnUse">
<stop offset="0.0036" stop-color="#6165D7"/>
<stop offset="1" stop-color="#AA80F9"/>
</linearGradient>
<linearGradient id="paint20_linear" x1="80.6007" y1="96.6072" x2="60.6364" y2="67.9455" gradientUnits="userSpaceOnUse">
<stop stop-color="#AA80F9"/>
<stop offset="0.9964" stop-color="#6165D7"/>
</linearGradient>
<linearGradient id="paint21_linear" x1="74.0313" y1="84.6594" x2="74.9953" y2="84.6594" gradientUnits="userSpaceOnUse">
<stop stop-color="#FFC444"/>
<stop offset="0.9964" stop-color="#F36F56"/>
</linearGradient>
<linearGradient id="paint22_linear" x1="72.491" y1="86.6174" x2="72.7224" y2="83.1722" gradientUnits="userSpaceOnUse">
<stop offset="0.1" stop-color="#311944"/>
<stop offset="0.267" stop-color="#371B47"/>
<stop offset="0.4803" stop-color="#462150"/>
<stop offset="0.7186" stop-color="#612A5F"/>
<stop offset="0.9736" stop-color="#853774"/>
<stop offset="1" stop-color="#893976"/>
</linearGradient>
<linearGradient id="paint23_linear" x1="71.1934" y1="84.1357" x2="73.8402" y2="85.5548" gradientUnits="userSpaceOnUse">
<stop offset="0.1" stop-color="#311944"/>
<stop offset="0.267" stop-color="#371B47"/>
<stop offset="0.4803" stop-color="#462150"/>
<stop offset="0.7186" stop-color="#612A5F"/>
<stop offset="0.9736" stop-color="#853774"/>
<stop offset="1" stop-color="#893976"/>
</linearGradient>
<linearGradient id="paint24_linear" x1="70.2837" y1="84.7302" x2="71.1343" y2="84.7302" gradientUnits="userSpaceOnUse">
<stop stop-color="#FFC444"/>
<stop offset="0.9964" stop-color="#F36F56"/>
</linearGradient>
<linearGradient id="paint25_linear" x1="67.4314" y1="88.5654" x2="65.9185" y2="74.7363" gradientUnits="userSpaceOnUse">
<stop offset="0.1" stop-color="#311944"/>
<stop offset="0.6853" stop-color="#6D2F66"/>
<stop offset="1" stop-color="#893976"/>
</linearGradient>
<linearGradient id="paint26_linear" x1="74.014" y1="94.3039" x2="63.9956" y2="88.7255" gradientUnits="userSpaceOnUse">
<stop stop-color="#311944"/>
<stop offset="1" stop-color="#893976"/>
</linearGradient>
<linearGradient id="paint27_linear" x1="64.9731" y1="86.5423" x2="67.9942" y2="91.6084" gradientUnits="userSpaceOnUse">
<stop stop-color="#311944"/>
<stop offset="1" stop-color="#893976"/>
</linearGradient>
<linearGradient id="paint28_linear" x1="72.6711" y1="80.4989" x2="73.7729" y2="95.287" gradientUnits="userSpaceOnUse">
<stop offset="0.1" stop-color="#311944"/>
<stop offset="0.6853" stop-color="#6D2F66"/>
<stop offset="1" stop-color="#893976"/>
</linearGradient>
<linearGradient id="paint29_linear" x1="70.7142" y1="88.87" x2="78.8277" y2="95.1214" gradientUnits="userSpaceOnUse">
<stop stop-color="#311944"/>
<stop offset="1" stop-color="#893976"/>
</linearGradient>
<linearGradient id="paint30_linear" x1="68.6238" y1="88.0217" x2="72.0403" y2="87.889" gradientUnits="userSpaceOnUse">
<stop offset="0.1" stop-color="#311944"/>
<stop offset="0.6853" stop-color="#6D2F66"/>
<stop offset="1" stop-color="#893976"/>
</linearGradient>
<linearGradient id="paint31_linear" x1="73.9421" y1="99.482" x2="72.7558" y2="86.1499" gradientUnits="userSpaceOnUse">
<stop offset="0.1" stop-color="#311944"/>
<stop offset="0.267" stop-color="#371B47"/>
<stop offset="0.4803" stop-color="#462150"/>
<stop offset="0.7186" stop-color="#612A5F"/>
<stop offset="0.9736" stop-color="#853774"/>
<stop offset="1" stop-color="#893976"/>
</linearGradient>
<linearGradient id="paint32_linear" x1="74.5205" y1="102.575" x2="72.5083" y2="84.1819" gradientUnits="userSpaceOnUse">
<stop stop-color="#311944"/>
<stop offset="1" stop-color="#893976"/>
</linearGradient>
<linearGradient id="paint33_linear" x1="77.3579" y1="92.8837" x2="71.2908" y2="89.7123" gradientUnits="userSpaceOnUse">
<stop stop-color="#FFC444"/>
<stop offset="0.9964" stop-color="#F36F56"/>
</linearGradient>
<linearGradient id="paint34_linear" x1="71.9188" y1="90.1989" x2="78.1108" y2="92.4147" gradientUnits="userSpaceOnUse">
<stop stop-color="#FFC444"/>
<stop offset="0.9964" stop-color="#F36F56"/>
</linearGradient>
<linearGradient id="paint35_linear" x1="73.1805" y1="88.2709" x2="72.6633" y2="82.4586" gradientUnits="userSpaceOnUse">
<stop stop-color="#FFC444"/>
<stop offset="0.9964" stop-color="#F36F56"/>
</linearGradient>
<linearGradient id="paint36_linear" x1="88.2045" y1="95.5913" x2="66.2648" y2="64.0937" gradientUnits="userSpaceOnUse">
<stop offset="0.0036" stop-color="#6165D7"/>
<stop offset="1" stop-color="#AA80F9"/>
</linearGradient>
<linearGradient id="paint37_linear" x1="62.6138" y1="64.5921" x2="62.6138" y2="58.8246" gradientUnits="userSpaceOnUse">
<stop stop-color="#FFC444"/>
<stop offset="0.9964" stop-color="#F36F56"/>
</linearGradient>
<linearGradient id="paint38_linear" x1="63.7791" y1="62.8498" x2="61.3919" y2="56.7867" gradientUnits="userSpaceOnUse">
<stop stop-color="#444B8C"/>
<stop offset="0.9964" stop-color="#3E4177"/>
</linearGradient>
<linearGradient id="paint39_linear" x1="58.7877" y1="61.0671" x2="63.9117" y2="58.2762" gradientUnits="userSpaceOnUse">
<stop stop-color="#FFC444"/>
<stop offset="0.9964" stop-color="#F36F56"/>
</linearGradient>
<linearGradient id="paint40_linear" x1="61.6353" y1="59.6598" x2="61.1539" y2="66.7118" gradientUnits="userSpaceOnUse">
<stop stop-color="#444B8C"/>
<stop offset="0.9964" stop-color="#26264F"/>
</linearGradient>
<linearGradient id="paint41_linear" x1="62.937" y1="73.7091" x2="62.937" y2="57.8686" gradientUnits="userSpaceOnUse">
<stop stop-color="#444B8C"/>
<stop offset="0.9964" stop-color="#26264F"/>
</linearGradient>
<linearGradient id="paint42_linear" x1="40.1816" y1="72.2741" x2="44.1004" y2="72.2741" gradientUnits="userSpaceOnUse">
<stop stop-color="#FFC444"/>
<stop offset="0.9964" stop-color="#F36F56"/>
</linearGradient>
<linearGradient id="paint43_linear" x1="20.8365" y1="79.8533" x2="17.3064" y2="65.7329" gradientUnits="userSpaceOnUse">
<stop stop-color="#FF9085"/>
<stop offset="1" stop-color="#FB6FBB"/>
</linearGradient>
<linearGradient id="paint44_linear" x1="17.4657" y1="112.563" x2="15.5991" y2="113.803" gradientUnits="userSpaceOnUse">
<stop stop-color="#444B8C"/>
<stop offset="0.9964" stop-color="#26264F"/>
</linearGradient>
<linearGradient id="paint45_linear" x1="15.66" y1="113.815" x2="16.0684" y2="110.927" gradientUnits="userSpaceOnUse">
<stop stop-color="#FFC444"/>
<stop offset="0.9964" stop-color="#F36F56"/>
</linearGradient>
<linearGradient id="paint46_linear" x1="17.3253" y1="112.352" x2="15.4586" y2="113.593" gradientUnits="userSpaceOnUse">
<stop stop-color="#444B8C"/>
<stop offset="0.9964" stop-color="#26264F"/>
</linearGradient>
<linearGradient id="paint47_linear" x1="29.319" y1="113.489" x2="27.6444" y2="114.979" gradientUnits="userSpaceOnUse">
<stop stop-color="#444B8C"/>
<stop offset="0.9964" stop-color="#26264F"/>
</linearGradient>
<linearGradient id="paint48_linear" x1="27.705" y1="114.982" x2="27.705" y2="112.064" gradientUnits="userSpaceOnUse">
<stop stop-color="#FFC444"/>
<stop offset="0.9964" stop-color="#F36F56"/>
</linearGradient>
<linearGradient id="paint49_linear" x1="34.1278" y1="76.4307" x2="9.97319" y2="125.171" gradientUnits="userSpaceOnUse">
<stop stop-color="#444B8C"/>
<stop offset="0.9964" stop-color="#26264F"/>
</linearGradient>
<linearGradient id="paint50_linear" x1="36.7056" y1="83.4514" x2="9.09352" y2="64.2482" gradientUnits="userSpaceOnUse">
<stop stop-color="#FF9085"/>
<stop offset="1" stop-color="#FB6FBB"/>
</linearGradient>
<linearGradient id="paint51_linear" x1="29.1498" y1="113.3" x2="27.4752" y2="114.79" gradientUnits="userSpaceOnUse">
<stop stop-color="#444B8C"/>
<stop offset="0.9964" stop-color="#26264F"/>
</linearGradient>
<linearGradient id="paint52_linear" x1="20.042" y1="63.4972" x2="26.3743" y2="63.4972" gradientUnits="userSpaceOnUse">
<stop stop-color="#FFC444"/>
<stop offset="0.9964" stop-color="#F36F56"/>
</linearGradient>
<linearGradient id="paint53_linear" x1="24.4429" y1="62.9403" x2="24.9763" y2="62.9403" gradientUnits="userSpaceOnUse">
<stop stop-color="#FFC444"/>
<stop offset="0.9964" stop-color="#F36F56"/>
</linearGradient>
<linearGradient id="paint54_linear" x1="17.5918" y1="76.8087" x2="19.2177" y2="76.8087" gradientUnits="userSpaceOnUse">
<stop stop-color="#FF9085"/>
<stop offset="1" stop-color="#FB6FBB"/>
</linearGradient>
<linearGradient id="paint55_linear" x1="18.6812" y1="78.9591" x2="31.3334" y2="78.9591" gradientUnits="userSpaceOnUse">
<stop stop-color="#FF9085"/>
<stop offset="1" stop-color="#FB6FBB"/>
</linearGradient>
<linearGradient id="paint56_linear" x1="13.3474" y1="84.9799" x2="39.7355" y2="66.6279" gradientUnits="userSpaceOnUse">
<stop stop-color="#FF9085"/>
<stop offset="1" stop-color="#FB6FBB"/>
</linearGradient>
<linearGradient id="paint57_linear" x1="25.7598" y1="75.5307" x2="30.7078" y2="75.5307" gradientUnits="userSpaceOnUse">
<stop stop-color="#FF9085"/>
<stop offset="1" stop-color="#FB6FBB"/>
</linearGradient>
<linearGradient id="paint58_linear" x1="42.4015" y1="71.3375" x2="43.7719" y2="72.7324" gradientUnits="userSpaceOnUse">
<stop stop-color="#FFC444"/>
<stop offset="0.9964" stop-color="#F36F56"/>
</linearGradient>
<linearGradient id="paint59_linear" x1="101.888" y1="72.8159" x2="90.9029" y2="91.3677" gradientUnits="userSpaceOnUse">
<stop stop-color="#FFC444"/>
<stop offset="0.3138" stop-color="#FBA94A"/>
<stop offset="0.9964" stop-color="#F36F56"/>
</linearGradient>
<linearGradient id="paint60_linear" x1="111.938" y1="73.2662" x2="100.545" y2="92.5085" gradientUnits="userSpaceOnUse">
<stop stop-color="#FFC444"/>
<stop offset="0.3138" stop-color="#FBA94A"/>
<stop offset="0.9964" stop-color="#F36F56"/>
</linearGradient>
<linearGradient id="paint61_linear" x1="114.078" y1="87.5742" x2="98.2254" y2="114.348" gradientUnits="userSpaceOnUse">
<stop stop-color="#FFC444"/>
<stop offset="0.3138" stop-color="#FBA94A"/>
<stop offset="0.9964" stop-color="#F36F56"/>
</linearGradient>
<linearGradient id="paint62_linear" x1="99.8863" y1="87.623" x2="85.1104" y2="112.578" gradientUnits="userSpaceOnUse">
<stop stop-color="#FFC444"/>
<stop offset="0.3138" stop-color="#FBA94A"/>
<stop offset="0.9964" stop-color="#F36F56"/>
</linearGradient>
<linearGradient id="paint63_linear" x1="14.6975" y1="36.3332" x2="-1.79381" y2="41.6257" gradientUnits="userSpaceOnUse">
<stop stop-color="#FCB148"/>
<stop offset="0.0521" stop-color="#FDBA46"/>
<stop offset="0.1424" stop-color="#FFC244"/>
<stop offset="0.3183" stop-color="#FFC444"/>
<stop offset="0.4849" stop-color="#FDB946"/>
<stop offset="0.7754" stop-color="#F99C4D"/>
<stop offset="0.8658" stop-color="#F8924F"/>
<stop offset="1" stop-color="#F8924F"/>
</linearGradient>
<linearGradient id="paint64_linear" x1="28.0378" y1="19.9178" x2="13.3154" y2="52.3981" gradientUnits="userSpaceOnUse">
<stop stop-color="#FFDB44"/>
<stop offset="1" stop-color="#FEEF06"/>
</linearGradient>
<linearGradient id="paint65_linear" x1="25.3298" y1="54.2135" x2="22.4891" y2="38.6947" gradientUnits="userSpaceOnUse">
<stop stop-color="#FCB148"/>
<stop offset="0.0521" stop-color="#FDBA46"/>
<stop offset="0.1424" stop-color="#FFC244"/>
<stop offset="0.3183" stop-color="#FFC444"/>
<stop offset="0.4849" stop-color="#FDB946"/>
<stop offset="0.7754" stop-color="#F99C4D"/>
<stop offset="0.8658" stop-color="#F8924F"/>
<stop offset="1" stop-color="#F8924F"/>
</linearGradient>
<linearGradient id="paint66_linear" x1="19.3069" y1="29.0946" x2="31.0139" y2="53.9463" gradientUnits="userSpaceOnUse">
<stop stop-color="#FCB148"/>
<stop offset="0.0521" stop-color="#FDBA46"/>
<stop offset="0.1424" stop-color="#FFC244"/>
<stop offset="0.3183" stop-color="#FFC444"/>
<stop offset="0.4849" stop-color="#FDB946"/>
<stop offset="0.7754" stop-color="#F99C4D"/>
<stop offset="0.8658" stop-color="#F8924F"/>
<stop offset="1" stop-color="#F8924F"/>
</linearGradient>
<linearGradient id="paint67_linear" x1="18.8408" y1="23.7469" x2="24.7275" y2="45.8091" gradientUnits="userSpaceOnUse">
<stop stop-color="#FFDB44"/>
<stop offset="1" stop-color="#FEEF06"/>
</linearGradient>
<linearGradient id="paint68_linear" x1="15.8628" y1="30.7027" x2="27.5461" y2="55.5042" gradientUnits="userSpaceOnUse">
<stop stop-color="#FCB148"/>
<stop offset="0.0521" stop-color="#FDBA46"/>
<stop offset="0.1424" stop-color="#FFC244"/>
<stop offset="0.3183" stop-color="#FFC444"/>
<stop offset="0.4849" stop-color="#FDB946"/>
<stop offset="0.7754" stop-color="#F99C4D"/>
<stop offset="0.8658" stop-color="#F8924F"/>
<stop offset="1" stop-color="#F8924F"/>
</linearGradient>
<linearGradient id="paint69_linear" x1="35.338" y1="15.9529" x2="25.4897" y2="19.1135" gradientUnits="userSpaceOnUse">
<stop stop-color="#FCB148"/>
<stop offset="0.0521" stop-color="#FDBA46"/>
<stop offset="0.1424" stop-color="#FFC244"/>
<stop offset="0.3183" stop-color="#FFC444"/>
<stop offset="0.4849" stop-color="#FDB946"/>
<stop offset="0.7754" stop-color="#F99C4D"/>
<stop offset="0.8658" stop-color="#F8924F"/>
<stop offset="1" stop-color="#F8924F"/>
</linearGradient>
<linearGradient id="paint70_linear" x1="43.3047" y1="6.14992" x2="34.5128" y2="25.5465" gradientUnits="userSpaceOnUse">
<stop stop-color="#FFDB44"/>
<stop offset="1" stop-color="#FEEF06"/>
</linearGradient>
<linearGradient id="paint71_linear" x1="41.6873" y1="26.6307" x2="39.9908" y2="17.3632" gradientUnits="userSpaceOnUse">
<stop stop-color="#FCB148"/>
<stop offset="0.0521" stop-color="#FDBA46"/>
<stop offset="0.1424" stop-color="#FFC244"/>
<stop offset="0.3183" stop-color="#FFC444"/>
<stop offset="0.4849" stop-color="#FDB946"/>
<stop offset="0.7754" stop-color="#F99C4D"/>
<stop offset="0.8658" stop-color="#F8924F"/>
<stop offset="1" stop-color="#F8924F"/>
</linearGradient>
<linearGradient id="paint72_linear" x1="38.0905" y1="11.6302" x2="45.0817" y2="26.4711" gradientUnits="userSpaceOnUse">
<stop stop-color="#FCB148"/>
<stop offset="0.0521" stop-color="#FDBA46"/>
<stop offset="0.1424" stop-color="#FFC244"/>
<stop offset="0.3183" stop-color="#FFC444"/>
<stop offset="0.4849" stop-color="#FDB946"/>
<stop offset="0.7754" stop-color="#F99C4D"/>
<stop offset="0.8658" stop-color="#F8924F"/>
<stop offset="1" stop-color="#F8924F"/>
</linearGradient>
<linearGradient id="paint73_linear" x1="37.8119" y1="8.43706" x2="41.3273" y2="21.6121" gradientUnits="userSpaceOnUse">
<stop stop-color="#FFDB44"/>
<stop offset="1" stop-color="#FEEF06"/>
</linearGradient>
<linearGradient id="paint74_linear" x1="36.0338" y1="12.5904" x2="43.0108" y2="27.4014" gradientUnits="userSpaceOnUse">
<stop stop-color="#FCB148"/>
<stop offset="0.0521" stop-color="#FDBA46"/>
<stop offset="0.1424" stop-color="#FFC244"/>
<stop offset="0.3183" stop-color="#FFC444"/>
<stop offset="0.4849" stop-color="#FDB946"/>
<stop offset="0.7754" stop-color="#F99C4D"/>
<stop offset="0.8658" stop-color="#F8924F"/>
<stop offset="1" stop-color="#F8924F"/>
</linearGradient>
<linearGradient id="paint75_linear" x1="87.77" y1="34.1213" x2="110.137" y2="34.1213" gradientUnits="userSpaceOnUse">
<stop offset="0.1" stop-color="#311944"/>
<stop offset="0.6853" stop-color="#6D2F66"/>
<stop offset="1" stop-color="#893976"/>
</linearGradient>
<linearGradient id="paint76_linear" x1="108.146" y1="6.28556" x2="89.6247" y2="68.7201" gradientUnits="userSpaceOnUse">
<stop stop-color="#F36F56"/>
<stop offset="1" stop-color="#F36F56"/>
</linearGradient>
</defs>
</svg>
