<svg width="119" height="112" viewBox="0 0 119 112" fill="none" xmlns="http://www.w3.org/2000/svg">
<g filter="url(#filter0_d)">
<rect x="24" y="20" width="71" height="64" rx="10" fill="#FFDCD5"/>
</g>
<path d="M66.2565 65.8552C66.1073 65.8433 65.9576 65.8655 65.8181 65.9197L59.4682 68.3852C59.2355 68.4756 58.9774 68.4756 58.7446 68.3853L52.3876 65.9196C52.2482 65.8655 52.0986 65.8433 51.9495 65.8552C51.819 65.8656 51.672 65.8775 51.5216 65.8898C50.9518 65.9364 50.5396 66.4519 50.6171 67.0183L52.7365 82.4957C52.8043 82.9909 53.2274 83.36 53.7272 83.36H64.4716C64.9715 83.36 65.3945 82.9909 65.4624 82.4957L67.582 67.0163C67.6594 66.4507 67.2483 65.936 66.6793 65.8894C66.5308 65.8772 66.3856 65.8655 66.2565 65.8552Z" fill="white"/>
<path d="M65.8242 65.9172C65.8708 65.8991 65.8266 65.8273 65.7767 65.8239C65.7539 65.8224 65.7685 65.8067 65.7667 65.7839L64.7465 53.419C64.7037 52.9004 64.2703 52.5012 63.7499 52.5012H54.4607C53.9403 52.5012 53.5068 52.9004 53.4641 53.419L52.4443 65.78C52.4422 65.805 52.4571 65.8223 52.432 65.8241C52.3786 65.8278 52.3333 65.9033 52.3832 65.9227L58.7498 68.3921C58.983 68.4826 59.2415 68.4824 59.4745 68.3916L65.8242 65.9172Z" fill="#F8924F"/>
<path d="M71.2438 46.9707C70.3267 46.4106 68.9896 47.4887 68.2476 49.3859C67.5055 51.2761 67.6525 53.2643 68.5626 53.8243C69.4727 54.3844 70.8168 53.3063 71.5589 51.4091C72.2939 49.5189 72.1539 47.5307 71.2438 46.9707Z" fill="#F8924F"/>
<path d="M46.9591 46.9707C47.8691 46.4106 49.2133 47.4887 49.9553 49.3859C50.6904 51.2761 50.5504 53.2713 49.6403 53.8313C48.7302 54.3914 47.3861 53.3133 46.644 51.4161C45.909 49.5189 46.049 47.5307 46.9591 46.9707Z" fill="#F8924F"/>
<path d="M71.5047 43.5894C71.5047 52.3612 65.9531 62.2601 59.0995 62.2601C52.2459 62.2601 46.6943 52.3612 46.6943 43.5894C46.6943 34.8245 52.2459 30.5051 59.0995 30.5051C65.9531 30.5051 71.5047 34.8175 71.5047 43.5894Z" fill="#F8924F"/>
<path opacity="0.4" d="M59.0995 31.5051C59.0995 30.9528 58.6504 30.5016 58.0992 30.5364C51.7137 30.9403 46.6943 35.2552 46.6943 43.5894C46.6943 51.9315 51.7153 61.2931 58.1023 62.1902C58.6492 62.267 59.0995 61.8124 59.0995 61.2601V31.5051Z" fill="#F8924F"/>
<path opacity="0.1" d="M59.0989 62.2601C57.0302 62.2601 55.0802 61.3524 53.3635 59.8484C53.1833 59.6905 52.8936 59.8006 52.873 60.0392C52.8656 60.1245 52.8969 60.2088 52.9588 60.2679C54.7707 61.9976 56.8639 63.0582 59.0989 63.0582C61.3341 63.0582 63.4342 62.0041 65.2399 60.2744C65.3013 60.2155 65.3328 60.1319 65.3264 60.0471C65.3081 59.8044 65.0138 59.6907 64.8306 59.8509C63.1165 61.3503 61.1697 62.2601 59.0989 62.2601Z" fill="black"/>
<path d="M49.5175 66.0794C50.0524 66.0192 50.5321 66.3999 50.6051 66.9333L52.699 82.2244C52.7812 82.825 52.3144 83.36 51.7082 83.36H37.7484C37.2683 83.36 36.8577 83.0234 36.7783 82.5499C36.3476 79.9793 35.1925 72.0445 36.921 69.8138C38.6415 67.6035 45.5519 66.5262 49.5175 66.0794ZM81.2771 69.8138C79.5628 67.5968 72.6512 66.5249 68.6805 66.0791C68.1456 66.0191 67.666 66.3998 67.593 66.9331L65.4992 82.2244C65.4169 82.825 65.8837 83.36 66.4899 83.36H80.2771C80.8294 83.36 81.3592 82.9221 81.449 82.3771C81.8996 79.6423 82.9679 72.0015 81.2771 69.8138Z" fill="#172A43"/>
<path d="M68.6703 83.3671C69.0511 83.3671 69.3989 83.1508 69.5673 82.8092L74.7576 72.2772C74.8941 72.0002 74.6925 71.676 74.3836 71.676C74.0451 71.676 73.8477 71.294 74.0436 71.0179L74.4365 70.4641C74.6865 70.1117 74.5965 69.6224 74.2375 69.382L69.6451 66.3067C69.5144 66.2191 69.3649 66.1636 69.2087 66.1452C69.0254 66.1236 68.8467 66.1032 68.6735 66.084C68.1397 66.025 67.6595 66.4051 67.5867 66.9372L65.4924 82.2315C65.4102 82.8321 65.877 83.3671 66.4832 83.3671H68.6703Z" fill="#DEDEDE"/>
<path d="M50.6045 66.9305C50.5318 66.3983 50.0516 66.0179 49.5176 66.077C49.3446 66.0962 49.166 66.1165 48.9828 66.1381C48.8266 66.1565 48.6771 66.212 48.5464 66.2996L43.954 69.3749C43.595 69.6154 43.505 70.1046 43.7551 70.457L44.1479 71.0108C44.3438 71.2869 44.1464 71.6689 43.8079 71.6689C43.4991 71.6689 43.2974 71.9931 43.434 72.2701L48.6243 82.8021C48.7926 83.1437 49.1404 83.36 49.5213 83.36H51.7018C52.3078 83.36 52.7746 82.8252 52.6926 82.2248L50.6045 66.9305Z" fill="#DEDEDE"/>
<path d="M72.2605 40.2641C72.0785 39.0319 71.8194 37.6668 71.1894 36.3087C70.5803 34.9576 69.7052 33.5994 68.4871 32.4723C67.283 31.3452 65.7919 30.4071 64.1677 29.8541C63.3557 29.5671 62.5156 29.364 61.6685 29.217C61.2415 29.161 60.8144 29.098 60.3874 29.056L59.0433 29L57.8741 29.056C57.4541 29.091 56.9921 29.161 56.551 29.217C55.6899 29.364 54.8569 29.5671 54.0448 29.8541C52.4136 30.4141 50.9295 31.3452 49.7254 32.4723C48.5073 33.5994 47.6252 34.9646 47.0231 36.3087C46.4001 37.6598 46.141 39.0249 45.952 40.2641C45.903 40.8871 45.847 41.4822 45.833 42.0422C45.854 42.6163 45.868 43.1623 45.889 43.6734C46.015 44.6255 46.106 45.4375 46.2461 46.1306C46.4437 46.9332 46.5995 47.5289 46.696 47.8898C46.7571 48.1181 46.9853 48.257 47.2168 48.2095C47.4323 48.1652 47.5841 47.9721 47.5744 47.7523C47.5587 47.4 47.5304 46.8149 47.4852 46.0466C47.4712 45.3815 47.5272 44.5345 47.5342 43.5824C47.5832 43.1413 47.6392 42.6723 47.7022 42.1822C47.7799 41.7549 47.8636 41.3097 47.9532 40.8575C47.9678 40.7841 47.9904 40.7128 48.0216 40.6448C49.5627 37.281 52.598 34.1584 57.6711 36.1267C58.4972 36.4487 59.7433 36.4487 60.5694 36.1267C65.644 34.1578 68.6797 37.2829 70.2203 40.6547C70.2506 40.7208 70.2727 40.79 70.2873 40.8612C70.3769 41.2987 70.4601 41.72 70.5313 42.1472C70.5873 42.6653 70.6433 43.1623 70.6993 43.6244C70.6993 44.5275 70.7694 45.3185 70.7554 45.9906C70.7065 46.7883 70.6766 47.3873 70.6601 47.749C70.6497 47.9764 70.8122 48.1737 71.037 48.2095C71.2634 48.2456 71.4803 48.1064 71.5395 47.8849C71.6333 47.5344 71.7857 46.9546 71.9805 46.1796C72.1205 45.5006 72.2185 44.6255 72.3445 43.6244C72.3585 43.1343 72.3795 42.6163 72.4005 42.0702C72.3725 41.5172 72.3165 40.8941 72.2605 40.2641Z" fill="#303030"/>
<path d="M59.2475 54.1651C59.1529 53.9869 59.24 53.78 59.4345 53.7263C59.6375 53.6633 59.9175 53.6003 60.2396 53.5653C60.8836 53.5023 61.6537 53.6073 62.3538 53.8943C63.0538 54.1814 63.6769 54.6574 64.0829 55.1544C64.286 55.4065 64.447 55.6515 64.545 55.8405C64.5456 55.8417 64.5463 55.843 64.5469 55.8442C64.6374 56.0191 64.551 56.2232 64.363 56.2816C64.1599 56.3446 63.8729 56.4076 63.5579 56.4426C62.9138 56.5126 62.1438 56.4076 61.4437 56.1135C60.7436 55.8265 60.1206 55.3505 59.7145 54.8534C59.5115 54.6014 59.3575 54.3634 59.2525 54.1744C59.2508 54.1713 59.2492 54.1682 59.2475 54.1651Z" fill="#303030"/>
<path d="M58.7702 53.7193C58.9576 53.7839 59.0435 53.9913 58.9522 54.1673C58.8542 54.3563 58.6932 54.6014 58.4902 54.8464C58.0841 55.3434 57.4611 55.8195 56.761 56.1065C56.0609 56.4005 55.2909 56.5056 54.6468 56.4355C54.3248 56.4005 54.0447 56.3375 53.8417 56.2745C53.6537 56.2162 53.5673 56.0121 53.6578 55.8372C53.6584 55.836 53.6591 55.8347 53.6597 55.8335C53.7577 55.6445 53.9187 55.3995 54.1218 55.1474C54.5278 54.6434 55.1509 54.1743 55.8509 53.8873C56.551 53.6003 57.3211 53.4953 57.9651 53.5583C58.2871 53.5933 58.5672 53.6563 58.7702 53.7193Z" fill="#303030"/>
<path d="M67.5287 66.9803C67.59 66.4252 67.1845 65.9304 66.6277 65.8858C66.4986 65.8754 66.3732 65.8654 66.26 65.8562C66.1086 65.844 65.9565 65.866 65.815 65.9209L60.0319 68.1663C59.5197 68.3652 59.2639 68.9401 59.4591 69.4537L60.3044 71.6781C60.5166 72.2365 61.1678 72.4855 61.6984 72.2111L66.7933 69.5768C67.0906 69.4231 67.2913 69.1309 67.328 68.7983L67.5287 66.9803Z" fill="white"/>
<path d="M50.6749 66.9787C50.6147 66.4241 51.0201 65.9305 51.5761 65.8859C51.7059 65.8755 51.8319 65.8654 51.9457 65.8562C52.097 65.844 52.2491 65.866 52.3907 65.9209L58.1724 68.1658C58.6851 68.3649 58.9408 68.9407 58.7447 69.4546L57.8956 71.6793C57.6827 72.2372 57.0315 72.4853 56.5013 72.2106L51.4057 69.5705C51.1083 69.4164 50.9077 69.1236 50.8716 68.7905L50.6749 66.9787Z" fill="white"/>
<path d="M67.2653 69.33C67.4643 69.7129 67.2975 70.1842 66.902 70.3567L60.8426 72.9991L60.8087 73.0143C60.6513 73.0846 60.4678 73.0024 60.4156 72.8381L59.1064 68.5327L60.8804 72.405C60.9178 72.4866 60.8373 72.5724 60.7535 72.5403C60.6757 72.5104 60.6661 72.4043 60.7374 72.3611L66.2176 69.0366C66.586 68.8131 67.0666 68.9477 67.2653 69.33Z" fill="#BFBFBF"/>
<path d="M59.1066 68.5327L57.7904 72.8381C57.7376 73.0005 57.5576 73.0835 57.3998 73.0183L57.3704 73.0061L51.3286 70.4658C50.9308 70.2986 50.7573 69.8298 50.9503 69.4439C51.1436 69.0571 51.6242 68.915 51.9968 69.1345L57.4648 72.3549C57.5374 72.3976 57.5289 72.5051 57.4505 72.536C57.3658 72.5693 57.2837 72.4823 57.3218 72.3996L59.1066 68.5327Z" fill="#BFBFBF"/>
<path d="M50.6749 66.9787C50.6147 66.4241 51.0201 65.9305 51.5761 65.8859C51.7059 65.8755 51.8319 65.8654 51.9457 65.8562C52.097 65.844 52.2491 65.866 52.3907 65.9209L58.1724 68.1658C58.6851 68.3649 58.9408 68.9407 58.7447 69.4546L57.8956 71.6793C57.6827 72.2372 57.0315 72.4853 56.5013 72.2106L51.4057 69.5705C51.1083 69.4164 50.9077 69.1236 50.8716 68.7905L50.6749 66.9787Z" fill="white"/>
<path d="M67.506 67.5626C67.6062 66.8304 68.4386 66.4561 69.0528 66.867L72.9161 69.4515C73.3845 69.7649 73.5016 70.4032 73.175 70.8624L72.5808 71.6976C72.3493 72.023 72.5819 72.474 72.9813 72.474C73.3455 72.474 73.5832 72.8562 73.4222 73.1829L68.677 82.8092C68.5087 83.1508 68.1609 83.367 67.7801 83.367H66.489C65.8828 83.367 65.416 82.832 65.4982 82.2314L67.506 67.5626ZM50.6904 67.5625C50.5902 66.8304 49.7578 66.4561 49.1436 66.867L45.2802 69.4515C44.8118 69.7649 44.6947 70.4032 45.0214 70.8624L45.6157 71.6977C45.8471 72.023 45.6145 72.474 45.2152 72.474C44.851 72.474 44.6133 72.8563 44.7744 73.1829L49.5193 82.8024C49.6877 83.1438 50.0354 83.36 50.4161 83.36H51.7073C52.3135 83.36 52.7803 82.825 52.6981 82.2244L50.6904 67.5625Z" fill="#203858"/>
<path d="M67.5287 66.9803C67.59 66.4252 67.1845 65.9304 66.6277 65.8858C66.4986 65.8754 66.3732 65.8654 66.26 65.8562C66.1086 65.844 65.9565 65.866 65.815 65.9209L60.0319 68.1663C59.5197 68.3652 59.2639 68.9401 59.4591 69.4537L60.3044 71.6781C60.5166 72.2365 61.1678 72.4855 61.6984 72.2111L66.7933 69.5768C67.0906 69.4231 67.2913 69.1309 67.328 68.7983L67.5287 66.9803Z" fill="white"/>
<path d="M59.1062 68.5327L59.4945 82.9648C59.5004 83.1852 59.3233 83.3671 59.1028 83.3671C58.8823 83.3671 58.7052 83.1851 58.7112 82.9646L59.1062 68.5327Z" fill="#BFBFBF"/>
<defs>
<filter id="filter0_d" x="0" y="0" width="119" height="112" filterUnits="userSpaceOnUse" color-interpolation-filters="sRGB">
<feFlood flood-opacity="0" result="BackgroundImageFix"/>
<feColorMatrix in="SourceAlpha" type="matrix" values="0 0 0 0 0 0 0 0 0 0 0 0 0 0 0 0 0 0 127 0"/>
<feOffset dy="4"/>
<feGaussianBlur stdDeviation="12"/>
<feColorMatrix type="matrix" values="0 0 0 0 0 0 0 0 0 0 0 0 0 0 0 0 0 0 0.1 0"/>
<feBlend mode="normal" in2="BackgroundImageFix" result="effect1_dropShadow"/>
<feBlend mode="normal" in="SourceGraphic" in2="effect1_dropShadow" result="shape"/>
</filter>
</defs>
</svg>
