<svg width="28" height="28" viewBox="0 0 28 28" fill="none" xmlns="http://www.w3.org/2000/svg">
<path d="M26.1333 15.4312H3.73333V4.95726C3.73225 4.56281 3.80961 4.17207 3.96094 3.80766C4.11226 3.44324 4.33455 3.11238 4.61492 2.83424L4.63826 2.81096C5.07766 2.37329 5.64181 2.08162 6.25363 1.97578C6.86545 1.86995 7.49511 1.95512 8.05659 2.21965C7.52632 3.09911 7.30592 4.13012 7.4304 5.14886C7.55489 6.16759 8.01712 7.11561 8.74364 7.84226L9.38245 8.47948L8.20662 9.65245L9.52647 10.969L10.7023 9.79612L17.2175 3.29719L18.3933 2.12428L17.0734 0.807642L15.8975 1.98055L15.2587 1.34333C14.4939 0.582528 13.4857 0.113543 12.4098 0.0180985C11.3339 -0.0773459 10.2586 0.206802 9.37119 0.821026C8.43542 0.231523 7.32647 -0.0229689 6.22653 0.0993554C5.12658 0.22168 4.10105 0.713546 3.31841 1.49415L3.29507 1.51743C2.8408 1.9681 2.48065 2.50417 2.23546 3.09462C1.99027 3.68507 1.86492 4.31816 1.86667 4.95726V15.4312H0V17.2933H1.86667V19.0797C1.86663 19.2298 1.89089 19.3789 1.93853 19.5213L3.675 24.7175C3.76767 24.9957 3.94586 25.2377 4.18425 25.4091C4.42265 25.5806 4.70914 25.6727 5.00302 25.6724H5.75552L5.075 28H7.01942L7.7 25.6724H19.8392L20.5392 28H22.4875L21.7875 25.6724H22.9967C23.2907 25.6727 23.5772 25.5806 23.8157 25.4092C24.0541 25.2378 24.2323 24.9957 24.325 24.7175L26.0613 19.5213C26.109 19.3789 26.1333 19.2298 26.1333 19.0797V17.2933H28V15.4312H26.1333ZM10.0637 2.65996C10.5779 2.14809 11.2747 1.86062 12.0012 1.86062C12.7277 1.86062 13.4245 2.14809 13.9388 2.65996L14.5775 3.29719L10.7025 7.16261L10.0637 6.5255C9.55055 6.0125 9.26238 5.31741 9.26238 4.59273C9.26238 3.86806 9.55055 3.17297 10.0637 2.65996ZM24.2667 19.004L22.6606 23.8104H5.33937L3.73333 19.004V17.2933H24.2667V19.004Z" fill="#F36F56"/>
</svg>
