<svg width="28" height="27" viewBox="0 0 28 27" fill="none" xmlns="http://www.w3.org/2000/svg">
<path d="M26.4353 2.2807H21.8033C21.7105 2.2807 21.6215 2.31755 21.5559 2.38315C21.4903 2.44875 21.4535 2.53772 21.4535 2.6305C21.4535 2.6901 21.4723 2.74343 21.4982 2.79206V5.45708C21.4983 5.55475 21.4791 5.65148 21.4418 5.74173C21.4045 5.83198 21.3497 5.91399 21.2807 5.98305C21.2116 6.05211 21.1296 6.10687 21.0393 6.1442C20.9491 6.18153 20.8524 6.20069 20.7547 6.20059H19.3132C19.2225 6.20059 19.1328 6.18274 19.049 6.14805C18.9653 6.11337 18.8892 6.06253 18.8251 5.99844C18.761 5.93435 18.7102 5.85827 18.6755 5.77453C18.6408 5.69079 18.623 5.60105 18.623 5.51041V2.8352C18.6692 2.77684 18.6951 2.70495 18.6967 2.6305C18.6968 2.58453 18.6878 2.539 18.6703 2.49651C18.6528 2.45403 18.627 2.41543 18.5945 2.38292C18.562 2.35042 18.5234 2.32466 18.4809 2.30712C18.4384 2.28958 18.3929 2.2806 18.3469 2.2807H9.00993C8.91716 2.2807 8.82819 2.31755 8.76259 2.38315C8.69699 2.44875 8.66014 2.53772 8.66014 2.6305C8.66014 2.68461 8.67504 2.73402 8.697 2.78029V5.4759C8.697 5.57117 8.67824 5.66551 8.64178 5.75353C8.60532 5.84155 8.55188 5.92152 8.48452 5.98889C8.41715 6.05625 8.33718 6.10969 8.24916 6.14615C8.16114 6.18261 8.0668 6.20137 7.97153 6.20137H6.69157C6.49729 6.20137 6.31097 6.1242 6.17359 5.98682C6.03622 5.84944 5.95904 5.66312 5.95904 5.46884V2.7999C5.99019 2.74879 6.00724 2.69034 6.00845 2.6305C6.00856 2.58453 5.99958 2.539 5.98204 2.49651C5.96449 2.45403 5.93873 2.41543 5.90623 2.38292C5.87373 2.35042 5.83513 2.32466 5.79264 2.30712C5.75016 2.28958 5.70462 2.2806 5.65866 2.2807H0.778016C0.571873 2.28091 0.374221 2.36284 0.228382 2.50853C0.0825427 2.65422 0.000415089 2.85179 0 3.05793V26.2212C0 26.651 0.349009 27 0.778016 27H26.4353C26.6416 26.9996 26.8393 26.9173 26.985 26.7713C27.1307 26.6253 27.2125 26.4275 27.2125 26.2212V3.05793C27.2121 2.85193 27.1301 2.65448 26.9844 2.50881C26.8388 2.36314 26.6413 2.28112 26.4353 2.2807ZM26.4353 26.3004H0.778016C0.767651 26.3004 0.757388 26.2983 0.747821 26.2943C0.738254 26.2904 0.729573 26.2845 0.72228 26.2771C0.714986 26.2698 0.709226 26.261 0.705331 26.2514C0.701436 26.2418 0.699484 26.2315 0.699587 26.2212V8.75267H26.513V26.2204C26.5132 26.2308 26.5113 26.2411 26.5075 26.2507C26.5037 26.2604 26.498 26.2692 26.4908 26.2766C26.4836 26.284 26.475 26.29 26.4655 26.2941C26.4559 26.2981 26.4457 26.3003 26.4353 26.3004Z" fill="#F36F56"/>
<path d="M7.42206 5.40376C7.615 5.40376 7.77185 5.24691 7.77185 5.05397V0.349794C7.77185 0.303858 7.76281 0.258373 7.74523 0.215934C7.72765 0.173495 7.70188 0.134934 7.6694 0.102452C7.63692 0.069971 7.59836 0.0442053 7.55592 0.0266266C7.51348 0.00904778 7.468 0 7.42206 0C7.37612 0 7.33064 0.00904778 7.2882 0.0266266C7.24576 0.0442053 7.2072 0.069971 7.17472 0.102452C7.14224 0.134934 7.11647 0.173495 7.09889 0.215934C7.08131 0.258373 7.07227 0.303858 7.07227 0.349794V5.05475C7.07227 5.24769 7.22912 5.40376 7.42206 5.40376Z" fill="#F36F56"/>
<path d="M20.092 5.40376C20.2849 5.40376 20.4418 5.24691 20.4418 5.05397V0.349794C20.4418 0.257023 20.4049 0.168051 20.3393 0.102452C20.2737 0.0368533 20.1848 0 20.092 0C19.9992 0 19.9102 0.0368533 19.8446 0.102452C19.779 0.168051 19.7422 0.257023 19.7422 0.349794V5.05475C19.7422 5.24769 19.8983 5.40376 20.092 5.40376Z" fill="#F36F56"/>
<path d="M5.61529 14.0443C6.67997 14.0443 7.54307 13.1812 7.54307 12.1165C7.54307 11.0518 6.67997 10.1887 5.61529 10.1887C4.5506 10.1887 3.6875 11.0518 3.6875 12.1165C3.6875 13.1812 4.5506 14.0443 5.61529 14.0443Z" fill="#F36F56"/>
<path d="M11.1543 14.0443C12.219 14.0443 13.0821 13.1812 13.0821 12.1165C13.0821 11.0518 12.219 10.1887 11.1543 10.1887C10.0897 10.1887 9.22656 11.0518 9.22656 12.1165C9.22656 13.1812 10.0897 14.0443 11.1543 14.0443Z" fill="#F36F56"/>
<path d="M16.6944 14.0443C17.7591 14.0443 18.6222 13.1812 18.6222 12.1165C18.6222 11.0518 17.7591 10.1887 16.6944 10.1887C15.6297 10.1887 14.7666 11.0518 14.7666 12.1165C14.7666 13.1812 15.6297 14.0443 16.6944 14.0443Z" fill="#F36F56"/>
<path d="M5.61529 19.4128C6.67997 19.4128 7.54307 18.5497 7.54307 17.485C7.54307 16.4203 6.67997 15.5572 5.61529 15.5572C4.5506 15.5572 3.6875 16.4203 3.6875 17.485C3.6875 18.5497 4.5506 19.4128 5.61529 19.4128Z" fill="#F36F56"/>
<path d="M11.1543 19.4128C12.219 19.4128 13.0821 18.5497 13.0821 17.485C13.0821 16.4203 12.219 15.5572 11.1543 15.5572C10.0897 15.5572 9.22656 16.4203 9.22656 17.485C9.22656 18.5497 10.0897 19.4128 11.1543 19.4128Z" fill="#F36F56"/>
<path d="M16.6944 19.4128C17.7591 19.4128 18.6222 18.5497 18.6222 17.485C18.6222 16.4203 17.7591 15.5572 16.6944 15.5572C15.6297 15.5572 14.7666 16.4203 14.7666 17.485C14.7666 18.5497 15.6297 19.4128 16.6944 19.4128Z" fill="#F36F56"/>
<path d="M5.61529 24.7812C6.67997 24.7812 7.54307 23.9181 7.54307 22.8534C7.54307 21.7888 6.67997 20.9257 5.61529 20.9257C4.5506 20.9257 3.6875 21.7888 3.6875 22.8534C3.6875 23.9181 4.5506 24.7812 5.61529 24.7812Z" fill="#F36F56"/>
<path d="M11.1543 24.7812C12.219 24.7812 13.0821 23.9181 13.0821 22.8534C13.0821 21.7888 12.219 20.9257 11.1543 20.9257C10.0897 20.9257 9.22656 21.7888 9.22656 22.8534C9.22656 23.9181 10.0897 24.7812 11.1543 24.7812Z" fill="#F36F56"/>
<path d="M16.6944 24.7812C17.7591 24.7812 18.6222 23.9181 18.6222 22.8534C18.6222 21.7888 17.7591 20.9257 16.6944 20.9257C15.6297 20.9257 14.7666 21.7888 14.7666 22.8534C14.7666 23.9181 15.6297 24.7812 16.6944 24.7812Z" fill="#F36F56"/>
<path d="M22.1045 14.0443C23.1692 14.0443 24.0323 13.1812 24.0323 12.1165C24.0323 11.0518 23.1692 10.1887 22.1045 10.1887C21.0399 10.1887 20.1768 11.0518 20.1768 12.1165C20.1768 13.1812 21.0399 14.0443 22.1045 14.0443Z" fill="#F36F56"/>
<path d="M22.1045 19.4128C23.1692 19.4128 24.0323 18.5497 24.0323 17.485C24.0323 16.4203 23.1692 15.5572 22.1045 15.5572C21.0399 15.5572 20.1768 16.4203 20.1768 17.485C20.1768 18.5497 21.0399 19.4128 22.1045 19.4128Z" fill="#F36F56"/>
<path d="M22.1045 24.7812C23.1692 24.7812 24.0323 23.9181 24.0323 22.8534C24.0323 21.7888 23.1692 20.9257 22.1045 20.9257C21.0399 20.9257 20.1768 21.7888 20.1768 22.8534C20.1768 23.9181 21.0399 24.7812 22.1045 24.7812Z" fill="#F36F56"/>
</svg>
