<svg width="28" height="28" viewBox="0 0 28 28" fill="none" xmlns="http://www.w3.org/2000/svg">
<path d="M0.933352 10.2663L0.392008 9.50655C0.270868 9.5928 0.17209 9.70675 0.103902 9.83891C0.0357149 9.97106 9.1695e-05 10.1176 0 10.2663H0.933352ZM14.0003 0.932777L14.5416 0.173028C14.3836 0.0604807 14.1943 0 14.0003 0C13.8062 0 13.617 0.0604807 13.4589 0.173028L14.0003 0.932777ZM27.0672 10.2663H28.0006C28.0005 10.1176 27.9649 9.97106 27.8967 9.83891C27.8285 9.70675 27.7297 9.5928 27.6086 9.50655L27.0672 10.2663ZM4.66676 13.9997V13.0664H3.73341V13.9997H4.66676ZM23.3338 13.9997H24.2672V13.0664H23.3338V13.9997ZM1.8667 28V10.2663H0V28H1.8667ZM1.4747 11.0261L14.5416 1.69253L13.4589 0.173028L0.392008 9.50655L1.4747 11.0261ZM13.4589 1.69253L26.5259 11.0261L27.6086 9.50655L14.5416 0.173028L13.4589 1.69253ZM26.1339 10.2663V28H28.0006V10.2663H26.1339ZM5.60011 28V13.9997H3.73341V28H5.60011ZM4.66676 14.9331H23.3338V13.0664H4.66676V14.9331ZM22.4005 13.9997V28H24.2672V13.9997H22.4005ZM4.66676 20.5332H23.3338V18.6665H4.66676V20.5332ZM11.2002 24.2666H16.8003V22.3999H11.2002V24.2666Z" fill="#F36F56"/>
</svg>
